<?xml version="1.0" encoding="UTF-8" standalone="no"?>
<svg width="26px" height="26px" viewBox="0 0 26 26" version="1.1" xmlns="http://www.w3.org/2000/svg" xmlns:xlink="http://www.w3.org/1999/xlink">
    <!-- Generator: Sketch 3.8.1 (29687) - http://www.bohemiancoding.com/sketch -->
    <title>icn/d/inventory/setting_normal</title>
    <desc>Created with Sketch.</desc>
    <defs></defs>
    <g id="Symbols" stroke="none" stroke-width="1" fill="none" fill-rule="evenodd">
        <g id="MenuIcon/D/Inventory" transform="translate(-103.000000, -12.000000)" fill="#FFFFFF">
            <g id="icn/d/inventory/setting_normal" transform="translate(91.000000, 0.000000)">
                <g id="1464369782_54" transform="translate(12.500000, 12.500000)">
                    <g id="Layer_1">
                        <path d="M11.0798279,12.3919926 C11.0798279,11.6677688 11.6677688,11.0798279 12.3919926,11.0798279 C13.1162743,11.0798279 13.7042729,11.6677688 13.7042729,12.3919926 C13.7042729,13.1162743 13.1162743,13.7042729 12.3919926,13.7042729 C11.6677688,13.7043307 11.0798279,13.1162743 11.0798279,12.3919926 L11.0798279,12.3919926 Z M12.3919926,8.98029509 C10.5077743,8.98029509 8.98023732,10.5077743 8.98023732,12.3919926 C8.98023732,14.276211 10.5077743,15.803748 12.3919926,15.803748 C14.2761532,15.803748 15.803748,14.276211 15.803748,12.3919926 C15.803748,10.5077743 14.2761532,8.98029509 12.3919926,8.98029509 L12.3919926,8.98029509 Z M3.55300671,14.9011834 C3.75243403,15.6095201 4.03586114,16.2815185 4.39260032,16.9056821 L2.81797957,18.6275047 C2.36689948,19.0791625 2.36689948,19.8086436 2.81797957,20.2600703 L4.52385723,21.965948 C4.97545726,22.4171436 5.70488057,22.4171436 6.15642283,21.965948 L7.87818766,20.3914427 C8.50252456,20.7481242 9.1744652,21.0315513 9.88291744,21.2308053 L10.0300615,23.5719964 C10.0300615,24.2121049 10.5445747,24.7266759 11.1848566,24.7266759 L13.5991865,24.7266759 C14.239295,24.7266759 14.753866,24.2121049 14.753866,23.5719964 L14.9003746,21.2308053 C15.6094046,21.0315513 16.2813452,20.7481242 16.9057976,20.3914427 L18.6273892,21.965948 C19.0789892,22.4171436 19.8085858,22.4171436 20.2600125,21.965948 L21.9658902,20.2600703 C22.4170858,19.8087013 22.4170858,19.0792203 21.9658902,18.6275047 L20.3913272,16.9056821 C20.7480086,16.2814607 21.0314357,15.6094623 21.2307475,14.9011834 L23.5718809,14.7539238 C24.2119894,14.7539238 24.7265604,14.2394106 24.7265604,13.599302 L24.7265604,11.1849721 C24.7265604,10.544517 24.2119894,10.0300615 23.5718809,10.0300615 L21.2307475,9.88326407 C21.0314357,9.17452297 20.7480086,8.5026401 20.3913272,7.87807212 L21.9658902,6.15653837 C22.4170858,5.70499611 22.4170858,4.97557281 21.9658902,4.523915 L20.2600125,2.81803734 C19.8086436,2.36672617 19.079047,2.36672617 18.6273892,2.81803734 L16.9057976,4.39265809 C16.2813452,4.03597668 15.6094623,3.7524918 14.9003746,3.55306448 L14.753866,1.21210442 C14.753866,0.571649265 14.239295,0.0571938122 13.5991865,0.0571938122 L11.1848566,0.0571938122 C10.5445747,0.0571938122 10.0300615,0.571649265 10.0300615,1.21210442 L9.88291744,3.55306448 C9.1744652,3.7524918 8.50252456,4.03591891 7.87818766,4.39265809 L6.15642283,2.81803734 C5.70488057,2.36672617 4.97545726,2.36672617 4.52385723,2.81803734 L2.81797957,4.523915 C2.36689948,4.97557281 2.36689948,5.70499611 2.81797957,6.15653837 L4.39260032,7.87807212 C4.03586114,8.50269787 3.75243403,9.17458074 3.55300671,9.88326407 L1.21204665,10.0300615 C0.571822579,10.0300615 0.0572515837,10.544517 0.0572515837,11.1849721 L0.0572515837,13.599302 C0.0572515837,14.2394106 0.571822579,14.7539238 1.21204665,14.7539238 L3.55300671,14.9011834 L3.55300671,14.9011834 Z M12.3919926,6.88076224 C15.4361477,6.88076224 17.9031653,9.34789532 17.9031653,12.3920504 C17.9031653,15.4362633 15.4362055,17.9032231 12.3919926,17.9032231 C9.34777978,17.9032231 6.88070447,15.4362633 6.88070447,12.3920504 C6.88070447,9.34783755 9.34777978,6.88076224 12.3919926,6.88076224 L12.3919926,6.88076224 Z" id="Shape"></path>
                    </g>
                </g>
            </g>
        </g>
    </g>
</svg>