<?xml version="1.0" encoding="UTF-8"?>
<svg width="100px" height="100px" viewBox="0 0 100 100" version="1.1" xmlns="http://www.w3.org/2000/svg" xmlns:xlink="http://www.w3.org/1999/xlink">
    <!-- Generator: Sketch 48.2 (47327) - http://www.bohemiancoding.com/sketch -->
    <title>icn/d/sales/pay_kbank</title>
    <desc>Created with Sketch.</desc>
    <defs>
        <linearGradient x1="50%" y1="0%" x2="50%" y2="96.9208386%" id="linearGradient-1">
            <stop stop-color="#30B657" offset="0%"></stop>
            <stop stop-color="#019F31" offset="100%"></stop>
        </linearGradient>
        <circle id="path-2" cx="50" cy="50" r="50"></circle>
    </defs>
    <g id="**Icon-Set" stroke="none" stroke-width="1" fill="none" fill-rule="evenodd">
        <g id="icn/d/sales/pay_kbank">
            <g id="icn_menu_sp_kgateway">
                <g id="icn_menu_sp_2c2p">
                    <mask id="mask-3" fill="white">
                        <use xlink:href="#path-2"></use>
                    </mask>
                    <g id="Mask">
                        <use fill="#FFFFFF" fill-rule="evenodd" xlink:href="#path-2"></use>
                        <circle stroke="url(#linearGradient-1)" stroke-width="2" cx="50" cy="50" r="49"></circle>
                    </g>
                </g>
                <g id="kbank" transform="translate(20.000000, 20.000000)">
                    <g id="Group">
                        <g id="Shape">
                            <path d="M57.8108108,30.2102426 C57.8108108,45.4285714 45.4378378,57.7681941 30.1783784,57.7681941 C14.9189189,57.7681941 2.54594595,45.4285714 2.54594595,30.2102426 C2.54594595,14.9919137 14.9189189,2.65229111 30.1783784,2.65229111 C45.4378378,2.65229111 57.8108108,14.9919137 57.8108108,30.2102426" fill="#FFFFFF"></path>
                            <g transform="translate(10.378378, 43.018868)" fill="#99877D">
                                <path d="M33.7297297,1.45552561 C32.4486486,0.808625337 31.1189189,0.129380054 29.0756757,0.129380054 C27.2756757,0.129380054 25.8486486,0.79245283 24.4540541,1.42318059 C22.9945946,2.08625337 21.4864865,2.78167116 19.4756757,2.78167116 C17.7081081,2.78167116 16.3783784,2.1671159 14.9513514,1.50404313 C13.4918919,0.824797844 11.9675676,0.129380054 9.94054054,0.129380054 C8.14054054,0.129380054 6.6972973,0.776280323 5.3027027,1.40700809 C3.84324324,2.07008086 2.31891892,2.74932615 0.308108108,2.74932615 L0,2.74932615 C0.210810811,3.00808625 0.421621622,3.25067385 0.632432432,3.49326146 C2.64324324,3.42857143 4.16756757,2.74932615 5.62702703,2.08625337 C7.02162162,1.47169811 8.31891892,0.873315364 9.95675676,0.873315364 C11.8216216,0.873315364 13.2,1.50404313 14.6432432,2.18328841 C16.0702703,2.84636119 17.5459459,3.52560647 19.4756757,3.52560647 C21.6486486,3.52560647 23.2378378,2.79784367 24.7621622,2.08625337 C26.1405405,1.45552561 27.4378378,0.857142857 29.0756757,0.857142857 C30.9243243,0.857142857 32.1243243,1.45552561 33.3891892,2.10242588 C34.7675676,2.79784367 36.1945946,3.52560647 38.5459459,3.52560647 C38.772973,3.26684636 38.9837838,3.00808625 39.1945946,2.74932615 C39,2.76549865 38.7891892,2.76549865 38.5783784,2.76549865 C36.4054054,2.79784367 35.0432432,2.11859838 33.7297297,1.45552561"></path>
                                <path d="M29.0756757,1.55256065 C27.2756757,1.55256065 25.8486486,2.21563342 24.4540541,2.84636119 C22.9945946,3.50943396 21.4864865,4.20485175 19.4756757,4.20485175 C17.7081081,4.20485175 16.3783784,3.5902965 14.9513514,2.92722372 C13.4918919,2.24797844 11.9675676,1.55256065 9.94054054,1.55256065 C8.14054054,1.55256065 6.6972973,2.19946092 5.3027027,2.83018868 C4.05405405,3.38005391 2.78918919,3.96226415 1.2,4.12398922 C1.41081081,4.35040431 1.63783784,4.57681941 1.84864865,4.8032345 C3.27567568,4.57681941 4.45945946,4.04312668 5.61081081,3.52560647 C7.00540541,2.89487871 8.3027027,2.31266846 9.94054054,2.31266846 C11.8054054,2.31266846 13.1837838,2.94339623 14.627027,3.62264151 C16.0540541,4.28571429 17.5297297,4.96495957 19.4594595,4.96495957 C21.6324324,4.96495957 23.2216216,4.23719677 24.7459459,3.52560647 C26.1243243,2.89487871 27.4216216,2.29649596 29.0594595,2.29649596 C30.9081081,2.29649596 32.1081081,2.89487871 33.372973,3.54177898 C34.4918919,4.10781671 35.627027,4.67385445 37.2486486,4.88409704 C37.4756757,4.65768194 37.7027027,4.43126685 37.9297297,4.18867925 C36.1135135,4.0754717 34.8972973,3.46091644 33.7135135,2.86253369 C32.4486486,2.23180593 31.1189189,1.55256065 29.0756757,1.55256065"></path>
                                <path d="M29.0756757,2.97574124 C27.2756757,2.97574124 25.8486486,3.63881402 24.4540541,4.26954178 C22.9945946,4.93261456 21.4864865,5.62803235 19.4756757,5.62803235 C17.7081081,5.62803235 16.3783784,5.01347709 14.9513514,4.35040431 C13.4918919,3.67115903 11.9675676,2.97574124 9.94054054,2.97574124 C8.14054054,2.97574124 6.6972973,3.62264151 5.3027027,4.25336927 C4.39459459,4.65768194 3.47027027,5.07816712 2.41621622,5.33692722 C2.64324324,5.54716981 2.85405405,5.74123989 3.08108108,5.93530997 C3.98918919,5.66037736 4.81621622,5.30458221 5.61081081,4.93261456 C7.00540541,4.3180593 8.3027027,3.71967655 9.94054054,3.71967655 C11.8054054,3.71967655 13.1837838,4.35040431 14.627027,5.0296496 C16.0540541,5.69272237 17.5297297,6.37196765 19.4594595,6.37196765 C21.6324324,6.37196765 23.2216216,5.64420485 24.7459459,4.93261456 C26.1243243,4.30188679 27.4216216,3.70350404 29.0594595,3.70350404 C30.9081081,3.70350404 32.1081081,4.30188679 33.372973,4.94878706 C34.1675676,5.35309973 34.9783784,5.7574124 35.9837838,6.03234501 C36.2108108,5.83827493 36.4540541,5.62803235 36.6648649,5.41778976 C35.4972973,5.15902965 34.6054054,4.70619946 33.7135135,4.26954178 C32.4486486,3.65498652 31.1189189,2.97574124 29.0756757,2.97574124"></path>
                                <path d="M29.0756757,4.39892183 C27.2756757,4.39892183 25.8486486,5.06199461 24.4540541,5.69272237 C22.9945946,6.35579515 21.4864865,7.05121294 19.4756757,7.05121294 C17.7081081,7.05121294 16.3783784,6.43665768 14.9513514,5.77358491 C13.4918919,5.09433962 11.9675676,4.39892183 9.94054054,4.39892183 C8.14054054,4.39892183 6.6972973,5.0458221 5.3027027,5.67654987 C4.75135135,5.91913747 4.2,6.17789757 3.61621622,6.38814016 C3.84324324,6.58221024 4.07027027,6.76010782 4.2972973,6.93800539 C4.75135135,6.76010782 5.17297297,6.56603774 5.61081081,6.37196765 C7.00540541,5.7574124 8.3027027,5.15902965 9.94054054,5.15902965 C11.8054054,5.15902965 13.1837838,5.78975741 14.627027,6.4690027 C16.0540541,7.13207547 17.5297297,7.81132075 19.4594595,7.81132075 C21.6324324,7.81132075 23.2216216,7.08355795 24.7459459,6.38814016 C26.1243243,5.7574124 27.4216216,5.15902965 29.0594595,5.15902965 C30.9081081,5.15902965 32.1081081,5.7574124 33.372973,6.40431267 C33.8108108,6.63072776 34.2648649,6.85714286 34.7513514,7.05121294 C34.9783784,6.87331536 35.2216216,6.69541779 35.4486486,6.51752022 C34.8324324,6.29110512 34.2648649,6 33.7297297,5.72506739 C32.4486486,5.07816712 31.1189189,4.39892183 29.0756757,4.39892183"></path>
                                <path d="M29.0756757,5.83827493 C27.2756757,5.83827493 25.8486486,6.50134771 24.4540541,7.13207547 C22.9945946,7.79514825 21.4864865,8.49056604 19.4756757,8.49056604 C17.7081081,8.49056604 16.3783784,7.87601078 14.9513514,7.21293801 C13.4918919,6.53369272 11.9675676,5.83827493 9.94054054,5.83827493 C8.14054054,5.83827493 6.6972973,6.4851752 5.3027027,7.11590296 C5.14054054,7.1967655 4.97837838,7.26145553 4.81621622,7.32614555 C5.05945946,7.50404313 5.28648649,7.66576819 5.52972973,7.82749326 C5.56216216,7.81132075 5.57837838,7.81132075 5.59459459,7.79514825 C6.98918919,7.18059299 8.28648649,6.58221024 9.92432432,6.58221024 C11.7891892,6.58221024 13.1675676,7.21293801 14.6108108,7.89218329 C16.0378378,8.55525606 17.5135135,9.23450135 19.4432432,9.23450135 C21.6162162,9.23450135 23.2054054,8.50673854 24.7297297,7.81132075 C26.1081081,7.18059299 27.4054054,6.58221024 29.0432432,6.58221024 C30.8918919,6.58221024 32.0918919,7.18059299 33.3567568,7.82749326 C33.4054054,7.85983827 33.4702703,7.89218329 33.5189189,7.9083558 C33.7621622,7.74663073 33.9891892,7.58490566 34.2324324,7.42318059 C34.0540541,7.34231806 33.8756757,7.24528302 33.6972973,7.16442049 C32.4486486,6.50134771 31.1189189,5.83827493 29.0756757,5.83827493"></path>
                                <path d="M24.4540541,8.55525606 C22.9945946,9.21832884 21.4864865,9.91374663 19.4756757,9.91374663 C17.7081081,9.91374663 16.3783784,9.29919137 14.9513514,8.6361186 C13.4918919,7.95687332 11.9675676,7.26145553 9.94054054,7.26145553 C8.48108108,7.26145553 7.24864865,7.69811321 6.0972973,8.18328841 C6.35675676,8.34501348 6.63243243,8.50673854 6.89189189,8.66846361 C7.84864865,8.29649596 8.82162162,8.00539084 9.94054054,8.00539084 C11.8054054,8.00539084 13.1837838,8.6361186 14.627027,9.31536388 C16.0540541,9.97843666 17.5297297,10.6576819 19.4594595,10.6576819 C21.6324324,10.6576819 23.2216216,9.92991914 24.7459459,9.23450135 C26.1243243,8.60377358 27.4216216,8.00539084 29.0594595,8.00539084 C30.3567568,8.00539084 31.3459459,8.31266846 32.2540541,8.70080863 C32.5135135,8.53908356 32.772973,8.393531 33.0324324,8.23180593 C31.9459459,7.71428571 30.7459459,7.24528302 29.0594595,7.24528302 C27.2918919,7.26145553 25.8486486,7.9083558 24.4540541,8.55525606"></path>
                            </g>
                            <path d="M30,0.145552561 C13.4594595,0.145552561 0.0486486486,13.5202156 0.0486486486,30.0161725 C0.0486486486,46.5121294 13.4594595,59.8867925 30,59.8867925 C46.5405405,59.8867925 59.9513514,46.5121294 59.9513514,30.0161725 C59.9513514,13.5202156 46.5405405,0.145552561 30,0.145552561 L30,0.145552561 L30,0.145552561 Z M30,55.1320755 C16.1027027,55.1320755 4.83243243,43.8921833 4.83243243,30.0161725 C4.83243243,16.1563342 16.1027027,4.91644205 30,4.91644205 C43.8972973,4.91644205 55.1675676,16.1563342 55.1675676,30.0161725 C55.1675676,43.8921833 43.8972973,55.1320755 30,55.1320755 L30,55.1320755 Z" fill="#ED1C2E"></path>
                        </g>
                        <g transform="translate(15.567568, 9.865229)" fill="#2FB457" id="Shape">
                            <path d="M28.427027,12.7439353 C28.2486486,13.6657682 27.2918919,14.6522911 26.772973,15.0727763 C25.6054054,16.0107817 17.8540541,20.7331536 16.9783784,21.8328841 C16.1027027,22.9326146 15.9567568,24.5336927 15.9567568,25.7628032 L15.9567568,34.851752 L17.1567568,34.851752 L17.1567568,32.490566 C17.1567568,31.6819407 17.6108108,30.4204852 18.5675676,29.4339623 C20.172973,27.7681941 23.8702703,25.6819407 26.3027027,23.9191375 C28.3297297,22.4474394 28.4594595,20.425876 28.4594595,18.6792453 L28.4594595,12.4690027 L28.427027,12.7439353 L28.427027,12.7439353 Z"></path>
                            <path d="M15.9567568,21.2668464 C16.8162162,20.1994609 24.8108108,15.3315364 25.9621622,14.393531 C27.1135135,13.4716981 28.4432432,12.032345 28.4432432,10.2371968 L28.4432432,0.064690027 C28.4432432,1.48787062 27.6486486,2.58760108 26.5945946,3.94609164 C25.4108108,5.48247978 20.0432432,8.37735849 17.3837838,10.2371968 C14.7243243,12.097035 13.8162162,13.9568733 13.8162162,16.2533693 L13.8162162,34.8355795 L15.0162162,34.8355795 L15.0162162,25.1320755 C15.0162162,23.9191375 15.0972973,22.3504043 15.9567568,21.2668464 L15.9567568,21.2668464 Z"></path>
                            <path d="M9.89189189,10.754717 C7.45945946,8.89487871 2.48108108,4.88409704 1.8972973,4.10781671 C1.32972973,3.31536388 0.0324324324,1.89218329 0.0324324324,0.177897574 L0.0324324324,9.62264151 C0.0324324324,10.9811321 0.681081081,13.4070081 3.04864865,15.1374663 C5.41621622,16.851752 8.74054054,19.3584906 9.74594595,20.361186 C10.7513514,21.3638814 11.6756757,23.1590296 11.6756757,25.7466307 L11.6756757,34.8679245 L12.8594595,34.8679245 L12.8594595,16.7061995 C12.8594595,13.7304582 12.3243243,12.6145553 9.89189189,10.754717 L9.89189189,10.754717 Z"></path>
                        </g>
                    </g>
                </g>
            </g>
        </g>
    </g>
</svg>