<?xml version="1.0" encoding="UTF-8" standalone="no"?>
<svg width="26px" height="24px" viewBox="0 0 26 24" version="1.1" xmlns="http://www.w3.org/2000/svg" xmlns:xlink="http://www.w3.org/1999/xlink">
    <!-- Generator: Sketch 3.8.1 (29687) - http://www.bohemiancoding.com/sketch -->
    <title>icn/d/setting/account_normal</title>
    <desc>Created with Sketch.</desc>
    <defs></defs>
    <g id="Symbols" stroke="none" stroke-width="1" fill="none" fill-rule="evenodd">
        <g id="MenuIcon/D/Settings" transform="translate(-12.000000, -13.000000)">
            <g id="icn/d/setting/account_normal">
                <g id="Group">
                    <rect id="Rectangle-73" x="0" y="0" width="50" height="50"></rect>
                </g>
                <g id="1464382275_shops-30-61560" transform="translate(12.500000, 13.500000)" fill="#FFFFFF">
                    <g id="Capa_1" transform="translate(0.000000, -0.000000)">
                        <path d="M23.8585664,4.82470862 L23.9653263,4.82470862 C24.2738928,4.82470862 24.5450466,4.70011655 24.729021,4.4738345 C24.919697,4.23933566 24.9902681,3.91818182 24.9224942,3.59294872 L24.4122378,1.14172494 C24.284965,0.530885781 23.7398601,0.0523892774 23.1711538,0.0523892774 L8.90810023,0.0525058275 L1.77674825,0.0525058275 C1.20804196,0.0525058275 0.662878788,0.531002331 0.535664336,1.14184149 L0.0251748252,3.59294872 C-0.0425407925,3.91824009 0.027972028,4.23933566 0.218648019,4.4738345 C0.402680653,4.70011655 0.673951049,4.8247669 0.982575758,4.8247669 L1.08939394,4.8247669 C0.818589744,6.28269231 0.547261072,7.74044289 0.275990676,9.1983683 L0.254312354,9.31491841 C-0.00332167832,10.6604312 0.620979021,11.9036131 1.8537296,12.5416084 L1.8537296,21.3988345 C1.8537296,22.2342657 2.53339161,22.913986 3.36888112,22.913986 L21.5787879,22.913986 C22.4142774,22.913986 23.0939394,22.2342657 23.0939394,21.3988345 L23.0939394,12.5440559 C24.3289044,11.9066434 24.9532634,10.6623543 24.6938228,9.31672494 L23.8585664,4.82470862 L23.8585664,4.82470862 Z M8.05244755,9.40658508 C8.16637529,7.87931235 8.28053613,6.35198135 8.39469697,4.82470862 L11.3224359,4.82470862 C11.3020979,6.34178322 11.2815851,7.85862471 11.2608392,9.3743007 C11.2439977,10.3119464 10.3721445,10.894289 9.57016317,10.8962121 C9.12674825,10.8962121 8.68962704,10.7103147 8.4009324,10.3988928 C8.22226107,10.2060606 8.01672494,9.8775641 8.05244755,9.40658508 L8.05244755,9.40658508 Z M3.75081585,10.8962121 L3.73292541,10.8958625 L3.71060606,10.8962704 C3.28158508,10.8962704 2.87167832,10.7138112 2.61404429,10.4081585 C2.4539627,10.2182401 2.279662,9.89609557 2.35844988,9.43717949 L3.11404429,4.82482517 L6.06264569,4.82482517 L5.60104895,9.34184149 C5.5041958,10.2077506 4.68910256,10.8905594 3.75081585,10.8962121 L3.75081585,10.8962121 Z M11.5555944,16.7559441 C11.5555944,17.0777972 11.2946387,17.3386946 10.9728438,17.3386946 L5.96118881,17.3386946 C5.63939394,17.3386946 5.37843823,17.0777972 5.37843823,16.7559441 L5.37843823,15.0659674 C5.37843823,14.7441142 5.63939394,14.4832168 5.96118881,14.4832168 L10.9728438,14.4832168 C11.2946387,14.4832168 11.5555944,14.7441142 11.5555944,15.0659674 L11.5555944,16.7559441 L11.5555944,16.7559441 Z M13.7153846,9.3756993 L13.6518065,4.82470862 L16.5795455,4.82470862 C16.6920746,6.32331002 16.8047786,7.8219697 16.9174825,9.32051282 L16.923951,9.40705128 C16.9596737,9.87768065 16.7542541,10.2062354 16.5755245,10.3990676 C16.2870047,10.7103147 15.8501748,10.8961538 15.4030303,10.8961538 C14.6050117,10.8943473 13.7328671,10.3118298 13.7153846,9.3756993 L13.7153846,9.3756993 Z M19.5693473,20.0606643 C19.5693473,20.3824009 19.3083916,20.6434149 18.9865967,20.6434149 L15.8691142,20.6434149 C15.5473776,20.6434149 15.2864219,20.3824009 15.2864219,20.0606643 L15.2864219,15.631993 C15.2864219,15.3101399 15.5473776,15.0492424 15.8691142,15.0492424 L18.9865967,15.0492424 C19.3083916,15.0492424 19.5693473,15.3101399 19.5693473,15.631993 L19.5693473,20.0606643 L19.5693473,20.0606643 Z M22.3337995,10.4106061 C22.0775058,10.7146853 21.6697552,10.8962704 21.2431818,10.8962704 L21.2321096,10.8962121 C20.2879953,10.8895105 19.4723776,10.2066434 19.375641,9.34487179 C19.220979,7.83822844 19.0662587,6.33146853 18.9117716,4.82470862 L21.8340326,4.82470862 L22.590035,9.43986014 C22.668648,9.89749417 22.4941142,10.220338 22.3337995,10.4106061 L22.3337995,10.4106061 Z" id="Shape"></path>
                    </g>
                </g>
            </g>
        </g>
    </g>
</svg>