<?xml version="1.0" encoding="UTF-8" standalone="no"?>
<svg width="24px" height="26px" viewBox="0 0 24 26" version="1.1" xmlns="http://www.w3.org/2000/svg" xmlns:xlink="http://www.w3.org/1999/xlink">
    <!-- Generator: Sketch 3.8.1 (29687) - http://www.bohemiancoding.com/sketch -->
    <title>icn/d/setting/role_normal</title>
    <desc>Created with Sketch.</desc>
    <defs></defs>
    <g id="Symbols" stroke="none" stroke-width="1" fill="none" fill-rule="evenodd">
        <g id="MenuIcon/D/Settings" transform="translate(-194.000000, -12.000000)" fill="#FFFFFF">
            <g id="icn/d/setting/role_normal" transform="translate(181.000000, 0.000000)">
                <g id="1464382978_104" transform="translate(13.327626, 12.500000)">
                    <g id="Layer_1">
                        <path d="M0.606678082,19.8744292 C-0.197545662,20.6775685 -0.197545662,21.9848744 0.606678082,22.7885274 C1.41033105,23.5925799 2.71746575,23.5925799 3.51563927,22.7885274 L4.09651826,22.2131849 L6.51877854,24.6348744 C6.93299087,25.0497146 7.59686073,25.0497146 8.01164384,24.6348744 L11.6214612,21.0250571 C12.0363014,20.6109589 12.0363014,19.9468607 11.6214612,19.5320776 L9.19971461,17.1104452 L13.513984,12.7906963 C14.4371575,13.2676941 15.4894406,13.5369863 16.5995434,13.5369863 C20.3229452,13.5369863 23.3410388,10.5193493 23.3410388,6.79560502 C23.3410388,3.07231735 20.3229452,0.054109589 16.5995434,0.054109589 C12.8759132,0.054109589 9.85810502,3.07231735 9.85810502,6.79560502 C9.85810502,7.90570776 10.1275685,8.95804795 10.6045091,9.88122146 L0.606678082,19.8744292 L0.606678082,19.8744292 Z M14.006621,6.79560502 C14.006621,5.36438356 15.168379,4.20262557 16.5994863,4.20262557 C18.0307648,4.20262557 19.1922945,5.36438356 19.1922945,6.79560502 C19.1922945,8.22682648 18.0307648,9.38841324 16.5994863,9.38841324 C15.1684361,9.38841324 14.006621,8.22676941 14.006621,6.79560502 L14.006621,6.79560502 Z" id="Shape"></path>
                    </g>
                </g>
            </g>
        </g>
    </g>
</svg>