<?xml version="1.0" encoding="UTF-8" standalone="no"?>
<svg width="25px" height="23px" viewBox="0 0 25 23" version="1.1" xmlns="http://www.w3.org/2000/svg" xmlns:xlink="http://www.w3.org/1999/xlink">
    <!-- Generator: Sketch 3.8.1 (29687) - http://www.bohemiancoding.com/sketch -->
    <title>icn/d/setting/staff_normal</title>
    <desc>Created with Sketch.</desc>
    <defs></defs>
    <g id="Symbols" stroke="none" stroke-width="1" fill="none" fill-rule="evenodd">
        <g id="MenuIcon/D/Settings" transform="translate(-103.000000, -12.000000)">
            <g id="icn/d/setting/staff_normal" transform="translate(90.500000, 0.000000)">
                <g id="icnb_top_staff" transform="translate(12.500000, 12.115385)" fill="#FFFFFF">
                    <g id="icnb_x5F_top_x5F_staff">
                        <g id="Group">
                            <rect id="Rectangle-path" x="12.5504762" y="11.4359727" width="3.88416667" height="1.50522012"></rect>
                            <rect id="Rectangle-path" x="12.5504762" y="14.446413" width="8.541875" height="1.50522012"></rect>
                            <rect id="Rectangle-path" x="12.5504762" y="17.462172" width="8.541875" height="1.50522012"></rect>
                            <path d="M22.8424206,3.90455335 L14.8765873,3.90455335 L14.8765873,2.77164916 C14.8765873,1.31429824 14.0481845,0.133524862 12.5449901,0.133524862 C11.0417956,0.133524862 10.2133929,1.31429824 10.2133929,2.77164916 L10.2133929,3.89923455 L2.25304563,3.89923455 C1.07901786,3.90455335 0.118948413,4.83002437 0.118948413,5.97356616 L0.118948413,19.9088195 C0.118948413,21.0523613 1.07901786,21.9778323 2.25304563,21.9778323 L22.8424206,21.9778323 C24.0219345,21.9778323 24.9765179,21.0470425 24.9765179,19.9088195 L24.9765179,5.97356616 C24.982004,4.83002437 24.0219345,3.90455335 22.8424206,3.90455335 L22.8424206,3.90455335 Z M12.5449901,1.64406378 C12.9729067,1.64406378 13.3240179,1.97914811 13.3240179,2.39933323 C13.3240179,2.81419955 12.9783929,3.15460269 12.5449901,3.15460269 C12.1170734,3.15460269 11.7659623,2.81951835 11.7659623,2.39933323 C11.7714484,1.97914811 12.1170734,1.64406378 12.5449901,1.64406378 L12.5449901,1.64406378 Z M2.25304563,5.40977346 L10.2133929,5.40977346 L10.2133929,7.67026304 L14.8765873,7.67026304 L14.8765873,5.40977346 L22.8424206,5.40977346 C23.1661012,5.40977346 23.4239484,5.66507582 23.4239484,5.97356616 L23.4239484,8.42021369 L1.67151786,8.42021369 L1.67151786,5.97356616 C1.67151786,5.65975702 1.93485119,5.40977346 2.25304563,5.40977346 L2.25304563,5.40977346 Z M22.8424206,20.4726122 L2.25304563,20.4726122 C1.92936508,20.4726122 1.67151786,20.2173099 1.67151786,19.9088195 L1.67151786,9.92543381 L23.4239484,9.92543381 L23.4239484,19.9088195 C23.4239484,20.2173099 23.1661012,20.4726122 22.8424206,20.4726122 L22.8424206,20.4726122 Z" id="Shape"></path>
                            <path d="M8.69922619,16.456919 C8.22742063,16.297355 8.17804563,16.1803414 8.13415675,15.8293007 C8.64985119,15.3559276 8.76505952,14.6804401 8.76505952,14.6804401 C8.76505952,14.6804401 8.69922619,14.7442657 8.82540675,14.5847017 C8.98999008,14.3825874 9.11068452,14.0368654 9.11068452,13.7709255 C9.11068452,13.5049855 9.04485119,13.3720156 9.04485119,13.3720156 C9.17103175,12.4039941 8.79249008,11.8987082 8.27679563,11.6434059 L8.27679563,11.6434059 C8.16707341,11.5848991 8.05186508,11.5476675 7.93117063,11.5157547 C7.90922619,11.5104359 7.88728175,11.5051171 7.8653373,11.4997983 C7.49228175,11.4093787 7.10825397,11.4200163 6.71325397,11.5051171 C6.01651786,11.6859563 5.39110119,12.1752858 5.55019841,13.3773344 C5.55019841,13.3773344 5.4953373,13.5634923 5.4953373,13.8294323 C5.4953373,14.0953722 5.57762897,14.3559934 5.73672619,14.5687453 C5.77512897,14.6219333 5.80255952,14.7070341 5.80255952,14.7070341 C5.80255952,14.7070341 5.95068452,15.265508 6.44443452,15.8558947 C6.43894841,16.1856602 6.36214286,16.3079926 5.8903373,16.4622378 C5.41853175,16.6218017 3.59165675,17.4249404 3.59165675,18.9727109 L6.94367063,18.9727109 L7.62394841,18.9727109 L10.9759623,18.9727109 C10.9924206,17.4249404 9.16554563,16.6164829 8.69922619,16.456919 L8.69922619,16.456919 Z" id="Shape"></path>
                        </g>
                    </g>
                </g>
                <g id="icnb_top_account-+-Oval-58">
                    <circle id="Oval-58" cx="25" cy="25" r="25"></circle>
                </g>
            </g>
        </g>
    </g>
</svg>