<?xml version="1.0" encoding="UTF-8" standalone="no"?>
<svg width="23px" height="25px" viewBox="0 0 23 25" version="1.1" xmlns="http://www.w3.org/2000/svg" xmlns:xlink="http://www.w3.org/1999/xlink">
    <!-- Generator: Sketch 3.8.1 (29687) - http://www.bohemiancoding.com/sketch -->
    <title>icn/d/deals/create_normal</title>
    <desc>Created with Sketch.</desc>
    <defs></defs>
    <g id="Symbols" stroke="none" stroke-width="1" fill="none" fill-rule="evenodd">
        <g id="MenuIcon/D/Deals" transform="translate(-13.000000, -12.000000)">
            <g id="icn/d/deals/create_normal">
                <rect id="Rectangle-204" x="0" y="0" width="50" height="50"></rect>
                <g id="1464442866_Mouse" stroke-width="1" fill-rule="evenodd" transform="translate(13.888889, 12.500000)" fill="#FFFFFF">
                    <g id="Mouse">
                        <path d="M20.8325819,0.0623999374 C20.5003821,-0.0926421397 20.105492,0.0513711113 19.9499856,0.383106593 L19.1954978,2.0016739 C19.1716407,2.04805302 19.0894469,2.1783673 18.9737603,2.2618381 C18.8730497,2.33428008 18.7449412,2.38512877 18.4869247,2.26450824 L16.3214437,1.25420972 C15.4264835,0.837203998 13.8194094,0.8093417 13.0573756,2.44253671 L12.8498014,2.88781106 C9.73851154,1.73547286 6.21317628,3.14222866 4.78587204,6.20226355 L0.634041411,15.1056608 C-0.868781269,18.328574 0.525610636,22.1594658 3.74858192,23.6622885 L3.98912642,23.7744923 C7.21169138,25.2777213 11.0425251,23.8831552 12.5453478,20.6601839 L16.6973526,11.7567867 C18.1246568,8.69634551 16.9358654,5.0917188 14.0530464,3.4492944 L14.2606205,3.00355569 C14.5226422,2.44207234 14.876029,2.35860154 15.1189534,2.34536695 C15.4609051,2.32638576 15.7625725,2.45890581 15.7603667,2.45757075 L17.9258477,3.46786927 C19.1618308,4.04392227 20.0797775,3.24566744 20.3961306,2.56843947 L21.1532886,0.944589937 C21.3083306,0.612332037 21.1647818,0.216977643 20.8325819,0.0623999374 L20.8325819,0.0623999374 Z M12.273226,8.5222642 C11.994487,9.11996853 11.2837081,9.37879767 10.6855394,9.09965227 C10.0874288,8.8209132 9.82854159,8.11054071 10.107745,7.51202373 C10.3860197,6.91385502 11.097321,6.65502589 11.6954316,6.93417128 C12.2936003,7.2129684 12.5524295,7.92368917 12.273226,8.5222642 L12.273226,8.5222642 Z" id="Shape"></path>
                    </g>
                </g>
            </g>
        </g>
    </g>
</svg>