<?xml version="1.0" encoding="UTF-8" standalone="no"?>
<svg width="20px" height="20px" viewBox="0 0 20 20" version="1.1" xmlns="http://www.w3.org/2000/svg" xmlns:xlink="http://www.w3.org/1999/xlink">
    <!-- Generator: Sketch 3.8.1 (29687) - http://www.bohemiancoding.com/sketch -->
    <title>icn/d/product/attribute_normal</title>
    <desc>Created with Sketch.</desc>
    <defs></defs>
    <g id="Symbols" stroke="none" stroke-width="1" fill="none" fill-rule="evenodd">
        <g id="MenuIcon/D/Products" transform="translate(-195.000000, -15.000000)">
            <g id="icn/d/product/attribute_normal" transform="translate(180.000000, 0.000000)">
                <rect id="Rectangle-195" x="0" y="0" width="50" height="50"></rect>
                <g id="icnb_menu_attribute-2" stroke-width="1" fill-rule="evenodd" transform="translate(15.000000, 15.000000)" fill="#FFFFFF">
                    <g id="icnb_x5F_menu_x5F_attribute">
                        <g id="Group">
                            <path d="M6.53947368,2.98988622 L18.4692982,2.98988622 C19.2938596,2.98988622 19.9605263,2.32932996 19.9605263,1.51232617 C19.9605263,0.695322377 19.2938596,0.0347661188 18.4692982,0.0347661188 L6.53947368,0.0347661188 C5.71491228,0.0347661188 5.04824561,0.695322377 5.04824561,1.51232617 C5.04824561,2.32932996 5.71929825,2.98988622 6.53947368,2.98988622 L6.53947368,2.98988622 Z" id="Shape"></path>
                            <path d="M6.53947368,8.53073641 L18.4692982,8.53073641 C19.2938596,8.53073641 19.9605263,7.87018015 19.9605263,7.05317636 C19.9605263,6.23617257 19.2938596,5.57561631 18.4692982,5.57561631 L6.53947368,5.57561631 C5.71491228,5.57561631 5.04824561,6.23617257 5.04824561,7.05317636 C5.04824561,7.87018015 5.71929825,8.53073641 6.53947368,8.53073641 L6.53947368,8.53073641 Z" id="Shape"></path>
                            <path d="M19.9605263,12.5896808 C19.9605263,11.772677 19.2938596,11.1121207 18.4692982,11.1121207 L6.53947368,11.1121207 C5.71491228,11.1121207 5.04824561,11.772677 5.04824561,12.5896808 C5.04824561,13.4066846 5.71491228,14.0672408 6.53947368,14.0672408 L18.4692982,14.0672408 C19.2938596,14.0672408 19.9605263,13.4066846 19.9605263,12.5896808 L19.9605263,12.5896808 Z" id="Shape"></path>
                            <path d="M19.9605263,18.130531 C19.9605263,17.3135272 19.2938596,16.6529709 18.4692982,16.6529709 L6.53947368,16.6529709 C5.71491228,16.6529709 5.04824561,17.3135272 5.04824561,18.130531 C5.04824561,18.9475348 5.71491228,19.608091 6.53947368,19.608091 L18.4692982,19.608091 C19.2938596,19.608091 19.9605263,18.9475348 19.9605263,18.130531 L19.9605263,18.130531 Z" id="Shape"></path>
                            <path d="M3.1622807,16.8137642 L3.1622807,16.8137642 L1.69736842,18.2652497 L0.969298246,17.5438527 L0.969298246,17.5438527 C0.754385965,17.3309102 0.412280702,17.3309102 0.197368421,17.5438527 C-0.0175438596,17.7567952 -0.0175438596,18.0957649 0.197368421,18.3087073 L0.197368421,18.3087073 L1.31578947,19.4081858 C1.53070175,19.6211283 1.87280702,19.6211283 2.0877193,19.4081858 L3.93421053,17.5786188 L3.93421053,17.5786188 C4.14912281,17.3656764 4.14912281,17.0267067 3.93421053,16.8137642 C3.71929825,16.6008217 3.37719298,16.6008217 3.1622807,16.8137642 L3.1622807,16.8137642 Z" id="Shape"></path>
                            <path d="M3.1622807,11.272914 L3.1622807,11.272914 L1.69736842,12.7243995 L0.969298246,12.0030025 L0.969298246,12.0030025 C0.754385965,11.7900601 0.412280702,11.7900601 0.197368421,12.0030025 C-0.0175438596,12.215945 -0.0175438596,12.5549147 0.197368421,12.7678571 L0.197368421,12.7678571 L1.31578947,13.8673357 C1.53070175,14.0802781 1.87280702,14.0802781 2.0877193,13.8673357 L3.93421053,12.0377686 L3.93421053,12.0377686 C4.14912281,11.8248262 4.14912281,11.4858565 3.93421053,11.272914 C3.71929825,11.0599716 3.37719298,11.0599716 3.1622807,11.272914 L3.1622807,11.272914 Z" id="Shape"></path>
                            <path d="M3.1622807,5.73206384 L3.1622807,5.73206384 L1.69736842,7.1835493 L0.969298246,6.46215234 L0.969298246,6.46215234 C0.754385965,6.24920986 0.412280702,6.24920986 0.197368421,6.46215234 C-0.0175438596,6.67509482 -0.0175438596,7.01406448 0.197368421,7.22700695 L0.197368421,7.22700695 L1.31578947,8.32648546 C1.53070175,8.53942794 1.87280702,8.53942794 2.0877193,8.32648546 L3.93421053,6.49691846 L3.93421053,6.49691846 C4.14912281,6.28397598 4.14912281,5.94500632 3.93421053,5.73206384 C3.71929825,5.51912137 3.37719298,5.51912137 3.1622807,5.73206384 L3.1622807,5.73206384 Z" id="Shape"></path>
                            <path d="M3.1622807,0.191213654 L3.1622807,0.191213654 L1.70175439,1.64269912 L0.973684211,0.921302149 L0.973684211,0.921302149 C0.75877193,0.708359671 0.416666667,0.708359671 0.201754386,0.921302149 C-0.0131578947,1.13424463 -0.0131578947,1.47321429 0.201754386,1.68615676 L0.201754386,1.68615676 L1.31578947,2.78998104 C1.53070175,3.00292351 1.87280702,3.00292351 2.0877193,2.78998104 L3.93421053,0.956068268 L3.93421053,0.956068268 C4.14912281,0.74312579 4.14912281,0.404156131 3.93421053,0.191213654 C3.71929825,-0.0173830594 3.37719298,-0.0173830594 3.1622807,0.191213654 L3.1622807,0.191213654 Z" id="Shape"></path>
                        </g>
                    </g>
                </g>
            </g>
        </g>
    </g>
</svg>