<?xml version="1.0" encoding="UTF-8" standalone="no"?>
<svg width="26px" height="18px" viewBox="0 0 26 18" version="1.1" xmlns="http://www.w3.org/2000/svg" xmlns:xlink="http://www.w3.org/1999/xlink">
    <!-- Generator: Sketch 3.8.1 (29687) - http://www.bohemiancoding.com/sketch -->
    <title>icn/d/product/brand_normal</title>
    <desc>Created with Sketch.</desc>
    <defs></defs>
    <g id="Symbols" stroke="none" stroke-width="1" fill="none" fill-rule="evenodd">
        <g id="MenuIcon/D/Products" transform="translate(-462.000000, -16.000000)">
            <g id="icn/d/product/brand_normal" transform="translate(450.000000, 0.000000)">
                <rect id="Rectangle-195" x="0" y="0" width="50" height="50"></rect>
                <g id="1464362960_tags" stroke-width="1" fill-rule="evenodd" transform="translate(12.500000, 16.071429)" fill="#FFFFFF">
                    <g id="fat_exp">
                        <path d="M24.6394352,10.9574697 L21.0824009,16.7373738 C20.742081,17.2904628 19.9958674,17.7077005 19.3462162,17.7077005 L2.49014538,17.7077005 C1.72733085,17.7077005 1.10673128,17.0871009 1.10673128,16.3242864 L1.10673128,16.025469 C1.19748325,16.038473 1.28934194,16.0476036 1.3834141,16.0476036 L18.2394849,16.0476036 C19.0786639,16.0476036 20.0072114,15.5288233 20.4471371,14.8138749 L24.0038948,9.03369408 C24.1278487,8.83199231 24.2155571,8.60511239 24.2725538,8.36744185 L24.6394352,8.96369333 C24.9888856,9.53199984 24.9888856,10.3891632 24.6394352,10.9574697 L24.6394352,10.9574697 Z M23.5327039,8.74400717 L19.9756696,14.5239113 C19.6353497,15.0770002 18.8891361,15.4942379 18.2394849,15.4942379 L1.3834141,15.4942379 C0.620599566,15.4942379 0,14.8736384 0,14.1108238 L0,1.3834141 C0,0.620599566 0.620599566,0 1.3834141,0 L18.2394849,0 C18.8891361,0 19.6353497,0.417237693 19.9756696,0.970326651 L23.5324272,6.75050745 C23.8821543,7.31853728 23.8821543,8.17570066 23.5327039,8.74400717 L23.5327039,8.74400717 Z M14.919291,9.13053307 C14.919291,8.97752747 14.7956138,8.85385025 14.6426082,8.85385025 L3.87355948,8.85385025 C3.72083057,8.85385025 3.59687666,8.97752747 3.59687666,9.13053307 C3.59687666,9.28353867 3.72083057,9.40721589 3.87355948,9.40721589 L14.6426082,9.40721589 C14.7956138,9.40721589 14.919291,9.28353867 14.919291,9.13053307 L14.919291,9.13053307 Z M14.919291,6.36370487 C14.919291,6.21069927 14.7956138,6.08702205 14.6426082,6.08702205 L3.87355948,6.08702205 C3.72083057,6.08702205 3.59687666,6.21069927 3.59687666,6.36370487 C3.59687666,6.51671047 3.72083057,6.64038769 3.87355948,6.64038769 L14.6426082,6.64038769 C14.7956138,6.64038769 14.919291,6.51671047 14.919291,6.36370487 L14.919291,6.36370487 Z M20.1762646,7.74711897 C20.1762646,7.13564993 19.6810024,6.64038769 19.0695333,6.64038769 C18.4580643,6.64038769 17.9628021,7.13564993 17.9628021,7.74711897 C17.9628021,8.358588 18.4580643,8.85385025 19.0695333,8.85385025 C19.6810024,8.85385025 20.1762646,8.358588 20.1762646,7.74711897 L20.1762646,7.74711897 Z" id="Shape"></path>
                    </g>
                </g>
            </g>
        </g>
    </g>
</svg>