<?xml version="1.0" encoding="UTF-8" standalone="no"?>
<svg width="26px" height="22px" viewBox="0 0 26 22" version="1.1" xmlns="http://www.w3.org/2000/svg" xmlns:xlink="http://www.w3.org/1999/xlink">
    <!-- Generator: Sketch 3.8.1 (29687) - http://www.bohemiancoding.com/sketch -->
    <title>icn/d/product/category_normal</title>
    <desc>Created with Sketch.</desc>
    <defs></defs>
    <g id="Symbols" stroke="none" stroke-width="1" fill="none" fill-rule="evenodd">
        <g id="MenuIcon/D/Products" transform="translate(-102.000000, -14.000000)">
            <g id="icn/d/product/category_normal" transform="translate(90.000000, 0.000000)">
                <rect id="Rectangle-195" x="0" y="0" width="50" height="50"></rect>
                <g id="1464365606_folders" stroke-width="1" fill-rule="evenodd" transform="translate(12.500000, 14.460784)" fill="#FFFFFF">
                    <g id="icon" transform="translate(0.000000, 0.000000)">
                        <path d="M23.2923828,2.26609618 L22.6600132,2.26609618 L19.8143504,2.26609618 L14.4392095,2.26609618 L14.1837322,2.26609618 L12.8582857,2.26609618 C12.1057659,2.26609618 11.4370352,1.70897863 11.2773619,1.00135714 C11.2811561,0.970687215 10.9352499,0.052802855 10.5131433,0.052802855 L2.87190618,0.052802855 C2.45011571,0.052802855 2.13424713,0.342428096 2.13424713,0.764218566 L2.13424713,0.817337606 C2.13424713,0.839470539 2.13898991,0.860971103 2.14088701,0.882787851 C2.13993846,0.904920785 2.13424713,0.926105164 2.13424713,0.948554282 L2.13424713,2.26609618 L8.82692996,2.26609618 C9.02960439,2.26609618 9.33409032,2.25566208 9.63509821,2.58038383 C9.80647035,2.7656681 10.0790216,3.1577372 10.1817817,3.50301096 C10.187473,3.51787165 10.1928481,3.51344506 10.1972747,3.5292543 C10.2010689,3.54253406 10.2048631,3.62600683 10.208025,3.63991896 C10.3063585,4.07182735 10.7294137,4.47907332 11.1717561,4.47907332 L21.6058532,4.47907332 C22.8260102,4.47907332 23.6344947,5.32834558 23.6344947,6.56652511 L23.6344947,17.9570811 C24.2668642,17.7680026 24.8992337,17.1498614 24.8992337,16.4093567 L24.8992337,3.82646797 C24.8995499,2.9357755 24.1656851,2.26609618 23.2923828,2.26609618 L23.2923828,2.26609618 Z" id="Shape"></path>
                        <path d="M21.184379,5.21704855 L20.5520094,5.21704855 L17.7063466,5.21704855 L12.3312057,5.21704855 L12.0760446,5.21704855 L10.7502819,5.21704855 C9.99776213,5.21704855 9.32903136,4.659931 9.16935806,3.95230951 C9.16651239,3.93808119 9.17220372,3.96590545 9.16935806,3.95230951 C9.17315227,3.92163959 8.82724614,3.00375523 8.40513949,3.00375523 L0.764218566,3.00375523 C0.342111911,3.00375523 0,3.34586714 0,3.76765761 L0,3.82077665 C0,3.84290958 0.00474277141,3.86441014 0.00663987997,3.88622689 C0.00569132569,3.90867601 0,3.92986039 0,3.95230951 L0,5.45165764 L0,11.8569285 L0,19.5452772 C0,20.3736812 0.707937679,21.0262866 1.5809238,21.0262866 L17.7063466,21.0262866 L20.5520094,21.0262866 L21.184379,21.0262866 C22.0576813,21.0262866 22.7653028,20.3038044 22.7653028,19.4131119 L22.7653028,6.8302232 C22.7653028,5.93953073 22.0576813,5.21704855 21.184379,5.21704855 L21.184379,5.21704855 Z" id="Shape"></path>
                    </g>
                </g>
            </g>
        </g>
    </g>
</svg>