<?xml version="1.0" encoding="UTF-8" standalone="no"?>
<svg width="26px" height="18px" viewBox="0 0 26 18" version="1.1" xmlns="http://www.w3.org/2000/svg" xmlns:xlink="http://www.w3.org/1999/xlink">
    <!-- Generator: Sketch 3.8.1 (29687) - http://www.bohemiancoding.com/sketch -->
    <title>icn/d/product/collection_normal</title>
    <desc>Created with Sketch.</desc>
    <defs></defs>
    <g id="Symbols" stroke="none" stroke-width="1" fill="none" fill-rule="evenodd">
        <g id="MenuIcon/D/Products" transform="translate(-282.000000, -16.000000)">
            <g id="icn/d/product/collection_normal" transform="translate(270.000000, 0.000000)">
                <rect id="Rectangle-195" x="0" y="0" width="50" height="50"></rect>
                <g id="1464364771_crown_king_top" stroke-width="1" fill-rule="evenodd" transform="translate(12.500000, 16.594828)" fill="#FFFFFF">
                    <g id="el_x5F_holiday" transform="translate(0.000000, 0.000000)">
                        <path d="M24.7599703,4.36940652 C24.7599703,3.03382459 23.5620246,1.97861292 22.1820204,2.21893028 C21.3074109,2.37113127 20.5886435,3.08625747 20.4284319,3.95941054 C20.285698,4.73862137 20.5602424,5.45593227 21.0612676,5.93947992 C21.2375004,6.94808459 21.1071464,8.06155502 19.2880168,9.5253062 C18.7753398,9.93748689 18.1344935,10.1952819 17.4768978,10.1952819 C15.4662426,10.1945536 13.836454,8.564765 13.836454,6.55410977 C13.836454,6.10114796 13.9260268,5.67076142 14.0774996,5.27168896 C14.970315,4.6272015 15.4910026,3.49770992 15.2215558,2.26189611 C14.9885208,1.19430445 14.1299324,0.321151379 13.0645255,0.0786493173 C11.158736,-0.356106631 9.46704745,1.08069988 9.46704745,2.91293768 C9.46704745,3.88585886 9.94913864,4.74226254 10.6824707,5.27168896 C10.8630728,5.74722604 10.9555586,6.26500071 10.9140492,6.81408946 C10.7684024,8.7402695 9.04321502,10.2797571 7.11412204,10.1916407 C5.18138789,10.1035243 3.6411721,8.50869095 3.6411721,6.55410977 C3.6411721,6.34365003 3.66374736,6.13974439 3.69870262,5.93947992 C4.1997279,5.45593227 4.47427227,4.73862137 4.33153833,3.95941054 C4.17132675,3.08625747 3.45255938,2.3718595 2.57794984,2.21893028 C1.19794562,1.97861292 0,3.03382459 0,4.36940652 C0,5.17410555 0.439853589,5.86956942 1.08798222,6.24897955 L4.20992318,16.2388993 C4.30459365,16.5425731 4.58642037,16.7493916 4.90465881,16.7493916 L19.8553114,16.7493916 C20.1735499,16.7493916 20.4553766,16.5425731 20.5507753,16.2381711 L23.6727163,6.24825132 C24.3201167,5.86956942 24.7599703,5.17410555 24.7599703,4.36940652 L24.7599703,4.36940652 Z" id="Shape"></path>
                    </g>
                </g>
            </g>
        </g>
    </g>
</svg>