<?xml version="1.0" encoding="UTF-8" standalone="no"?>
<svg width="26px" height="22px" viewBox="0 0 26 22" version="1.1" xmlns="http://www.w3.org/2000/svg" xmlns:xlink="http://www.w3.org/1999/xlink">
    <!-- Generator: Sketch 3.8.1 (29687) - http://www.bohemiancoding.com/sketch -->
    <title>icn/d/product/list_normal</title>
    <desc>Created with Sketch.</desc>
    <defs></defs>
    <g id="Symbols" stroke="none" stroke-width="1" fill="none" fill-rule="evenodd">
        <g id="MenuIcon/D/Products" transform="translate(-12.000000, -14.000000)">
            <g id="icn/d/product/list_normal">
                <rect id="Rectangle-195" x="0" y="0" width="50" height="50"></rect>
                <g id="1464365055_items" stroke-width="1" fill-rule="evenodd" transform="translate(12.000000, 14.000000)" fill="#FFFFFF">
                    <g id="Layer_1" transform="translate(0.500000, 0.030612)">
                        <path d="M9.23534981,1.58526161 L9.23534981,7.73415511 C9.23534981,8.57962796 8.54359929,9.27137848 7.69812643,9.27137848 L1.54923293,9.27137848 C0.703760076,9.27137848 0.0120095576,8.57962796 0.0120095576,7.73415511 L0.0120095576,1.58526161 C0.0120095576,0.739788749 0.703760076,0.0480382305 1.54923293,0.0480382305 L7.69812643,0.0480382305 C8.54359929,0.0480382305 9.23534981,0.739788749 9.23534981,1.58526161 L9.23534981,1.58526161 Z M12.3097966,3.89109667 L23.0703602,3.89109667 C23.915833,3.89109667 24.6075836,3.19934615 24.6075836,2.35387329 C24.6075836,1.50840044 23.915833,0.816649918 23.0703602,0.816649918 L12.3097966,0.816649918 C11.4643237,0.816649918 10.7725732,1.50840044 10.7725732,2.35387329 C10.7725732,3.19934615 11.4643237,3.89109667 12.3097966,3.89109667 L12.3097966,3.89109667 Z M23.0703602,5.42832004 L12.3097966,5.42832004 C11.4643237,5.42832004 10.7725732,6.12007056 10.7725732,6.96554342 C10.7725732,7.81101627 11.4643237,8.50276679 12.3097966,8.50276679 L23.0703602,8.50276679 C23.915833,8.50276679 24.6075836,7.81101627 24.6075836,6.96554342 C24.6075836,6.12007056 23.915833,5.42832004 23.0703602,5.42832004 L23.0703602,5.42832004 Z M7.69812643,12.3458252 L1.54923293,12.3458252 C0.703760076,12.3458252 0.0120095576,13.0375758 0.0120095576,13.8830486 L0.0120095576,20.0319421 C0.0120095576,20.877415 0.703760076,21.5691655 1.54923293,21.5691655 L7.69812643,21.5691655 C8.54359929,21.5691655 9.23534981,20.877415 9.23534981,20.0319421 L9.23534981,13.8830486 C9.23534981,13.0375758 8.54359929,12.3458252 7.69812643,12.3458252 L7.69812643,12.3458252 Z M23.0703602,13.1144369 L12.3097966,13.1144369 C11.4643237,13.1144369 10.7725732,13.8061874 10.7725732,14.6516603 C10.7725732,15.4971332 11.4643237,16.1888837 12.3097966,16.1888837 L23.0703602,16.1888837 C23.915833,16.1888837 24.6075836,15.4971332 24.6075836,14.6516603 C24.6075836,13.8061874 23.915833,13.1144369 23.0703602,13.1144369 L23.0703602,13.1144369 Z M23.0703602,17.726107 L12.3097966,17.726107 C11.4643237,17.726107 10.7725732,18.4178576 10.7725732,19.2633304 C10.7725732,20.1088033 11.4643237,20.8005538 12.3097966,20.8005538 L23.0703602,20.8005538 C23.915833,20.8005538 24.6075836,20.1088033 24.6075836,19.2633304 C24.6075836,18.4178576 23.915833,17.726107 23.0703602,17.726107 L23.0703602,17.726107 Z" id="Shape"></path>
                    </g>
                </g>
            </g>
        </g>
    </g>
</svg>