<?xml version="1.0" encoding="UTF-8" standalone="no"?>
<svg width="26px" height="25px" viewBox="0 0 26 25" version="1.1" xmlns="http://www.w3.org/2000/svg" xmlns:xlink="http://www.w3.org/1999/xlink">
    <!-- Generator: Sketch 3.8.1 (29687) - http://www.bohemiancoding.com/sketch -->
    <title>icn/d/product/manufacturer_normal</title>
    <desc>Created with Sketch.</desc>
    <defs></defs>
    <g id="Symbols" stroke="none" stroke-width="1" fill="none" fill-rule="evenodd">
        <g id="MenuIcon/D/Products" transform="translate(-552.000000, -12.000000)">
            <g id="icn/d/product/manufacturer_normal" transform="translate(540.000000, 0.000000)">
                <rect id="Rectangle-195" x="0" y="0" width="50" height="50"></rect>
                <g id="1464361038_133" stroke-width="1" fill-rule="evenodd" transform="translate(12.500000, 12.500000)" fill="#FFFFFF">
                    <g id="Layer_1" transform="translate(0.168894, 0.048256)">
                        <path d="M24.4206678,9.18098787 C24.4206678,8.62731245 23.9635462,8.17561075 23.4052889,8.17561075 C23.1263,8.17561075 22.8723994,8.28758628 22.6894054,8.47007734 L18.3287854,12.2220399 L18.3287854,9.18098787 C18.3287854,8.62731245 17.8716078,8.17561075 17.3132947,8.17561075 C17.0343058,8.17561075 16.780461,8.28758628 16.5974671,8.47007734 L12.2368471,12.2220399 L12.2368471,9.18098787 C12.2368471,8.62731245 11.7797254,8.17561075 11.2215799,8.17561075 C10.9424233,8.17561075 10.6885786,8.28758628 10.5056405,8.47007734 L6.0994257,12.257186 L5.12952984,1.16993198 C5.12952984,0.550713995 4.63184219,0.0530263374 4.0126242,0.0530263374 L2.18519916,0.0530263374 C1.56603705,0.0530263374 1.06829351,0.550713995 1.06829351,1.16993198 L0.0530263374,22.3901335 C0.0530263374,23.5120121 0.96179383,24.4206678 2.08356069,24.4206678 L22.3900776,24.4206678 C23.5119562,24.4206678 24.4206119,23.5120121 24.4206119,22.3901335 L24.4206119,9.18098787 L24.4206678,9.18098787 Z M9.69862327,15.7245161 L9.69862327,16.8715948 C9.69862327,17.3947061 9.2722334,17.8209842 8.74917804,17.8209842 L7.60193171,17.8209842 C7.0789881,17.8209842 6.65259824,17.3947061 6.65259824,16.8715948 L6.65259824,15.7245161 C6.65259824,15.2014608 7.07893222,14.7751268 7.60193171,14.7751268 L8.74917804,14.7751268 C9.2722334,14.7751268 9.69862327,15.2014608 9.69862327,15.7245161 L9.69862327,15.7245161 Z M15.7905057,15.7245161 L15.7905057,16.8715948 C15.7905057,17.3947061 15.3641717,17.8209842 14.8411163,17.8209842 L13.6939818,17.8209842 C13.1709823,17.8209842 12.7445924,17.3947061 12.7445924,16.8715948 L12.7445924,15.7245161 C12.7445924,15.2014608 13.1709823,14.7751268 13.6939818,14.7751268 L14.8411163,14.7751268 C15.3641717,14.7751268 15.7905057,15.2014608 15.7905057,15.7245161 L15.7905057,15.7245161 Z M21.8823881,15.7245161 L21.8823881,16.8715948 C21.8823881,17.3947061 21.4560541,17.8209842 20.9329988,17.8209842 L19.7859201,17.8209842 C19.2628088,17.8209842 18.8365307,17.3947061 18.8365307,16.8715948 L18.8365307,15.7245161 C18.8365307,15.2014608 19.2628088,14.7751268 19.7859201,14.7751268 L20.9329988,14.7751268 C21.4560541,14.7751268 21.8823881,15.2014608 21.8823881,15.7245161 L21.8823881,15.7245161 Z" id="Shape"></path>
                    </g>
                </g>
            </g>
        </g>
    </g>
</svg>