<?xml version="1.0" encoding="UTF-8" standalone="no"?>
<svg width="26px" height="26px" viewBox="0 0 26 26" version="1.1" xmlns="http://www.w3.org/2000/svg" xmlns:xlink="http://www.w3.org/1999/xlink">
    <!-- Generator: Sketch 3.8.1 (29687) - http://www.bohemiancoding.com/sketch -->
    <title>icn/d/product/productset_normal</title>
    <desc>Created with Sketch.</desc>
    <defs></defs>
    <g id="Symbols" stroke="none" stroke-width="1" fill="none" fill-rule="evenodd">
        <g id="MenuIcon/D/Products" transform="translate(-372.000000, -12.000000)">
            <g id="icn/d/product/productset_normal" transform="translate(360.000000, 0.000000)">
                <rect id="Rectangle-195" x="0" y="0" width="50" height="50"></rect>
                <g id="1464363316_92" stroke-width="1" fill-rule="evenodd" transform="translate(12.500000, 12.500000)" fill="#FFFFFF">
                    <g id="Layer_1">
                        <path d="M0.053372921,22.5364769 C0.053372921,23.6656882 0.968080179,24.5802829 2.09717898,24.5802829 L22.5364206,24.5802829 C23.6656319,24.5802829 24.5802267,23.6656882 24.5802267,22.5364769 L24.5802267,9.76201411 C24.5802267,8.63274659 23.6656319,7.71803933 22.5364206,7.71803933 L20.4923334,7.71803933 L20.4923334,5.41856067 C20.4923334,2.45498564 18.0906644,0.053372921 15.1271456,0.053372921 C13.9159909,0.053372921 12.8022459,0.451954471 11.9080667,1.1262305 C11.1823862,0.768873765 10.3699817,0.564268194 9.50645399,0.564268194 C6.54287897,0.564268194 4.14115376,2.96604964 4.14115376,5.92956843 L4.14615923,7.71798309 L2.09723522,7.71798309 C0.968080179,7.71798309 0.0534291622,8.63269035 0.0534291622,9.76195787 L0.0534291622,22.5364769 L0.053372921,22.5364769 Z M17.9374633,7.71803933 L12.3217209,7.71803933 L12.3168279,5.41856067 C12.3168279,3.86523432 13.5737068,2.60818674 15.1272019,2.60818674 C16.6806407,2.60818674 17.9375196,3.86523432 17.9375196,5.41856067 L17.9375196,7.71803933 L17.9374633,7.71803933 Z M9.7669071,7.71803933 L6.70102929,7.71803933 L6.69608006,5.92962467 C6.69608006,4.37624208 7.95301516,3.11925073 9.50645399,3.11925073 C9.75689616,3.11925073 10.0022204,3.15023965 10.2319095,3.21609812 C9.93051282,3.88570613 9.76195787,4.63168971 9.76195787,5.41861691 L9.7669071,7.71803933 L9.7669071,7.71803933 Z M9.76201411,11.039421 C9.76201411,10.3342123 10.3342123,9.76201411 11.039421,9.76201411 C11.744461,9.76201411 12.3168279,10.3342123 12.3168279,11.039421 C12.3168279,11.744461 11.744461,12.3168279 11.039421,12.3168279 C10.3342123,12.3168279 9.76201411,11.744461 9.76201411,11.039421 L9.76201411,11.039421 Z M17.9374633,11.039421 C17.9374633,10.3342123 18.509999,9.76201411 19.2150952,9.76201411 C19.9200789,9.76201411 20.4923896,10.3342123 20.4923896,11.039421 C20.4923896,11.744461 19.9200789,12.3168279 19.2150952,12.3168279 C18.509999,12.3168279 17.9374633,11.744461 17.9374633,11.039421 L17.9374633,11.039421 Z M4.65216152,11.2949249 L4.65216152,21.0034536 C4.65216152,21.5654159 4.19227703,22.0254691 3.63025849,22.0254691 C3.06807122,22.0254691 2.60818674,21.5654159 2.60818674,21.0034536 L2.60818674,11.2949249 C2.60818674,10.7330188 3.06807122,10.2729094 3.63025849,10.2729094 C4.19233328,10.2729094 4.65216152,10.7329626 4.65216152,11.2949249 L4.65216152,11.2949249 Z" id="Shape"></path>
                    </g>
                </g>
            </g>
        </g>
    </g>
</svg>