<?xml version="1.0" encoding="UTF-8" standalone="no"?>
<svg width="22px" height="20px" viewBox="0 0 22 20" version="1.1" xmlns="http://www.w3.org/2000/svg" xmlns:xlink="http://www.w3.org/1999/xlink">
    <!-- Generator: Sketch 3.8.1 (29687) - http://www.bohemiancoding.com/sketch -->
    <title>icn/d/product/vendor_normal</title>
    <desc>Created with Sketch.</desc>
    <defs></defs>
    <g id="Symbols" stroke="none" stroke-width="1" fill="none" fill-rule="evenodd">
        <g id="MenuIcon/D/Products" transform="translate(-644.000000, -15.000000)">
            <g id="icn/d/product/vendor_normal" transform="translate(630.000000, 0.000000)">
                <rect id="Rectangle-195" x="0" y="0" width="50" height="50"></rect>
                <g id="1464361140_Warehouse" stroke-width="1" fill-rule="evenodd" transform="translate(12.500000, 12.500000)">
                    <g id="Layer_1" transform="translate(0.000000, -0.000000)">
                        <g id="Group" transform="translate(0.000000, -0.000000)">
                            <rect id="Rectangle-path" x="0" y="-4.16333634e-15" width="25" height="25"></rect>
                            <path d="M22.7974121,8.10244141 L13.4674316,3.26538086 C13.1096191,3.0784668 12.6716797,3.0784668 12.3138672,3.26538086 L2.98383789,8.10244141 C2.5894043,8.30610352 2.34375,8.70283203 2.34375,9.13393555 L2.34375,9.765625 C2.34375,10.4125977 2.88925781,10.9375 3.56064453,10.9375 L3.90625,10.9375 L3.90625,20.3125 C3.90625,21.6072266 4.95527344,21.875 6.25,21.875 L7.8125,21.875 L7.8125,16.40625 C7.8125,15.5433594 8.51210937,14.84375 9.375,14.84375 L16.40625,14.84375 C17.2691406,14.84375 17.96875,15.5433594 17.96875,16.40625 L17.96875,21.875 L19.53125,21.875 C20.8259766,21.875 21.875,21.6072266 21.875,20.3125 L21.875,10.9375 L22.2206055,10.9375 C22.8919922,10.9375 23.4375,10.4125977 23.4375,9.765625 L23.4375,9.13388672 C23.4375,8.70283203 23.1918457,8.30610352 22.7974121,8.10244141 L22.7974121,8.10244141 Z M8.59375,21.875 L17.1875,21.875 L17.1875,20.3125 L8.59375,20.3125 L8.59375,21.875 L8.59375,21.875 Z M17.1875,16.40625 C17.1875,15.9751953 16.8373047,15.625 16.40625,15.625 L9.375,15.625 C8.94394531,15.625 8.59375,15.9751953 8.59375,16.40625 L8.59375,17.1875 L17.1875,17.1875 L17.1875,16.40625 L17.1875,16.40625 Z M8.59375,17.96875 L8.59375,19.53125 L17.1875,19.53125 L17.1875,17.96875 L8.59375,17.96875 L8.59375,17.96875 Z M10.15625,11.328125 C10.15625,11.544043 9.98154297,11.71875 9.765625,11.71875 L8.203125,11.71875 C7.98720703,11.71875 7.8125,11.544043 7.8125,11.328125 L7.8125,10.546875 C7.8125,10.330957 7.98720703,10.15625 8.203125,10.15625 L9.765625,10.15625 C9.98154297,10.15625 10.15625,10.330957 10.15625,10.546875 L10.15625,11.328125 L10.15625,11.328125 Z M14.0625,11.328125 C14.0625,11.544043 13.887793,11.71875 13.671875,11.71875 L12.109375,11.71875 C11.893457,11.71875 11.71875,11.544043 11.71875,11.328125 L11.71875,10.546875 C11.71875,10.330957 11.893457,10.15625 12.109375,10.15625 L13.671875,10.15625 C13.887793,10.15625 14.0625,10.330957 14.0625,10.546875 L14.0625,11.328125 L14.0625,11.328125 Z M17.96875,11.328125 C17.96875,11.544043 17.794043,11.71875 17.578125,11.71875 L16.015625,11.71875 C15.799707,11.71875 15.625,11.544043 15.625,11.328125 L15.625,10.546875 C15.625,10.330957 15.799707,10.15625 16.015625,10.15625 L17.578125,10.15625 C17.794043,10.15625 17.96875,10.330957 17.96875,10.546875 L17.96875,11.328125 L17.96875,11.328125 Z" id="Shape" fill="#FFFFFF"></path>
                        </g>
                    </g>
                </g>
            </g>
        </g>
    </g>
</svg>