<?xml version="1.0" encoding="UTF-8" standalone="no"?>
<svg width="24px" height="26px" viewBox="0 0 24 26" version="1.1" xmlns="http://www.w3.org/2000/svg" xmlns:xlink="http://www.w3.org/1999/xlink">
    <!-- Generator: Sketch 3.8.1 (29687) - http://www.bohemiancoding.com/sketch -->
    <title>icn/d/customer/addressbook_normal</title>
    <desc>Created with Sketch.</desc>
    <defs></defs>
    <g id="Symbols" stroke="none" stroke-width="1" fill="none" fill-rule="evenodd">
        <g id="MenuIcon/D/Customers" transform="translate(-193.000000, -12.000000)">
            <g id="icn/d/customer/addressbook_normal" transform="translate(180.000000, 0.000000)">
                <rect id="Rectangle-204" x="0" y="0" width="50" height="50"></rect>
                <g id="1464384717_1-09" stroke-width="1" fill-rule="evenodd" transform="translate(13.500000, 12.500000)" fill="#FFFFFF">
                    <g id="Layer_1" transform="translate(-0.000000, -0.000000)">
                        <path d="M21.744186,18.1976744 L19.7965116,18.1976744 L19.7965116,13.9534884 L21.744186,13.9534884 C22.2383721,13.9534884 22.6162791,14.3313953 22.6162791,14.8255814 L22.6162791,17.3255814 C22.6162791,17.8197674 22.2383721,18.1976744 21.744186,18.1976744 L21.744186,18.1976744 Z M22.6162791,6.01744186 L22.6162791,3.51744186 C22.6162791,3.02325581 22.2383721,2.64534884 21.744186,2.64534884 L19.7965116,2.64534884 L19.7965116,6.88953488 L21.744186,6.88953488 C22.2383721,6.88953488 22.6162791,6.51162791 22.6162791,6.01744186 L22.6162791,6.01744186 Z M22.6162791,11.6860465 L22.6162791,9.18604651 C22.6162791,8.69186047 22.2383721,8.31395349 21.744186,8.31395349 L19.7965116,8.31395349 L19.7965116,12.5581395 L21.744186,12.5581395 C22.2383721,12.5581395 22.6162791,12.1511628 22.6162791,11.6860465 L22.6162791,11.6860465 Z M0.0581395349,20.9883721 L0.0581395349,20.9883721 L0.0581395349,1.54069767 C0.0581395349,0.726744186 0.697674419,0.0872093023 1.51162791,0.0872093023 L17.1511628,0.0872093023 C17.9651163,0.0872093023 18.6046512,0.726744186 18.6046512,1.54069767 L18.6046512,20.9593023 C18.6046512,21.7732558 17.9651163,22.4127907 17.1511628,22.4127907 L1.51162791,22.4127907 L1.51162791,22.7034884 C1.51162791,23.1104651 1.83139535,23.4302326 2.23837209,23.4302326 L19.0697674,23.4302326 C19.4767442,23.4302326 19.7965116,23.1104651 19.7965116,22.7034884 L19.7965116,19.7093023 L21.25,19.7093023 L21.25,22.7325581 C21.25,23.9244186 20.2616279,24.9127907 19.0697674,24.9127907 L2.23837209,24.9127907 C1.04651163,24.9127907 0.0581395349,23.9244186 0.0581395349,22.7325581 L0.0581395349,20.9883721 L0.0581395349,20.9883721 Z M4.06976744,6.51162791 C4.06976744,7.18023256 4.59302326,7.70348837 5.26162791,7.70348837 L13.4302326,7.70348837 C14.0988372,7.70348837 14.622093,7.18023256 14.622093,6.51162791 C14.622093,5.84302326 14.0988372,5.31976744 13.4302326,5.31976744 L5.26162791,5.31976744 C4.59302326,5.31976744 4.06976744,5.84302326 4.06976744,6.51162791 L4.06976744,6.51162791 Z M4.06976744,10.872093 C4.06976744,11.5406977 4.59302326,12.0639535 5.26162791,12.0639535 L13.4302326,12.0639535 C14.0988372,12.0639535 14.622093,11.5406977 14.622093,10.872093 C14.622093,10.2034884 14.0988372,9.68023256 13.4302326,9.68023256 L5.26162791,9.68023256 C4.59302326,9.68023256 4.06976744,10.2034884 4.06976744,10.872093 L4.06976744,10.872093 Z" id="Shape"></path>
                    </g>
                </g>
            </g>
        </g>
    </g>
</svg>