<?xml version="1.0" encoding="UTF-8" standalone="no"?>
<svg width="26px" height="24px" viewBox="0 0 26 24" version="1.1" xmlns="http://www.w3.org/2000/svg" xmlns:xlink="http://www.w3.org/1999/xlink">
    <!-- Generator: Sketch 3.8.1 (29687) - http://www.bohemiancoding.com/sketch -->
    <title>icn/d/customer/group_normal</title>
    <desc>Created with Sketch.</desc>
    <defs></defs>
    <g id="Symbols" stroke="none" stroke-width="1" fill="none" fill-rule="evenodd">
        <g id="MenuIcon/D/Customers" transform="translate(-102.000000, -13.000000)">
            <g id="icn/d/customer/group_normal" transform="translate(90.000000, 0.000000)">
                <rect id="Rectangle-204" x="0" y="0" width="50" height="50"></rect>
                <g id="1464384876_icon_people-master" stroke-width="1" fill-rule="evenodd" transform="translate(12.500000, 13.281250)" fill="#FFFFFF">
                    <g id="Layer_1" transform="translate(-0.000000, 0.000000)">
                        <g id="Group">
                            <g transform="translate(4.296875, 0.000000)" id="Shape">
                                <path d="M16.0890625,20.2226562 C16.0890625,14.8988281 12.55625,10.5785156 8.20273438,10.5785156 C3.84960938,10.5785156 0.316796875,14.8992187 0.316796875,20.2226562 C0.316796875,22.0003906 1.49296875,23.4375 2.9453125,23.4375 L13.4597656,23.4375 C14.9132813,23.4375 16.0890625,22 16.0890625,20.2226562 L16.0890625,20.2226562 Z"></path>
                                <path d="M8.20273438,9.64414062 C10.8644531,9.64414062 13.0246094,7.484375 13.0246094,4.82148437 C13.0246094,2.15976562 10.8644531,-1.77635684e-15 8.20273438,-1.77635684e-15 C5.54179688,-1.77635684e-15 3.38164063,2.15976562 3.38164063,4.821875 C3.38164063,7.484375 5.54179688,9.64414062 8.20273438,9.64414062 L8.20273438,9.64414062 Z"></path>
                            </g>
                            <g transform="translate(0.000000, 12.109375)" id="Shape">
                                <path d="M3.6375,8.11328125 C3.6375,4.9359375 4.81289062,2.08671875 6.6640625,0.139453125 C3.00976562,0.33203125 0.08984375,4.009375 0.08984375,8.52617187 C0.08984375,10.0753906 1.11484375,11.328125 2.38085938,11.328125 L4.93359375,11.328125 C4.1421875,10.5585937 3.6375,9.40351562 3.6375,8.11328125 L3.6375,8.11328125 Z"></path>
                                <path d="M18.3355469,0.139453125 C20.1871094,2.08671875 21.3625,4.93554687 21.3625,8.11328125 C21.3625,9.40351562 20.8578125,10.5589844 20.0664062,11.328125 L22.6191406,11.328125 C23.8851562,11.328125 24.9101562,10.0753906 24.9101562,8.52617187 C24.9105469,4.00976562 21.9910156,0.332421875 18.3355469,0.139453125 L18.3355469,0.139453125 Z"></path>
                            </g>
                            <path d="M6.96210938,11.4164063 C7.19296875,11.4164063 7.41757813,11.3929688 7.63828125,11.3570313 C8.35625,10.7898438 9.14335938,10.3382813 9.9859375,10.0390625 C8.04609375,9.10039063 6.70195313,7.11757813 6.70195313,4.82148438 C6.70195313,4.18945313 6.80703125,3.58242188 6.99453125,3.01289063 C6.98398438,3.01289063 6.97304688,3.01132813 6.96210938,3.01132813 C4.64257813,3.01132813 2.76054688,4.89375 2.76054688,7.21367188 C2.76054688,9.53398438 4.64296875,11.4164063 6.96210938,11.4164063 L6.96210938,11.4164063 Z" id="Shape"></path>
                            <path d="M18.2980469,4.821875 C18.2980469,7.11796875 16.9535156,9.10078125 15.0136719,10.0394531 C15.85625,10.3386719 16.6433594,10.7902344 17.3617187,11.3574219 C17.5820312,11.3933594 17.8066406,11.4167969 18.0371094,11.4167969 C20.3570312,11.4167969 22.2394531,9.534375 22.2394531,7.21367188 C22.2394531,4.89375 20.3574219,3.01132813 18.0371094,3.01132813 C18.0265625,3.01132813 18.015625,3.01289063 18.0050781,3.01289063 C18.1929687,3.5828125 18.2980469,4.18984375 18.2980469,4.821875 L18.2980469,4.821875 Z" id="Shape"></path>
                        </g>
                    </g>
                </g>
            </g>
        </g>
    </g>
</svg>