<?xml version="1.0" encoding="UTF-8" standalone="no"?>
<svg width="16px" height="26px" viewBox="0 0 16 26" version="1.1" xmlns="http://www.w3.org/2000/svg" xmlns:xlink="http://www.w3.org/1999/xlink">
    <!-- Generator: Sketch 3.8.1 (29687) - http://www.bohemiancoding.com/sketch -->
    <title>icn/d/customer/reward_normal</title>
    <desc>Created with Sketch.</desc>
    <defs></defs>
    <g id="Symbols" stroke="none" stroke-width="1" fill="none" fill-rule="evenodd">
        <g id="MenuIcon/D/Customers" transform="translate(-287.000000, -12.000000)" fill="#FFFFFF">
            <g id="icn/d/customer/reward_normal" transform="translate(270.000000, 0.000000)">
                <g id="1464448428_210" transform="translate(17.187500, 12.500000)">
                    <g id="Layer_1" transform="translate(0.000000, 0.000000)">
                        <g id="Group">
                            <path d="M8.99648486,12.5532347 L8.99648486,10.9840804 L10.147198,10.9840804 C10.5133341,10.9840804 10.8271649,10.8271649 11.0363855,10.5133341 C11.2456061,10.1995032 11.2456061,9.83336717 11.0886906,9.5195363 L6.90427908,0.836882312 C6.74736364,0.470746301 6.38122763,0.261525723 5.96278648,0.261525723 L1.30762861,0.261525723 C0.941492602,0.261525723 0.627661734,0.418441156 0.418441156,0.732272023 C0.209220578,1.04610289 0.209220578,1.4122389 0.313830867,1.72606977 L4.49824243,10.4087238 C4.65515786,10.7748598 5.02129387,10.9840804 5.43973503,10.9840804 L6.95658422,10.9840804 L6.95658422,12.5532347 C4.02749613,13.023981 1.77837491,15.5869331 1.77837491,18.6206315 C1.77837491,22.0204658 4.55054757,24.7926385 7.95038197,24.7926385 C11.3502164,24.7926385 14.122389,22.0204658 14.122389,18.6206315 C14.1746942,15.5869331 11.925573,13.0762861 8.99648486,12.5532347 L8.99648486,12.5532347 Z" id="Shape"></path>
                            <path d="M15.2731022,0.732272023 C15.0638816,0.418441156 14.7500508,0.261525723 14.3839147,0.261525723 L9.72875688,0.261525723 C9.46723116,0.261525723 9.20570544,0.366136012 8.99648486,0.57535659 L12.4486244,7.74116139 L15.3254073,1.72606977 C15.4823228,1.4122389 15.4823228,1.04610289 15.2731022,0.732272023 L15.2731022,0.732272023 Z" id="Shape"></path>
                        </g>
                    </g>
                </g>
            </g>
        </g>
    </g>
</svg>