<?xml version="1.0" encoding="UTF-8"?>
<svg width="40px" height="40px" viewBox="0 0 40 40" version="1.1" xmlns="http://www.w3.org/2000/svg" xmlns:xlink="http://www.w3.org/1999/xlink">
    <!-- Generator: Sketch 48.2 (47327) - http://www.bohemiancoding.com/sketch -->
    <title>icnt_outline_basket02_dark</title>
    <desc>Created with Sketch.</desc>
    <defs></defs>
    <g id="Symbols" stroke="none" stroke-width="1" fill="none" fill-rule="evenodd">
        <g id="icnt_outline_basket02_dark" fill="#FFFFFF">
            <g transform="translate(1.000000, 10.000000)" id="Fill-29">
                <path d="M31.4769057,14.2313585 L24.0833962,14.2313585 L24.0833962,9.63909434 L32.3738491,9.63909434 L31.4769057,14.2313585 L31.4769057,14.2313585 Z M29.2263019,25.8543396 C29.2263019,26.1956226 28.9488302,26.4738113 28.6068302,26.4738113 L24.0833962,26.4738113 L24.0833962,21.9152453 L29.9762642,21.9152453 L29.2456604,25.6564528 C29.2327547,25.7216981 29.2263019,25.7876604 29.2263019,25.8543396 L29.2263019,25.8543396 Z M8.27826415,25.8543396 C8.27826415,25.7869434 8.2725283,25.7188302 8.25890566,25.6528679 L7.51611321,21.9152453 L13.4046792,21.9152453 L13.4046792,26.4738113 L8.89845283,26.4738113 C8.55645283,26.4738113 8.27826415,26.1956226 8.27826415,25.8543396 L8.27826415,25.8543396 Z M13.4046792,9.63909434 L13.4046792,14.2313585 L5.98966038,14.2313585 L5.07766038,9.63909434 L13.4046792,9.63909434 L13.4046792,9.63909434 Z M14.8916981,14.2313585 L22.5963774,14.2313585 L22.5963774,9.63909434 L14.8916981,9.63909434 L14.8916981,14.2313585 Z M6.2850566,15.7183774 L13.4046792,15.7183774 L13.4046792,20.4282264 L7.22071698,20.4282264 L6.2850566,15.7183774 L6.2850566,15.7183774 Z M14.8916981,26.4738113 L22.5963774,26.4738113 L22.5963774,21.9152453 L14.8916981,21.9152453 L14.8916981,26.4738113 Z M14.8916981,20.4282264 L22.5963774,20.4282264 L22.5963774,15.7183774 L14.8916981,15.7183774 L14.8916981,20.4282264 Z M30.2666415,20.4282264 L24.0833962,20.4282264 L24.0833962,15.7183774 L31.1865283,15.7183774 L30.2666415,20.4282264 L30.2666415,20.4282264 Z M35.9738113,6.33381132 L25.1531321,6.33381132 L26.943434,2.06562264 L34.1053585,2.06562264 C34.6760755,2.06562264 35.1378113,1.60316981 35.1378113,1.03316981 C35.1378113,0.46245283 34.6760755,0 34.1053585,0 L26.256566,0 C25.840717,0 25.4650189,0.249509434 25.3036981,0.63309434 L22.912566,6.33381132 L13.7488302,6.33381132 L11.3576981,0.63309434 C11.1970943,0.249509434 10.8213962,0 10.4055472,0 L2.55675472,0 C1.98603774,0 1.52358491,0.46245283 1.52358491,1.03316981 C1.52358491,1.60316981 1.98603774,2.06562264 2.55675472,2.06562264 L9.71867925,2.06562264 L11.5089811,6.33381132 L1.65192453,6.33381132 C0.739924528,6.33381132 0,7.07373585 0,7.98645283 C0,8.89916981 0.739924528,9.63909434 1.65192453,9.63909434 L2.99196226,9.63909434 C2.99196226,9.70649057 2.99841509,9.77388679 3.01132075,9.84056604 L6.21550943,25.9676226 C6.27501887,27.3958491 7.45588679,28.539434 8.89845283,28.539434 L28.6068302,28.539434 C30.0501132,28.539434 31.2309811,27.3951321 31.2897736,25.9661887 L34.4401887,9.83698113 C34.4523774,9.77173585 34.4588302,9.70577358 34.4588302,9.63909434 L35.9738113,9.63909434 C36.8858113,9.63909434 37.6257358,8.89916981 37.6257358,7.98645283 C37.6257358,7.07373585 36.8858113,6.33381132 35.9738113,6.33381132 L35.9738113,6.33381132 Z"></path>
            </g>
        </g>
    </g>
</svg>