<?xml version="1.0" encoding="UTF-8"?>
<svg width="40px" height="40px" viewBox="0 0 40 40" version="1.1" xmlns="http://www.w3.org/2000/svg" xmlns:xlink="http://www.w3.org/1999/xlink">
    <!-- Generator: Sketch 48.2 (47327) - http://www.bohemiancoding.com/sketch -->
    <title>icnt_fill_user03_light</title>
    <desc>Created with Sketch.</desc>
    <defs></defs>
    <g id="Symbols" stroke="none" stroke-width="1" fill="none" fill-rule="evenodd">
        <g id="icnt_fill_user03_light" fill="#010101">
            <g id="1485288330_gender-male" transform="translate(2.000000, 1.000000)">
                <g id="Layer_1">
                    <path d="M34.6387869,32.1770937 C33.1439016,29.8522656 29.1121967,28.3664062 26.7810492,27.5215 C24.4487213,26.6774844 23.6753115,26.1739844 23.0609508,25.3620312 C22.446,24.5497812 22.7047869,21.0882187 22.7047869,21.0882187 C22.7047869,21.0882187 23.9951803,19.3007344 24.4147869,18.1752812 C24.8349836,17.0489375 24.9173115,14.8865 24.9173115,14.8865 C24.9173115,14.8865 26.0156066,14.15025 26.2959344,13.2593281 C26.5730164,12.3678125 26.8070164,10.8519687 26.6217049,10.191125 C26.4360984,9.5285 25.588623,9.72473437 25.588623,9.72473437 C25.588623,9.72473437 25.5898033,8.52476562 25.6237377,7.57298437 C25.6668197,6.30117187 25.3032787,0 18,0 C10.6967213,0 10.3325902,6.30117187 10.3771475,7.5715 C10.411082,8.52328125 10.4116721,9.72325 10.4116721,9.72325 C10.4116721,9.72325 9.56390164,9.52701562 9.37859016,10.1896406 C9.19209836,10.8504844 9.42609836,12.3663281 9.70377049,13.2578437 C9.98498361,14.1487656 11.0820984,14.8850156 11.0820984,14.8850156 C11.0820984,14.8850156 11.1661967,17.0474531 11.5855082,18.1737969 C12.0051148,19.29925 13.2955082,21.0867344 13.2955082,21.0867344 C13.2955082,21.0867344 13.5542951,24.5494844 12.9393443,25.3617344 C12.3249836,26.1725 11.5515738,26.6774844 9.21895082,27.5203125 C6.88780328,28.3652187 2.85639344,29.8519687 1.3615082,32.1759062 C-0.133377049,34.5010312 0.154622951,37.3415312 0.400131148,37.6823437 C0.648590164,38.0228594 1.80531148,37.9985156 2.62947541,37.9979219 C5.34216393,37.9946562 11.5645574,38.0005937 18,37.9979219 L18,37.9982187 C24.4354426,38.0008906 30.6578361,37.99525 33.3705246,37.9982187 C34.1946885,37.9988125 35.3514098,38.0231562 35.6001639,37.6823437 C35.8456721,37.3427187 36.1339672,34.5022187 34.6387869,32.1770937 Z" id="Shape"></path>
                </g>
            </g>
        </g>
    </g>
</svg>