<?xml version="1.0" encoding="UTF-8"?>
<svg width="40px" height="40px" viewBox="0 0 40 40" version="1.1" xmlns="http://www.w3.org/2000/svg" xmlns:xlink="http://www.w3.org/1999/xlink">
    <!-- Generator: Sketch 48.2 (47327) - http://www.bohemiancoding.com/sketch -->
    <title>icnt_fill_home05_light</title>
    <desc>Created with Sketch.</desc>
    <defs></defs>
    <g id="Symbols" stroke="none" stroke-width="1" fill="none" fill-rule="evenodd">
        <g id="icnt_fill_home05_light" fill="#000000" fill-rule="nonzero">
            <g id="1497814852_home" transform="translate(2.000000, 3.000000)">
                <path d="M18.5,0 C18.5,0 7.0559,10.0866667 0.66045,15.5493333 C0.2849,15.8968889 0,16.4031111 0,17 C0,18.0445556 0.82695,18.8888889 1.85,18.8888889 L5.55,18.8888889 L5.55,32.1111111 C5.55,33.1556667 6.37695,34 7.4,34 L12.95,34 C13.97305,34 14.8,33.1537778 14.8,32.1111111 L14.8,24.5555556 L22.2,24.5555556 L22.2,32.1111111 C22.2,33.1537778 23.02695,34 24.05,34 L29.6,34 C30.62305,34 31.45,33.1556667 31.45,32.1111111 L31.45,18.8888889 L35.15,18.8888889 C36.17305,18.8888889 37,18.0445556 37,17 C37,16.4031111 36.7151,15.8968889 36.29145,15.5493333 C29.9404,10.0866667 18.5,0 18.5,0 Z" id="Shape"></path>
            </g>
        </g>
    </g>
</svg>