<?xml version="1.0" encoding="UTF-8"?>
<svg width="60px" height="60px" viewBox="0 0 60 60" version="1.1" xmlns="http://www.w3.org/2000/svg" xmlns:xlink="http://www.w3.org/1999/xlink">
    <!-- Generator: Sketch 48.2 (47327) - http://www.bohemiancoding.com/sketch -->
    <title>icnt_outline_actualsizebig01_dark</title>
    <desc>Created with Sketch.</desc>
    <defs></defs>
    <g id="Symbols" stroke="none" stroke-width="1" fill="none" fill-rule="evenodd">
        <g id="icnt_outline_actualsizebig01_dark">
            <g id="icnt_outline_topbig01_dark">
                <g>
                    <circle id="Oval" fill-opacity="0.8" fill="#000000" opacity="0.800000012" cx="30" cy="30" r="30"></circle>
                    <path d="M44.123125,16.2625 C43.963875,16.105 43.743375,16 43.49925,16 L35.64875,16 C35.164875,16 34.77375,16.39375 34.77375,16.875 C34.77375,17.35625 35.164875,17.75 35.64875,17.75 L41.449125,17.75 L32,27.2 L33.23725,28.43375 L42.675875,18.9925 L42.64875,24.75 C42.64875,25.23125 43.039875,25.625 43.52375,25.625 C44.007625,25.625 44.39875,25.23125 44.39875,24.75 L44.39875,16.875 C44.39875,16.6125 44.292,16.4025 44.123125,16.2625 L44.123125,16.2625 Z M16.275625,16.2625 C16.434875,16.105 16.655375,16 16.8995,16 L24.75,16 C25.233875,16 25.625,16.39375 25.625,16.875 C25.625,17.35625 25.233875,17.75 24.75,17.75 L18.949625,17.75 L28.39875,27.2 L27.1615,28.43375 L17.722875,18.9925 L17.75,24.75 C17.75,25.23125 17.358875,25.625 16.875,25.625 C16.391125,25.625 16,25.23125 16,24.75 L16,16.875 C16,16.6125 16.10675,16.4025 16.275625,16.2625 L16.275625,16.2625 Z M27.1615,32 L17.722875,41.44125 L17.75,35.68375 C17.75,35.2025 17.358875,34.80875 16.875,34.80875 C16.391125,34.80875 16,35.2025 16,35.68375 L16,43.55875 C16,43.82125 16.10675,44.03125 16.275625,44.17125 C16.434875,44.32875 16.655375,44.43375 16.8995,44.43375 L24.75,44.43375 C25.233875,44.43375 25.625,44.04 25.625,43.55875 C25.625,43.0775 25.233875,42.68375 24.75,42.68375 L18.949625,42.68375 L28.39875,33.23375 L27.1615,32 L27.1615,32 Z M33.23725,32 L42.675875,41.44125 L42.64875,35.68375 C42.64875,35.2025 43.039875,34.80875 43.52375,34.80875 C44.007625,34.80875 44.39875,35.2025 44.39875,35.68375 L44.39875,43.55875 C44.39875,43.82125 44.292,44.03125 44.123125,44.17125 C43.963875,44.32875 43.743375,44.43375 43.49925,44.43375 L35.64875,44.43375 C35.164875,44.43375 34.77375,44.04 34.77375,43.55875 C34.77375,43.0775 35.164875,42.68375 35.64875,42.68375 L41.449125,42.68375 L32,33.23375 L33.23725,32 L33.23725,32 Z" id="Fill-8" fill="#FFFFFF"></path>
                </g>
            </g>
        </g>
    </g>
</svg>