<?xml version="1.0" encoding="UTF-8"?>
<svg width="40px" height="40px" viewBox="0 0 40 40" version="1.1" xmlns="http://www.w3.org/2000/svg" xmlns:xlink="http://www.w3.org/1999/xlink">
    <!-- Generator: Sketch 48.2 (47327) - http://www.bohemiancoding.com/sketch -->
    <title>icnt_outline_user02_light</title>
    <desc>Created with Sketch.</desc>
    <defs></defs>
    <g id="Symbols" stroke="none" stroke-width="1" fill="none" fill-rule="evenodd">
        <g id="icnt_outline_user02_light" stroke="#000000">
            <g id="Avatar-:-Female" transform="translate(1.000000, 1.000000)">
                <circle id="Oval-20" stroke-width="2" stroke-linecap="square" cx="19" cy="19" r="18.24"></circle>
                <path d="M15.7726749,23.3766445 L15.7726749,23.3766445 C15.890562,23.8405351 15.96,24.3908296 15.96,25.08 C15.96,29.64 6.84,29.64 6.84,32.68 M31.16,32.68 C31.16,29.64 22.04,29.64 22.04,25.08 C22.04,24.390441 22.1095163,23.8399147 22.2275246,23.37586 C24.9716116,23.0616069 26.6887378,22.4553467 26.6887378,22.4553467 C27.4792021,22.225957 27.5624171,21.6369067 26.9880162,21.0423884 C26.9880162,21.0423884 25.08,20.52 25.08,14.4400001 C25.08,14.44 25.08,9.88 23.56,8.36 C22.0600216,7.23501617 20.5400216,6.85521397 19,6.84 C17.4599784,6.82478603 15.9800216,7.20498383 14.44,8.36 C12.92,9.88 12.92,14.44 12.92,14.44 C12.92,20.52 11.0119838,21.0423884 11.0119838,21.0423884 C10.3868064,21.5933541 10.5291713,22.2387135 11.3418228,22.4634047 C11.3418228,22.4634047 13.0401483,23.0645245 15.7726749,23.3766445" id="Combined-Shape" stroke-width="1.8" stroke-linecap="round" stroke-linejoin="round"></path>
            </g>
        </g>
    </g>
</svg>