<?xml version="1.0" encoding="UTF-8"?>
<svg width="40px" height="40px" viewBox="0 0 40 40" version="1.1" xmlns="http://www.w3.org/2000/svg" xmlns:xlink="http://www.w3.org/1999/xlink">
    <!-- Generator: Sketch 48.2 (47327) - http://www.bohemiancoding.com/sketch -->
    <title>icnt_outline_basket01_dark</title>
    <desc>Created with Sketch.</desc>
    <defs></defs>
    <g id="Symbols" stroke="none" stroke-width="1" fill="none" fill-rule="evenodd">
        <g id="icnt_outline_basket01_dark" fill="#FFFFFF">
            <g transform="translate(2.000000, 1.000000)" id="icnt_outline_basket01">
                <g>
                    <path d="M3.23594255,16.7162 C2.62224255,16.7162 2.12221915,17.21096 2.12221915,17.8182 C2.12221915,18.297 2.47169787,18.72032 2.97325745,18.84648 C3.36421277,18.94452 3.66376596,19.25612 3.74671915,19.64752 L6.75300426,33.72272 C6.77681489,34.66284 7.37208085,35.25108 8.10406596,35.25108 L28.3146894,35.25108 C29.0466745,35.25108 29.6419404,34.66284 29.6419404,33.93856 L32.6996872,19.51604 C32.7657426,19.19912 32.976966,18.93084 33.2688383,18.78872 C33.6613298,18.60024 33.9055809,18.22556 33.9055809,17.8182 C33.9055809,17.21096 33.4055574,16.7162 32.7918574,16.7162 L3.23594255,16.7162 L3.23594255,16.7162 Z M28.3146894,37.3502 L8.10406596,37.3502 C6.20228723,37.3502 4.65459574,35.81956 4.65459574,33.93856 L1.79194255,20.64008 C0.710478723,20.1096 0,19.0266 0,17.8182 C0,16.05196 1.45244894,14.61632 3.23594255,14.61632 L32.7918574,14.61632 C34.5753511,14.61632 36.0278,16.05196 36.0278,17.8182 C36.0278,18.8518 35.5231681,19.798 34.6805787,20.39384 L31.7403489,34.1544 C31.7641596,35.81956 30.2164681,37.3502 28.3146894,37.3502 L28.3146894,37.3502 Z" id="Fill-5"></path>
                    <path d="M10.8292319,31.1942 C10.8292319,31.6008 10.4928106,31.93292 10.0826532,31.93292 L9.87680638,31.93292 C9.46588085,31.93292 9.13022766,31.6008 9.13022766,31.1942 L9.13022766,22.54768 C9.13022766,22.14108 9.46588085,21.8082 9.87680638,21.8082 L10.0826532,21.8082 C10.4928106,21.8082 10.8292319,22.14108 10.8292319,22.54768 L10.8292319,31.1942" id="Fill-6"></path>
                    <path d="M16.2956936,31.1942 C16.2956936,31.6008 15.9600404,31.93292 15.5491149,31.93292 L15.3432681,31.93292 C14.9323426,31.93292 14.5966894,31.6008 14.5966894,31.1942 L14.5966894,22.54768 C14.5966894,22.14108 14.9323426,21.8082 15.3432681,21.8082 L15.5491149,21.8082 C15.9600404,21.8082 16.2956936,22.14108 16.2956936,22.54768 L16.2956936,31.1942" id="Fill-7"></path>
                    <path d="M21.7621553,31.1942 C21.7621553,31.6008 21.4265021,31.93292 21.0155766,31.93292 L20.8097298,31.93292 C20.3988043,31.93292 20.0631511,31.6008 20.0631511,31.1942 L20.0631511,22.54768 C20.0631511,22.14108 20.3988043,21.8082 20.8097298,21.8082 L21.0155766,21.8082 C21.4265021,21.8082 21.7621553,22.14108 21.7621553,22.54768 L21.7621553,31.1942" id="Fill-8"></path>
                    <path d="M27.228617,31.1942 C27.228617,31.6008 26.8929638,31.93292 26.4820383,31.93292 L26.2761915,31.93292 C25.865266,31.93292 25.5296128,31.6008 25.5296128,31.1942 L25.5296128,22.54768 C25.5296128,22.14108 25.865266,21.8082 26.2761915,21.8082 L26.4820383,21.8082 C26.8929638,21.8082 27.228617,22.14108 27.228617,22.54768 L27.228617,31.1942" id="Fill-9"></path>
                    <path d="M7.96504255,10.86344 C8.67321702,5.98196 12.905366,2.22604 18.0354064,2.22604 C23.1646787,2.22604 27.3968277,5.98196 28.1057702,10.86344 C28.2094617,12.53088 30.3793021,12.26412 30.3793021,10.86344 C29.656534,4.74772 24.4097447,0 18.0354064,0 C11.6603,0 6.41427872,4.74772 5.69151064,10.86344 C5.69151064,12.597 7.99269362,12.66388 7.96504255,10.86344" id="Fill-10"></path>
                </g>
            </g>
        </g>
    </g>
</svg>