<?xml version="1.0" encoding="UTF-8"?>
<svg width="40px" height="40px" viewBox="0 0 40 40" version="1.1" xmlns="http://www.w3.org/2000/svg" xmlns:xlink="http://www.w3.org/1999/xlink">
    <!-- Generator: Sketch 48.2 (47327) - http://www.bohemiancoding.com/sketch -->
    <title>icnt_fill_home04_dark</title>
    <desc>Created with Sketch.</desc>
    <defs></defs>
    <g id="Symbols" stroke="none" stroke-width="1" fill="none" fill-rule="evenodd">
        <g id="icnt_fill_home04_dark" fill="#FFFFFF">
            <g id="1485350862_Cabins_2" transform="translate(1.000000, 2.000000)">
                <g id="Layer_1">
                    <g id="Group">
                        <path d="M19.7047273,6.16165625 C18.9637273,5.4181875 18.3062121,5.95121875 18.1357879,6.11598437 L6.90275758,17.3963594 L6.90160606,17.3963594 C5.42536364,18.87925 6.90160606,18.9688594 6.90160606,18.9688594 L7.04266667,18.9688594 C7.26490909,18.976375 8.14121212,19.0908437 8.14121212,20.4453906 L8.14121212,34.0902969 C8.16942424,34.8181562 8.44348485,36.7566094 10.561697,36.7566094 L26.8377879,36.7566094 C29.2340909,36.7566094 29.3400303,34.2382969 29.3440606,33.8555781 L29.3440606,20.5910781 C29.3440606,18.8937031 30.7281818,18.9682812 30.7281818,18.9682812 L31.0229697,18.9682812 C31.236,18.9665469 32.3731212,18.8937031 30.9901515,17.5021562 L19.7047273,6.16165625 Z" id="Shape"></path>
                        <path d="M36.6924545,16.99225 L21.3162727,1.34240625 C21.3070606,1.33315625 21.3018788,1.32910937 21.2926667,1.31985937 C19.3477576,-0.6590625 17.5882424,0.596625 17.0107576,1.12098437 L1.21715152,16.7673594 C1.21715152,16.7673594 0.0023030303,17.9045312 0.888393939,18.8058281 L0.996636364,18.9156719 C0.996636364,18.9156719 1.72209091,19.7603125 2.99739394,18.4965312 L17.6521515,3.9798125 L17.6521515,3.9798125 L17.7321818,3.90003125 C18.0390606,3.612125 19.2072727,2.69059375 20.4733636,3.97807812 L34.9548182,18.7167969 C34.9548182,18.7167969 36.1224545,19.929125 36.9331212,19.1261094 L37.2555455,18.8081406 L37.2555455,18.8058281 C37.8762121,18.1427187 36.6924545,16.99225 36.6924545,16.99225 Z" id="Shape"></path>
                    </g>
                </g>
            </g>
        </g>
    </g>
</svg>