<?xml version="1.0" encoding="UTF-8"?>
<svg width="60px" height="60px" viewBox="0 0 60 60" version="1.1" xmlns="http://www.w3.org/2000/svg" xmlns:xlink="http://www.w3.org/1999/xlink">
    <!-- Generator: Sketch 51.2 (57519) - http://www.bohemiancoding.com/sketch -->
    <title>icnt_fill_wechat01_ccolor1</title>
    <desc>Created with Sketch.</desc>
    <defs></defs>
    <g id="icon-share" stroke="none" stroke-width="1" fill="none" fill-rule="evenodd">
        <g id="icon-share-dark" transform="translate(-536.000000, -46.000000)">
            <g id="icnt_fill_wechat01_ccolor1" transform="translate(536.000000, 46.000000)">
                <g id="icnt_fill_wechat01_grey2">
                    <g>
                        <circle id="Oval-1-Copy-59" fill="#00A44B" cx="30" cy="30" r="30"></circle>
                        <g id="Group-79" transform="translate(12.857143, 15.428571)" fill="#FFFFFF">
                            <path d="M24.1331416,9.93982301 C20.9190265,10.1077434 18.124115,11.0820796 15.855,13.2833628 C13.5623894,15.5073451 12.5158407,18.2325664 12.8019027,21.610885 C11.5456195,21.4553097 10.4013717,21.2840708 9.25061947,21.1871681 C8.85318584,21.1537168 8.38154867,21.2012389 8.0449115,21.3911947 C6.92747788,22.0217257 5.85623894,22.7336283 4.58654867,23.5273009 C4.81951327,22.4735841 4.97030973,21.550885 5.23725664,20.6633628 C5.43358407,20.0110619 5.34265487,19.6480088 4.74172566,19.2232301 C0.88340708,16.4992035 -0.742964602,12.4225221 0.474159292,8.22544248 C1.60022124,4.34269912 4.36553097,1.9879646 8.1229646,0.760486726 C13.2515044,-0.914734513 19.0150885,0.794070796 22.1336283,4.86584071 C23.2599558,6.33663717 23.9506195,7.98743363 24.1331416,9.93982301 L24.1331416,9.93982301 Z M9.34061947,8.6320354 C9.37022124,7.86438053 8.70504425,7.17278761 7.91495575,7.14969027 C7.1060177,7.1259292 6.44070796,7.74411504 6.41707965,8.54123894 C6.39318584,9.34911504 7.01110619,9.99650442 7.82588496,10.0172124 C8.63362832,10.0376549 9.31075221,9.41867257 9.34061947,8.6320354 L9.34061947,8.6320354 Z M17.0584513,7.14915929 C16.2654425,7.16376106 15.595354,7.83915929 15.6094248,8.60986726 C15.6238938,9.40871681 16.2812389,10.0336726 17.0966814,10.0238496 C17.9142478,10.0140265 18.534292,9.38243363 18.5265929,8.56672566 C18.519823,7.7660177 17.8653982,7.13442478 17.0584513,7.14915929 L17.0584513,7.14915929 Z" id="Shape"></path>
                            <path d="M31.354115,29.9774336 C30.3363717,29.5242478 29.4027876,28.8443363 28.4088053,28.740531 C27.4186726,28.6371239 26.3778319,29.2083186 25.3419027,29.3142478 C22.1864602,29.6370796 19.3595575,28.7576549 17.0285841,26.6020354 C12.595354,22.5015929 13.2288053,16.2143363 18.3578761,12.8540708 C22.9164159,9.86761062 29.6017699,10.8631858 32.8157522,15.0070354 C35.6204867,18.6229646 35.290885,23.4229646 31.8669027,26.4606637 C30.8761062,27.339823 30.5195575,28.0632743 31.1552655,29.2222566 C31.2726106,29.4362389 31.2860177,29.7071681 31.354115,29.9774336 L31.354115,29.9774336 Z M19.7690708,18.7607522 C20.4169912,18.7614159 20.9504867,18.2543363 20.9750442,17.6143805 C21.0009292,16.9368584 20.4560177,16.3685841 19.7775664,16.3657965 C19.105885,16.3627434 18.5431858,16.9389823 18.5665487,17.6064159 C18.5885841,18.244115 19.1257965,18.7599558 19.7690708,18.7607522 L19.7690708,18.7607522 Z M27.2373451,16.3684513 C26.6086726,16.3640708 26.0745133,16.8787168 26.0488938,17.5138938 C26.0216814,18.1931416 26.5496018,18.7509292 27.2218142,18.7526549 C27.8719912,18.7547788 28.385708,18.2630973 28.4093363,17.6161062 C28.4345575,16.9352655 27.9063717,16.3730973 27.2373451,16.3684513 L27.2373451,16.3684513 Z" id="Shape"></path>
                        </g>
                    </g>
                </g>
            </g>
        </g>
    </g>
</svg>