<?xml version="1.0" encoding="UTF-8"?>
<svg width="40px" height="40px" viewBox="0 0 40 40" version="1.1" xmlns="http://www.w3.org/2000/svg" xmlns:xlink="http://www.w3.org/1999/xlink">
    <!-- Generator: Sketch 48.2 (47327) - http://www.bohemiancoding.com/sketch -->
    <title>icnt_outline_user01_dark</title>
    <desc>Created with Sketch.</desc>
    <defs></defs>
    <g id="Symbols" stroke="none" stroke-width="1" fill="none" fill-rule="evenodd">
        <g id="icnt_outline_user01_dark" fill="#FFFFFF">
            <g id="icnt_outline_user03_dark" transform="translate(3.000000, 3.000000)">
                <path d="M17,16.9999804 C13.231944,16.9999804 10.1676229,13.9501769 10.1676229,10.1999726 C10.1676229,6.44976825 13.231944,3.39996474 17,3.39996474 C20.768056,3.39996474 23.8323771,6.44976825 23.8323771,10.1999726 C23.8323771,13.9501769 20.768056,16.9999804 17,16.9999804 M23.4190183,18.1440817 C26.1297639,15.9731792 27.7097511,12.4626752 27.1289991,8.61897075 C26.4543018,4.15986562 22.7272401,0.591561505 18.2281198,0.0713609051 C12.0191971,-0.647739923 6.75143434,4.16326562 6.75143434,10.1999726 C6.75143434,13.4129763 8.24772493,16.2757796 10.5809817,18.1440817 C4.84861732,20.2877842 0.663786345,25.32149 0.0078781435,32.1146978 C-0.0877751359,33.119399 0.699656325,34 1.71426433,34 C2.58368431,34 3.32499723,33.3471992 3.40186147,32.4852983 C4.08680727,24.8981895 9.92336542,20.3999843 17,20.3999843 C24.0766346,20.3999843 29.9131927,24.8981895 30.5981385,32.4852983 C30.6750028,33.3471992 31.4163157,34 32.2857357,34 C33.3003437,34 34.0877751,33.119399 33.9921219,32.1146978 C33.3362137,25.32149 29.1513827,20.2877842 23.4190183,18.1440817" id="profile-[#1341]"></path>
            </g>
        </g>
    </g>
</svg>