<?xml version="1.0" encoding="UTF-8"?>
<svg width="50px" height="40px" viewBox="0 0 50 40" version="1.1" xmlns="http://www.w3.org/2000/svg" xmlns:xlink="http://www.w3.org/1999/xlink">
    <!-- Generator: Sketch 48.2 (47327) - http://www.bohemiancoding.com/sketch -->
    <title>icnt_outline_cart01_light</title>
    <desc>Created with Sketch.</desc>
    <defs></defs>
    <g id="Symbols" stroke="none" stroke-width="1" fill="none" fill-rule="evenodd">
        <g id="icnt_outline_cart01_light" fill="#000000">
            <g id="icnt_outline_cart01" transform="translate(1.000000, 1.000000)">
                <path d="M18.106288,27.9869839 L42.6933782,21.4961089 C43.1123126,21.3860672 43.4269028,21.0345672 43.4977634,20.6015256 L45.7240339,6.85819222 C45.7762061,6.53123389 45.6835421,6.19635889 45.4686241,5.94619222 C45.2537061,5.69681722 44.9398946,5.54006722 44.6144028,5.56698389 L12.9712921,6.50480957 L13.5705505,8.53457642 L43.35137,7.82640056 L41.4560421,19.5272339 L18.5766159,25.5668589 L11.6307142,1.95935889 C11.5061241,1.53581722 11.14637,1.22785889 10.7149765,1.17481722 L1.2243208,0.00710888979 C0.627845394,-0.0609744435 0.0804273617,0.367317223 0.00800932889,0.976900556 C-0.0644087039,1.58569222 0.362312608,2.13906722 0.961902772,2.21348389 L9.74161589,3.29331722 L16.7840749,27.2301506 C16.9257962,27.7106922 17.358747,28.0234006 17.8306323,28.0226089" id="Fill-11"></path>
                <path d="M20.2988525,35.0945833 C18.8987705,35.0945833 17.7603279,33.936375 17.7603279,32.5129583 C17.7603279,31.0895417 18.8987705,29.9313333 20.2988525,29.9313333 C21.6997131,29.9313333 22.8381557,31.0895417 22.8381557,32.5129583 C22.8381557,33.936375 21.6997131,35.0945833 20.2988525,35.0945833 L20.2988525,35.0945833 Z M20.2988525,27.7083333 C17.6933607,27.7083333 15.5737705,29.8640417 15.5737705,32.5129583 C15.5737705,35.1626667 17.6933607,37.3167917 20.2988525,37.3167917 C22.905123,37.3167917 25.0247131,35.1626667 25.0247131,32.5129583 C25.0247131,29.8640417 22.905123,27.7083333 20.2988525,27.7083333 L20.2988525,27.7083333 Z" id="Fill-12"></path>
                <path d="M42.1029098,32.7187917 C40.7028279,32.7187917 39.5636066,31.561375 39.5636066,30.1379583 C39.5636066,28.71375 40.7028279,27.5555417 42.1029098,27.5555417 C43.5029918,27.5555417 44.6422131,28.71375 44.6422131,30.1379583 C44.6422131,31.561375 43.5029918,32.7187917 42.1029098,32.7187917 L42.1029098,32.7187917 Z M42.1029098,25.3333333 C39.4966393,25.3333333 37.3770492,27.48825 37.3770492,30.1379583 C37.3770492,32.786875 39.4966393,34.9417917 42.1029098,34.9417917 C44.7084016,34.9417917 46.8279918,32.786875 46.8279918,30.1379583 C46.8279918,27.48825 44.7084016,25.3333333 42.1029098,25.3333333 L42.1029098,25.3333333 Z" id="Fill-13"></path>
                <path d="M29.5697136,6.33333333 C28.9654513,6.33333333 28.4764349,6.8305 28.4764349,7.44483333 L28.4507382,10.9099583 L15.0417218,11.7554583 C14.4397956,11.7934583 13.981148,12.3207083 14.0185251,12.9334583 C14.0543447,13.5216667 14.5355742,13.9760833 15.108689,13.9760833 C15.131271,13.9760833 15.1546316,13.9752917 15.1772136,13.9737083 L28.4507382,13.1369167 L28.4507382,16.9440417 L16.8163529,18.793375 C16.2198775,18.8899583 15.8134021,19.4599583 15.9091808,20.0655833 C15.9948365,20.6118333 16.4597136,21.002125 16.9868857,21.002125 C17.0445087,21.002125 17.1029103,20.997375 17.1605333,20.987875 L28.4507382,19.19475 L28.4507382,22.5854583 C28.4507382,23.199 28.9405333,23.6961667 29.5440169,23.6961667 C30.1475005,23.6961667 30.6372956,23.199 30.6372956,22.5854583 L30.6372956,18.8392917 L42.7326644,16.845875 C43.3283611,16.7485 43.7348365,16.1792917 43.6390578,15.572875 C43.5440578,14.9664583 42.9748365,14.54925 42.3877054,14.651375 L30.6372956,16.589375 L30.6372956,12.9991667 L43.3166808,12.2439167 C43.918607,12.2059167 44.3772546,11.6786667 44.3390988,11.0659167 C44.3025005,10.4531667 43.7800005,9.98370833 43.1804103,10.0256667 L30.6372956,10.7722083 L30.6629923,7.44483333 C30.6629923,6.8305 30.1731972,6.33333333 29.5697136,6.33333333" id="Fill-14"></path>
            </g>
        </g>
    </g>
</svg>