<?xml version="1.0" encoding="UTF-8"?>
<svg width="60px" height="60px" viewBox="0 0 60 60" version="1.1" xmlns="http://www.w3.org/2000/svg" xmlns:xlink="http://www.w3.org/1999/xlink">
    <!-- Generator: Sketch 48.2 (47327) - http://www.bohemiancoding.com/sketch -->
    <title>icnt_outline_cartbig01_dark</title>
    <desc>Created with Sketch.</desc>
    <defs></defs>
    <g id="Symbols" stroke="none" stroke-width="1" fill="none" fill-rule="evenodd">
        <g id="icnt_outline_cartbig01_dark">
            <g>
                <circle id="Oval" fill-opacity="0.8" fill="#000000" opacity="0.800000012" cx="30" cy="30" r="30"></circle>
                <g id="icnt_outline_cart01_dark" transform="translate(12.000000, 17.000000)" fill="#FFFFFF">
                    <path d="M13.3414754,20.6219881 L31.4582787,15.8392381 C31.7669672,15.7581548 31.9987705,15.4991548 32.0509836,15.1800715 L33.6913934,5.0534048 C33.729836,4.81248813 33.6615573,4.56573813 33.5031967,4.3814048 C33.344836,4.1976548 33.1136065,4.0821548 32.8737705,4.10198813 L9.55779419,4.79301758 L9.99935303,6.28863525 L31.9431147,5.76682146 L30.5465573,14.3884881 L13.6880328,18.8387381 L8.56999997,1.44373813 C8.47819669,1.1316548 8.21311473,0.904738129 7.89524587,0.865654796 L0.902131119,0.00523812932 C0.462622922,-0.0449285373 0.0592622665,0.270654796 0.00590161076,0.719821463 C-0.047459045,1.1684048 0.266967185,1.5761548 0.708770463,1.63098813 L7.17803276,2.4266548 L12.3672131,20.0643215 C12.4716393,20.4184048 12.7906557,20.6488215 13.1383606,20.6482381" id="Fill-11"></path>
                    <path d="M14.9570492,25.8591667 C13.9254098,25.8591667 13.0865574,25.00575 13.0865574,23.9569167 C13.0865574,22.9080833 13.9254098,22.0546667 14.9570492,22.0546667 C15.9892623,22.0546667 16.8281148,22.9080833 16.8281148,23.9569167 C16.8281148,25.00575 15.9892623,25.8591667 14.9570492,25.8591667 L14.9570492,25.8591667 Z M14.9570492,20.4166667 C13.0372131,20.4166667 11.4754098,22.0050833 11.4754098,23.9569167 C11.4754098,25.9093333 13.0372131,27.4965833 14.9570492,27.4965833 C16.877459,27.4965833 18.4392623,25.9093333 18.4392623,23.9569167 C18.4392623,22.0050833 16.877459,20.4166667 14.9570492,20.4166667 L14.9570492,20.4166667 Z" id="Fill-12"></path>
                    <path d="M31.0231967,24.1085833 C29.9915574,24.1085833 29.1521311,23.25575 29.1521311,22.2069167 C29.1521311,21.1575 29.9915574,20.3040833 31.0231967,20.3040833 C32.0548361,20.3040833 32.8942623,21.1575 32.8942623,22.2069167 C32.8942623,23.25575 32.0548361,24.1085833 31.0231967,24.1085833 L31.0231967,24.1085833 Z M31.0231967,18.6666667 C29.1027869,18.6666667 27.5409836,20.2545 27.5409836,22.2069167 C27.5409836,24.15875 29.1027869,25.7465833 31.0231967,25.7465833 C32.9430328,25.7465833 34.5048361,24.15875 34.5048361,22.2069167 C34.5048361,20.2545 32.9430328,18.6666667 31.0231967,18.6666667 L31.0231967,18.6666667 Z" id="Fill-13"></path>
                    <path d="M21.78821,4.66666667 C21.3429641,4.66666667 20.9826362,5.033 20.9826362,5.48566667 L20.9637018,8.03891667 L11.0833739,8.66191667 C10.6398494,8.68991667 10.3018985,9.07841667 10.3294395,9.52991667 C10.355833,9.96333333 10.7104231,10.2981667 11.1327182,10.2981667 C11.1493575,10.2981667 11.1665707,10.2975833 11.18321,10.2964167 L20.9637018,9.67983333 L20.9637018,12.4850833 L12.3909969,13.84775 C11.9514887,13.9189167 11.6519805,14.3389167 11.7225543,14.7851667 C11.785669,15.1876667 12.12821,15.47525 12.5166526,15.47525 C12.5591116,15.47525 12.6021444,15.47175 12.6446035,15.46475 L20.9637018,14.1435 L20.9637018,16.6419167 C20.9637018,17.094 21.3246035,17.4603333 21.7692756,17.4603333 C22.2139477,17.4603333 22.5748494,17.094 22.5748494,16.6419167 L22.5748494,13.8815833 L31.4872264,12.41275 C31.9261608,12.341 32.225669,11.9215833 32.1550953,11.47475 C32.0850953,11.0279167 31.665669,10.7205 31.2330461,10.79575 L22.5748494,12.22375 L22.5748494,9.57833333 L31.9175543,9.02183333 C32.3610789,8.99383333 32.6990297,8.60533333 32.6709149,8.15383333 C32.6439477,7.70233333 32.2589477,7.35641667 31.8171444,7.38733333 L22.5748494,7.93741667 L22.5937838,5.48566667 C22.5937838,5.033 22.2328821,4.66666667 21.78821,4.66666667" id="Fill-14"></path>
                </g>
            </g>
        </g>
    </g>
</svg>