<?xml version="1.0" encoding="UTF-8"?>
<svg width="40px" height="40px" viewBox="0 0 40 40" version="1.1" xmlns="http://www.w3.org/2000/svg" xmlns:xlink="http://www.w3.org/1999/xlink">
    <!-- Generator: Sketch 48.2 (47327) - http://www.bohemiancoding.com/sketch -->
    <title>icnt_fill_search01_light</title>
    <desc>Created with Sketch.</desc>
    <defs></defs>
    <g id="Symbols" stroke="none" stroke-width="1" fill="none" fill-rule="evenodd">
        <g id="icnt_fill_search01_light" fill="#000000">
            <path d="M30.3249096,27.1917391 C32.2059455,24.6676087 33.3183066,21.541087 33.3183066,18.1595652 C33.3183066,9.8 26.5184913,3 18.1591533,3 C9.79981522,3 3,9.8 3,18.1595652 C3,26.5191304 9.79981522,33.3191304 18.1591533,33.3191304 C21.5405831,33.3191304 24.6670199,32.2067391 27.1910818,30.3256522 L33.2148311,36.3495652 C33.6472107,36.7819565 34.2126301,37 34.7817451,37 C35.35086,37 35.9162794,36.7819565 36.348659,36.3495652 C37.2171137,35.4847826 37.2171137,34.0804348 36.348659,33.2156522 L30.3249096,27.1917391 Z M6.65989545,18.1595652 C6.65989545,11.8193473 11.8191076,6.6599949 18.1591533,6.6599949 C24.499199,6.6599949 29.6584111,11.8193473 29.6584111,18.1595652 C29.6584111,24.4997832 24.499199,29.6591355 18.1591533,29.6591355 C11.8191076,29.6591355 6.65989545,24.4997832 6.65989545,18.1595652 Z" id="icnt_fill_search01"></path>
        </g>
    </g>
</svg>