<?xml version="1.0" encoding="UTF-8"?>
<svg width="40px" height="40px" viewBox="0 0 40 40" version="1.1" xmlns="http://www.w3.org/2000/svg" xmlns:xlink="http://www.w3.org/1999/xlink">
    <!-- Generator: Sketch 48.2 (47327) - http://www.bohemiancoding.com/sketch -->
    <title>icnt_fill_user05_light</title>
    <desc>Created with Sketch.</desc>
    <defs></defs>
    <g id="Symbols" stroke="none" stroke-width="1" fill="none" fill-rule="evenodd">
        <g id="icnt_fill_user05_light" fill="#000000" fill-rule="nonzero">
            <g id="1497814302_user" transform="translate(8.000000, 3.000000)">
                <path d="M22.1447368,10 C22.1447368,7.238 21.0173684,4.738 19.1974737,2.93 C17.3755658,1.12 14.8591184,0 12.0789474,0 C9.29877632,0 6.78232895,1.12 4.96042105,2.93 C3.14052632,4.738 2.01315789,7.238 2.01315789,10 C2.01315789,12.762 3.14052632,15.262 4.96042105,17.07 C6.78232895,18.88 9.29877632,20 12.0789474,20 C14.8591184,20 17.3755658,18.88 19.1974737,17.07 C21.0173684,15.262 22.1447368,12.762 22.1447368,10 Z" id="Shape"></path>
                <path d="M0,30 C0,32 4.52960526,34 12.0789474,34 C19.1612368,34 24.1578947,32 24.1578947,30 C24.1578947,26 19.4189211,22 12.0789474,22 C4.52960526,22 0,26 0,30 Z" id="Shape"></path>
            </g>
        </g>
    </g>
</svg>