<?xml version="1.0" encoding="UTF-8"?>
<svg width="40px" height="40px" viewBox="0 0 40 40" version="1.1" xmlns="http://www.w3.org/2000/svg" xmlns:xlink="http://www.w3.org/1999/xlink">
    <!-- Generator: Sketch 48.2 (47327) - http://www.bohemiancoding.com/sketch -->
    <title>icnt_fill_basket01_light</title>
    <desc>Created with Sketch.</desc>
    <defs></defs>
    <g id="Symbols" stroke="none" stroke-width="1" fill="none" fill-rule="evenodd">
        <g id="icnt_fill_basket01_light" fill="#000000">
            <g id="icnt_fill_basket01" transform="translate(2.000000, 1.000000)">
                <path d="M35.7558979,17.7281633 C35.7558979,16.4640816 34.7312723,15.4303265 33.4800617,15.4303265 L2.5477383,15.4303265 C1.29575957,15.4303265 0.271902128,16.4640816 0.271902128,17.7281633 C0.271902128,18.8022449 1.01464043,19.7033878 2.00470213,19.951551 L5.14309787,34.9413878 C5.14309787,36.3303265 6.26834255,37.4656735 7.64321489,37.4656735 L28.7932064,37.4656735 C30.1680787,37.4656735 31.2933234,36.3303265 31.2933234,34.9413878 L34.466283,19.7879184 C35.2251511,19.4141224 35.7558979,18.6339592 35.7558979,17.7281633 L35.7558979,17.7281633 Z" id="Fill-3"></path>
                <path d="M7.9934617,11.6039592 C8.70163617,6.62208163 12.9337851,2.79028571 18.0630574,2.79028571 C23.1930979,2.79028571 27.4252468,6.62208163 28.1334213,11.6039592 C28.2371128,13.3046531 30.4069532,13.032449 30.4069532,11.6039592 C29.6849532,5.36342857 24.4381638,0.518040816 18.0630574,0.518040816 C11.6887191,0.518040816 6.44192979,5.36342857 5.71992979,11.6039592 C5.71992979,13.372898 8.02034468,13.4411429 7.9934617,11.6039592" id="Fill-4" stroke="#000000" stroke-width="1.5"></path>
            </g>
        </g>
    </g>
</svg>