<?xml version="1.0" encoding="UTF-8"?>
<svg width="40px" height="40px" viewBox="0 0 40 40" version="1.1" xmlns="http://www.w3.org/2000/svg" xmlns:xlink="http://www.w3.org/1999/xlink">
    <!-- Generator: Sketch 48.2 (47327) - http://www.bohemiancoding.com/sketch -->
    <title>icnt_fill_cart03_light</title>
    <desc>Created with Sketch.</desc>
    <defs></defs>
    <g id="Symbols" stroke="none" stroke-width="1" fill="none" fill-rule="evenodd">
        <g id="icnt_fill_cart03_light" fill="#000000" fill-rule="nonzero">
            <g id="1497814293_shopping-cart" transform="translate(1.000000, 3.000000)">
                <path d="M37.5364,4.42944444 C37.1735,4.01577778 36.651,3.77777778 36.1,3.77777778 L9.8439,3.77777778 L9.4734,1.57911111 C9.3214,0.668666667 8.5291,0 7.6,0 L3.325,0 C2.2743,0 1.425,0.844333333 1.425,1.88888889 C1.425,2.93344444 2.2743,3.77777778 3.325,3.77777778 L5.9907,3.77777778 L9.5247,24.8653333 C9.5399,24.9503333 9.5836,25.0202222 9.6102,25.0995556 C9.6406,25.1996667 9.6653,25.2941111 9.7128,25.3847778 C9.7736,25.5094444 9.8553,25.6152222 9.9408,25.7228889 C9.9997,25.7965556 10.0529,25.8702222 10.1213,25.9344444 C10.2315,26.0364444 10.3588,26.1082222 10.488,26.18 C10.5602,26.2196667 10.6229,26.2725556 10.7008,26.3027778 C10.9212,26.3915556 11.153,26.4444444 11.3981,26.4444444 C11.4,26.4444444 32.3,26.4444444 32.3,26.4444444 C33.3507,26.4444444 34.2,25.6001111 34.2,24.5555556 C34.2,23.511 33.3507,22.6666667 32.3,22.6666667 L13.0093,22.6666667 L12.6939,20.7777778 L34.2,20.7777778 C35.1462,20.7777778 35.948,20.0864444 36.081,19.1571111 L37.981,5.93488889 C38.0589,5.39088889 37.8955,4.84122222 37.5364,4.42944444 Z M33.9093,7.55555556 L33.3678,11.3333333 L26.6,11.3333333 L26.6,7.55555556 L33.9093,7.55555556 Z M24.7,7.55555556 L24.7,11.3333333 L19,11.3333333 L19,7.55555556 L24.7,7.55555556 Z M24.7,13.2222222 L24.7,17 L19,17 L19,13.2222222 L24.7,13.2222222 Z M17.1,7.55555556 L17.1,11.3333333 L11.4,11.3333333 C11.2993,11.3333333 11.2081,11.3616667 11.1188,11.39 L10.4766,7.55555556 L17.1,7.55555556 Z M11.4266,13.2222222 L17.1,13.2222222 L17.1,17 L12.0593,17 L11.4266,13.2222222 Z M26.6,17 L26.6,13.2222222 L33.0942,13.2222222 L32.5527,17 L26.6,17 Z" id="Shape"></path>
                <ellipse id="Oval" cx="14.25" cy="31.1666667" rx="2.85" ry="2.83333333"></ellipse>
                <ellipse id="Oval" cx="31.35" cy="31.1666667" rx="2.85" ry="2.83333333"></ellipse>
            </g>
        </g>
    </g>
</svg>