<?xml version="1.0" encoding="UTF-8"?>
<svg width="60px" height="60px" viewBox="0 0 60 60" version="1.1" xmlns="http://www.w3.org/2000/svg" xmlns:xlink="http://www.w3.org/1999/xlink">
    <!-- Generator: Sketch 48.2 (47327) - http://www.bohemiancoding.com/sketch -->
    <title>icnt_outline_cartbig01_light</title>
    <desc>Created with Sketch.</desc>
    <defs></defs>
    <g id="Symbols" stroke="none" stroke-width="1" fill="none" fill-rule="evenodd">
        <g id="icnt_outline_cartbig01_light">
            <g>
                <g id="icnt_outline_backbig01_light" fill="#DDDDDD" opacity="0.800000012">
                    <g id="icnt_outline_backbig01_dark">
                        <g id="icnt_fill_back01_light">
                            <circle id="Oval" cx="30" cy="30" r="30"></circle>
                        </g>
                    </g>
                </g>
                <g id="icnt_outline_cart01" transform="translate(12.000000, 17.000000)" fill="#000000">
                    <path d="M13.483406,20.6219881 L31.7929412,15.8392381 C32.1049136,15.7581548 32.3391829,15.4991548 32.3919515,15.1800715 L34.0498125,5.0534048 C34.0886641,4.81248813 34.019659,4.56573813 33.8596137,4.3814048 C33.6995683,4.1976548 33.4658789,4.0821548 33.2234914,4.10198813 L9.65947285,4.79301758 L10.1057291,6.28863525 L32.2829351,5.76682146 L30.8715207,14.3884881 L13.8336501,18.8387381 L8.66117018,1.44373813 C8.56839027,1.1316548 8.30048829,0.904738129 7.97923785,0.865654796 L0.911728259,0.00523812932 C0.467544443,-0.0449285373 0.0598927161,0.270654796 0.00596439385,0.719821463 C-0.0479639284,1.1684048 0.269807261,1.5761548 0.716310575,1.63098813 L7.25439481,2.4266548 L12.4987792,20.0643215 C12.6043163,20.4184048 12.9267265,20.6488215 13.2781304,20.6482381" id="Fill-11"></path>
                    <path d="M15.1161667,25.8591667 C14.0735525,25.8591667 13.2257761,25.00575 13.2257761,23.9569167 C13.2257761,22.9080833 14.0735525,22.0546667 15.1161667,22.0546667 C16.1593608,22.0546667 17.0071373,22.9080833 17.0071373,23.9569167 C17.0071373,25.00575 16.1593608,25.8591667 15.1161667,25.8591667 L15.1161667,25.8591667 Z M15.1161667,20.4166667 C13.1759069,20.4166667 11.5974887,22.0050833 11.5974887,23.9569167 C11.5974887,25.9093333 13.1759069,27.4965833 15.1161667,27.4965833 C17.0570065,27.4965833 18.6354247,25.9093333 18.6354247,23.9569167 C18.6354247,22.0050833 17.0570065,20.4166667 15.1161667,20.4166667 L15.1161667,20.4166667 Z" id="Fill-12"></path>
                    <path d="M31.3532307,24.1085833 C30.3106165,24.1085833 29.4622602,23.25575 29.4622602,22.2069167 C29.4622602,21.1575 30.3106165,20.3040833 31.3532307,20.3040833 C32.395845,20.3040833 33.2442013,21.1575 33.2442013,22.2069167 C33.2442013,23.25575 32.395845,24.1085833 31.3532307,24.1085833 L31.3532307,24.1085833 Z M31.3532307,18.6666667 C29.412391,18.6666667 27.8339728,20.2545 27.8339728,22.2069167 C27.8339728,24.15875 29.412391,25.7465833 31.3532307,25.7465833 C33.2934906,25.7465833 34.8719088,24.15875 34.8719088,22.2069167 C34.8719088,20.2545 33.2934906,18.6666667 31.3532307,18.6666667 L31.3532307,18.6666667 Z" id="Fill-13"></path>
                    <path d="M22.0199995,4.66666667 C21.5700169,4.66666667 21.2058558,5.033 21.2058558,5.48566667 L21.1867199,8.03891667 L11.2012822,8.66191667 C10.7530392,8.68991667 10.4114932,9.07841667 10.4393272,9.52991667 C10.4660014,9.96333333 10.8243638,10.2981667 11.2511514,10.2981667 C11.2679677,10.2981667 11.285364,10.2975833 11.3021803,10.2964167 L21.1867199,9.67983333 L21.1867199,12.4850833 L12.522816,13.84775 C12.0786322,13.9189167 11.7759377,14.3389167 11.8472623,14.7851667 C11.9110485,15.1876667 12.2572335,15.47525 12.6498085,15.47525 C12.6927192,15.47525 12.7362098,15.47175 12.7791205,15.46475 L21.1867199,14.1435 L21.1867199,16.6419167 C21.1867199,17.094 21.5514609,17.4603333 22.0008636,17.4603333 C22.4502663,17.4603333 22.8150073,17.094 22.8150073,16.6419167 L22.8150073,13.8815833 L31.8221969,12.41275 C32.2658008,12.341 32.5684953,11.9215833 32.4971707,11.47475 C32.4264261,11.0279167 32.0025378,10.7205 31.5653125,10.79575 L22.8150073,12.22375 L22.8150073,9.57833333 L32.2571027,9.02183333 C32.7053457,8.99383333 33.0468917,8.60533333 33.0184779,8.15383333 C32.9912238,7.70233333 32.602128,7.35641667 32.1556247,7.38733333 L22.8150073,7.93741667 L22.8341432,5.48566667 C22.8341432,5.033 22.4694022,4.66666667 22.0199995,4.66666667" id="Fill-14"></path>
                </g>
            </g>
        </g>
    </g>
</svg>