<?xml version="1.0" encoding="UTF-8"?>
<svg width="40px" height="40px" viewBox="0 0 40 40" version="1.1" xmlns="http://www.w3.org/2000/svg" xmlns:xlink="http://www.w3.org/1999/xlink">
    <!-- Generator: Sketch 52.5 (67469) - http://www.bohemiancoding.com/sketch -->
    <title>icnt_circle_addressship</title>
    <desc>Created with Sketch.</desc>
    <g id="icnt_circle_addressship" stroke="none" stroke-width="1" fill="none" fill-rule="evenodd">
        <circle id="Oval-Copy-2" fill="#FF5000" fill-rule="nonzero" cx="20" cy="20" r="20"></circle>
        <g id="1450808495_76" transform="translate(9.000000, 10.000000)" fill="#FFFFFF" stroke="#FFFFFF">
            <g id="Layer_1">
                <g id="Group">
                    <path d="M2.5,10.3571429 C1.74107143,10.3571429 1.02678571,10 0.625,9.33035714 C0.267857143,8.83928571 0.178571429,8.21428571 0.267857143,7.63392857 C0.401785714,7.05357143 0.714285714,6.51785714 1.25,6.20535714 L9.46428571,0.669642857 C10.2232143,0.178571429 11.25,0.178571429 12.0089286,0.669642857 L20.2232143,6.16071429 C20.7142857,6.51785714 21.0714286,7.00892857 21.2053571,7.58928571 C21.3392857,8.16964286 21.2053571,8.79464286 20.8482143,9.28571429 C20.4464286,9.91071429 19.7321429,10.3125 18.9732143,10.3125 C18.5267857,10.3125 18.0803571,10.1785714 17.7232143,9.91071429 L10.7142857,5.3125 L3.75,9.95535714 C3.39285714,10.2232143 2.94642857,10.3571429 2.5,10.3571429 L2.5,10.3571429 Z M10.7142857,1.16071429 C10.4464286,1.16071429 10.1785714,1.25 9.95535714,1.38392857 L1.74107143,6.91964286 C1.42857143,7.14285714 1.20535714,7.45535714 1.16071429,7.8125 C1.07142857,8.16964286 1.16071429,8.52678571 1.38392857,8.83928571 C1.65178571,9.24107143 2.05357143,9.46428571 2.54464286,9.46428571 C2.8125,9.46428571 3.08035714,9.375 3.30357143,9.24107143 L10.4910714,4.41964286 C10.625,4.33035714 10.8482143,4.33035714 10.9821429,4.41964286 L18.1696429,9.24107143 C18.3928571,9.375 18.6607143,9.46428571 18.9285714,9.46428571 C19.375,9.46428571 19.8214286,9.24107143 20.0892857,8.83928571 C20.3125,8.52678571 20.3571429,8.16964286 20.3125,7.8125 C20.2232143,7.45535714 20.0446429,7.14285714 19.7321429,6.91964286 L11.4732143,1.42857143 C11.25,1.25 10.9821429,1.16071429 10.7142857,1.16071429 L10.7142857,1.16071429 Z" id="Shape"></path>
                    <path d="M18.1696429,19.3303571 L13.2589286,19.3303571 C12.9910714,19.3303571 12.8125,19.1517857 12.8125,18.8839286 L12.8125,14.9107143 C12.8125,13.75 11.875,12.7678571 10.6696429,12.7678571 C9.50892857,12.7678571 8.52678571,13.7053571 8.52678571,14.9107143 L8.52678571,18.8839286 C8.52678571,19.1517857 8.34821429,19.3303571 8.08035714,19.3303571 L3.16964286,19.3303571 C2.90178571,19.3303571 2.72321429,19.1517857 2.72321429,18.8839286 L2.72321429,9.91071429 C2.72321429,9.64285714 2.90178571,9.46428571 3.16964286,9.46428571 C3.4375,9.46428571 3.61607143,9.64285714 3.61607143,9.91071429 L3.61607143,18.4821429 L7.63392857,18.4821429 L7.63392857,14.9553571 C7.63392857,13.3035714 8.97321429,11.9196429 10.6696429,11.9196429 C12.3214286,11.9196429 13.7053571,13.2589286 13.7053571,14.9553571 L13.7053571,18.4821429 L17.7232143,18.4821429 L17.7232143,9.91071429 C17.7232143,9.64285714 17.9017857,9.46428571 18.1696429,9.46428571 C18.4375,9.46428571 18.6160714,9.64285714 18.6160714,9.91071429 L18.6160714,18.9285714 C18.6160714,19.1517857 18.4375,19.3303571 18.1696429,19.3303571 L18.1696429,19.3303571 Z" id="Shape"></path>
                </g>
            </g>
        </g>
    </g>
</svg>