<?xml version="1.0" encoding="UTF-8"?>
<svg width="40px" height="40px" viewBox="0 0 40 40" version="1.1" xmlns="http://www.w3.org/2000/svg" xmlns:xlink="http://www.w3.org/1999/xlink">
    <!-- Generator: Sketch 48.2 (47327) - http://www.bohemiancoding.com/sketch -->
    <title>icnt_outline_home04_light</title>
    <desc>Created with Sketch.</desc>
    <defs></defs>
    <g id="Symbols" stroke="none" stroke-width="1" fill="none" fill-rule="evenodd">
        <g id="icnt_outline_home04_light" fill="#010101" stroke="#000000" stroke-width="1.02631579">
            <g id="1450808495_76" transform="translate(1.000000, 2.000000)">
                <g id="Layer_1">
                    <g id="Group">
                        <path d="M4.55,18.9818182 C3.16875,18.9818182 1.86875,18.3272727 1.1375,17.1 C0.4875,16.2 0.325,15.0545455 0.4875,13.9909091 C0.73125,12.9272727 1.3,11.9454545 2.275,11.3727273 L17.225,1.22727273 C18.60625,0.327272727 20.475,0.327272727 21.85625,1.22727273 L36.80625,11.2909091 C37.7,11.9454545 38.35,12.8454545 38.59375,13.9090909 C38.8375,14.9727273 38.59375,16.1181818 37.94375,17.0181818 C37.2125,18.1636364 35.9125,18.9 34.53125,18.9 C33.71875,18.9 32.90625,18.6545455 32.25625,18.1636364 L19.5,9.73636364 L6.825,18.2454545 C6.175,18.7363636 5.3625,18.9818182 4.55,18.9818182 Z M19.5,2.12727273 C19.0125,2.12727273 18.525,2.29090909 18.11875,2.53636364 L3.16875,12.6818182 C2.6,13.0909091 2.19375,13.6636364 2.1125,14.3181818 C1.95,14.9727273 2.1125,15.6272727 2.51875,16.2 C3.00625,16.9363636 3.7375,17.3454545 4.63125,17.3454545 C5.11875,17.3454545 5.60625,17.1818182 6.0125,16.9363636 L19.09375,8.1 C19.3375,7.93636364 19.74375,7.93636364 19.9875,8.1 L33.06875,16.9363636 C33.475,17.1818182 33.9625,17.3454545 34.45,17.3454545 C35.2625,17.3454545 36.075,16.9363636 36.5625,16.2 C36.96875,15.6272727 37.05,14.9727273 36.96875,14.3181818 C36.80625,13.6636364 36.48125,13.0909091 35.9125,12.6818182 L20.88125,2.61818182 C20.475,2.29090909 19.9875,2.12727273 19.5,2.12727273 Z" id="Shape"></path>
                        <path d="M33.06875,35.4272727 L24.13125,35.4272727 C23.64375,35.4272727 23.31875,35.1 23.31875,34.6090909 L23.31875,27.3272727 C23.31875,25.2 21.6125,23.4 19.41875,23.4 C17.30625,23.4 15.51875,25.1181818 15.51875,27.3272727 L15.51875,34.6090909 C15.51875,35.1 15.19375,35.4272727 14.70625,35.4272727 L5.76875,35.4272727 C5.28125,35.4272727 4.95625,35.1 4.95625,34.6090909 L4.95625,18.1636364 C4.95625,17.6727273 5.28125,17.3454545 5.76875,17.3454545 C6.25625,17.3454545 6.58125,17.6727273 6.58125,18.1636364 L6.58125,33.8727273 L13.89375,33.8727273 L13.89375,27.4090909 C13.89375,24.3818182 16.33125,21.8454545 19.41875,21.8454545 C22.425,21.8454545 24.94375,24.3 24.94375,27.4090909 L24.94375,33.8727273 L32.25625,33.8727273 L32.25625,18.1636364 C32.25625,17.6727273 32.58125,17.3454545 33.06875,17.3454545 C33.55625,17.3454545 33.88125,17.6727273 33.88125,18.1636364 L33.88125,34.6909091 C33.88125,35.1 33.55625,35.4272727 33.06875,35.4272727 Z" id="Shape"></path>
                    </g>
                </g>
            </g>
        </g>
    </g>
</svg>