<?xml version="1.0" encoding="UTF-8"?>
<svg width="40px" height="40px" viewBox="0 0 40 40" version="1.1" xmlns="http://www.w3.org/2000/svg" xmlns:xlink="http://www.w3.org/1999/xlink">
    <!-- Generator: Sketch 48.2 (47327) - http://www.bohemiancoding.com/sketch -->
    <title>icnt_fill_run01_light</title>
    <desc>Created with Sketch.</desc>
    <defs></defs>
    <g id="Symbols" stroke="none" stroke-width="1" fill="none" fill-rule="evenodd">
        <g id="icnt_fill_run01_light" fill="#000000" stroke="#000000" stroke-width="0.5">
            <g id="Group" transform="translate(1.000000, 3.000000)">
                <path d="M1.54180765,24.6180037 C0.511789098,24.8194936 -0.163050646,25.835003 0.0342709164,26.886821 C0.207913891,27.8136748 1.005093,28.4584427 1.89698647,28.4584427 C2.0153794,28.4584427 2.13771877,28.446313 2.25611171,28.4221745 L10.0700456,26.8908508 C10.5159923,26.8021952 10.9145819,26.5563774 11.1987249,26.1936955 L14.5531915,21.8737506 L13.4324445,21.2894297 C12.6036939,20.862271 12.0274755,20.0885495 11.8301539,19.1496063 L8.66511606,23.2237334 L1.54180765,24.6180037 L1.54180765,24.6180037 Z" id="Shape" stroke-linecap="round" stroke-linejoin="round"></path>
                <path d="M19.387344,2.12773403 C19.2237358,2.12773403 19.0602074,2.151663 18.8846308,2.19154461 L11.667718,3.90246557 C10.6703503,4.13776705 10.0559718,5.1387954 10.2913505,6.13184743 C10.4948136,6.98531383 11.252813,7.55960898 12.0945914,7.55960898 C12.2382522,7.55960898 12.3818333,7.54365634 12.5254941,7.50776289 L18.6732687,6.05208422 C19.0722157,6.49477006 21.0709406,8.66034135 21.4339825,9.04320478 C18.8926895,11.7631304 16.3513966,14.4790679 13.8100638,17.1989935 C13.7701691,17.2429032 13.7343038,17.2867331 13.6983586,17.3306028 C12.9563171,18.2757969 13.1837568,19.7593927 14.3008086,20.3217234 L15.6531993,21.0117151 L22.0922053,24.2979197 L18.0468818,30.8504678 C17.4923853,31.751832 17.7716482,32.9322877 18.6732288,33.4906302 C18.988397,33.6860501 19.3354809,33.7777778 19.6785754,33.7777778 C20.3208802,33.7777778 20.9511767,33.4547368 21.3142584,32.8684771 L26.4526969,24.5451856 C26.7359493,24.0865471 26.8117492,23.5321928 26.6641388,23.0177201 C26.5165284,22.4992592 26.1614655,22.0685378 25.6787395,21.82526 L20.4006696,19.1412278 L25.9500634,13.2068446 L30.1390078,16.7563077 C30.4860519,17.0513917 30.9129253,17.1950054 31.3358491,17.1950054 C31.7906088,17.1950054 32.2454484,17.0275026 32.6004714,16.7004734 L37.4077838,12.2217689 C38.1578442,11.5238408 38.2016885,10.3513215 37.5035311,9.60154729 C37.1364997,9.21070753 36.6418054,9.01129949 36.147111,9.01129949 C35.6963008,9.01129949 35.2415011,9.17481409 34.8864382,9.50583143 C34.8864382,9.50583143 32.9924179,11.2669858 32.0454077,12.147563 C31.792917,12.3823414 32.0454072,12.1475633 31.2879355,12.8518983 C30.5304638,13.5562333 22.2677021,4.3770567 20.6918611,2.76185159 C20.2490298,2.30720127 19.8381542,2.12773403 19.387344,2.12773403 Z" id="Shape" stroke-linecap="round" stroke-linejoin="round"></path>
                <ellipse id="Oval-path" cx="29.7801418" cy="4.12248469" rx="4.17730496" ry="4.12248469"></ellipse>
            </g>
        </g>
    </g>
</svg>