<?xml version="1.0" encoding="UTF-8"?>
<svg width="40px" height="40px" viewBox="0 0 40 40" version="1.1" xmlns="http://www.w3.org/2000/svg" xmlns:xlink="http://www.w3.org/1999/xlink">
    <!-- Generator: Sketch 48.2 (47327) - http://www.bohemiancoding.com/sketch -->
    <title>icnt_fill_user01_dark</title>
    <desc>Created with Sketch.</desc>
    <defs></defs>
    <g id="Symbols" stroke="none" stroke-width="1" fill="none" fill-rule="evenodd">
        <g id="icnt_fill_user01_dark" fill="#FFFFFF">
            <g transform="translate(1.000000, 1.000000)" id="icnt_fill_user01">
                <path d="M38,19 C38,24.5618182 35.5977091,29.5722909 31.7769818,33.0489455 L31.7956364,33.0648364 L31.1634545,33.5926909 C31.1005818,33.6458909 31.0314909,33.6908 30.9672364,33.7426182 C30.6777455,33.9782182 30.3799636,34.2034545 30.0766545,34.4217818 C29.9502182,34.5129818 29.8251636,34.6048727 29.6973455,34.6919273 C29.3422182,34.9351273 28.9767273,35.1638182 28.6050182,35.3828364 C28.5041455,35.4422545 28.4032727,35.5002909 28.3017091,35.5576364 C27.8933818,35.7877091 27.4767636,36.0039636 27.0504727,36.2043273 C26.9979636,36.2292 26.9447636,36.252 26.8922545,36.2761818 C25.4676,36.9297818 23.9489818,37.4113455 22.3619636,37.696 C22.3191273,37.7042909 22.2756,37.7118909 22.2327636,37.7194909 C21.7373818,37.8044727 21.2357818,37.8714909 20.7279636,37.9177818 C20.6637091,37.9233091 20.5994545,37.9267636 20.5352,37.9322909 C20.0280727,37.9730545 19.5174909,38 19,38 C18.4776727,38 17.9622545,37.9730545 17.4523636,37.9309091 C17.3894909,37.9253818 17.3273091,37.9219273 17.2651273,37.9164 C16.7531636,37.8701091 16.2474182,37.8010182 15.7472,37.7146545 C15.7043636,37.7070545 15.6622182,37.6994545 15.6200727,37.6918545 C14.0088727,37.4009818 12.4681455,36.9083636 11.0248364,36.2374909 C10.9923636,36.2222909 10.9592,36.2084727 10.9267273,36.1932727 C10.4838545,35.9846182 10.0513455,35.7573091 9.62781818,35.5161818 C9.54283636,35.4678182 9.45785455,35.4194545 9.37356364,35.3697091 C8.98665455,35.1410182 8.60803636,34.8998909 8.23909091,34.6456364 C8.12509091,34.5668727 8.01316364,34.4860364 7.90123636,34.4052 C7.55578182,34.1557818 7.21654545,33.8980727 6.88905455,33.6265455 C6.84898182,33.5933818 6.80545455,33.5657455 6.76538182,33.5318909 L6.14909091,33.0123273 L6.16705455,32.9964364 C2.37949091,29.5211636 0,24.5334909 0,19 C0,8.52374545 8.52374545,0 19,0 C29.4762545,0 38,8.52374545 38,19 Z M28.8166032,31.1605758 C28.5868697,31.3272968 28.3531978,31.4887667 28.116244,31.6430164 C28.0072847,31.7139056 27.8989817,31.7847948 27.7880532,31.8537149 C27.4782411,32.0453783 27.1631779,32.2278524 26.8415509,32.3985116 C26.7706617,32.4359254 26.6991161,32.47137 26.6275705,32.5081274 C25.8884847,32.8868596 25.1238001,33.2124249 24.3381113,33.4769467 C24.3105433,33.486136 24.2829752,33.4959817 24.2547508,33.5051711 C23.8431995,33.6416985 23.4263972,33.7631291 23.0050002,33.8674937 C23.0036874,33.8674937 23.0023746,33.8681501 23.0010619,33.8681501 C22.5757266,33.9731712 22.1451402,34.0604699 21.7119283,34.1320155 C21.7001135,34.1339847 21.6882986,34.1366102 21.6764837,34.1385794 C21.2688707,34.2048739 20.8579758,34.2527898 20.4457681,34.2888908 C20.3729098,34.2954546 20.3000514,34.3000492 20.2265367,34.3053003 C19.8189237,34.3361502 19.4093415,34.3558417 18.9977902,34.3558417 C18.5816443,34.3558417 18.1668111,34.3354939 17.753947,34.3046439 C17.6824014,34.2993929 17.6108558,34.2947982 17.5399666,34.2882344 C17.1238207,34.251477 16.7096438,34.2022484 16.2994053,34.1352975 C16.2810266,34.1320155 16.2626479,34.1287336 16.2442693,34.1254517 C15.3765327,33.9803914 14.5225802,33.7670674 13.6909447,33.4881052 C13.6653458,33.4795722 13.6390905,33.4703828 13.6134916,33.4618499 C13.2006276,33.3213842 12.7923582,33.1658218 12.391309,32.9938498 C12.3886835,32.992537 12.3854016,32.9912242 12.382776,32.9899115 C12.0033875,32.8264725 11.6312191,32.6453111 11.2636453,32.4543041 C11.2157295,32.4293616 11.1671572,32.4057318 11.1198978,32.3801329 C10.7844867,32.2009408 10.4562959,32.0073082 10.1326998,31.8051426 C10.0368681,31.7447555 9.94169272,31.683712 9.84717376,31.6220121 C9.54917649,31.4270668 9.25511752,31.2242449 8.96893512,31.0096081 C8.93939795,30.9872911 8.91117354,30.9636614 8.88163636,30.9413444 L8.944649,30.9058998 L14.1346587,28.0749257 C15.0273377,27.5878906 15.5819802,26.6538595 15.5819802,25.6371243 L15.5813238,23.2728376 L15.430356,23.0903635 C15.4159156,23.073954 13.9968185,21.3476703 13.4605547,19.0102953 L13.400824,18.7503681 L13.1769978,18.6053078 C12.8612783,18.4011731 12.6722404,18.0598546 12.6722404,17.6916245 L12.6722404,15.3647516 C12.6722404,15.0595341 12.8015475,14.7753209 13.0378449,14.5619969 L13.2544509,14.3663951 L13.2544509,10.7103494 L13.2485434,10.6243634 C13.2465743,10.6086102 13.0529417,9.03001238 14.1648522,7.76253942 C15.1139801,6.68082248 16.7404938,6.13143104 18.9977902,6.13143104 C21.2465538,6.13143104 22.8678164,6.67622781 23.8195698,7.75006817 C24.9301675,9.00441349 24.7483498,10.6125485 24.7470371,10.6256762 L24.7411296,14.3677079 L24.9577356,14.5633096 C25.1933766,14.7759773 25.3233401,15.0608469 25.3233401,15.3660644 L25.3233401,17.6929373 C25.3233401,18.1609374 25.004995,18.5856163 24.5481534,18.7267384 L24.2219317,18.8271648 L24.1169107,19.1520737 C23.7296455,20.3552212 23.1782849,21.4664754 22.4785821,22.4549861 C22.3066101,22.6978473 22.1392328,22.9131405 21.9954852,23.0778923 L21.8327026,23.2636483 L21.8327026,25.691604 C21.8327026,26.7496912 22.4208205,27.7014446 23.3673228,28.1740394 L28.9249062,30.9525029 C28.9603508,30.9702252 28.995139,30.9886039 29.0299273,31.0069825 C28.9596944,31.0601495 28.8874925,31.1093781 28.8166032,31.1605758 L28.8166032,31.1605758 Z"></path>
            </g>
        </g>
    </g>
</svg>