<?xml version="1.0" encoding="UTF-8"?>
<svg width="40px" height="40px" viewBox="0 0 40 40" version="1.1" xmlns="http://www.w3.org/2000/svg" xmlns:xlink="http://www.w3.org/1999/xlink">
    <!-- Generator: Sketch 48.2 (47327) - http://www.bohemiancoding.com/sketch -->
    <title>icnt_outline_user04_light</title>
    <desc>Created with Sketch.</desc>
    <defs></defs>
    <g id="Symbols" stroke="none" stroke-width="1" fill="none" fill-rule="evenodd">
        <g id="icnt_outline_user04_light" fill="#000000">
            <g id="icnt_outline_user04" transform="translate(1.000000, 1.000000)">
                <g id="Layer_1">
                    <path d="M19,38 C8.52328125,38 0,29.4767188 0,19 C0,8.52328125 8.52328125,0 19,0 C29.4767187,0 38,8.52328125 38,19 C38,29.4767188 29.4767188,38 19,38 L19,38 Z M19,2.375 C9.83309375,2.375 2.375,9.83309375 2.375,19 C2.375,28.1672031 9.83309375,35.625 19,35.625 C28.1672031,35.625 35.625,28.1672031 35.625,19 C35.625,9.83309375 28.1672031,2.375 19,2.375 L19,2.375 Z" id="Shape"></path>
                    <g id="Group" transform="translate(10.687500, 11.578125)">
                        <circle id="Oval" cx="2.375" cy="2.59765625" r="2.375"></circle>
                        <circle id="Oval" cx="14.25" cy="2.59765625" r="2.375"></circle>
                    </g>
                    <path d="M19,30.7411094 C14.6745313,30.7411094 10.6402969,28.4127187 8.47221875,24.664375 C8.143875,24.09675 8.33773438,23.3702969 8.90535938,23.0419531 C9.4726875,22.7133125 10.1997344,22.9077656 10.5277813,23.4750938 C12.2731094,26.4919375 15.5194375,28.3661094 19,28.3661094 C22.4805625,28.3661094 25.7265938,26.4922344 27.4722188,23.4750938 C27.8005625,22.9074688 28.5270156,22.7133125 29.0946406,23.0419531 C29.6622656,23.37 29.856125,24.09675 29.5277813,24.664375 C27.3594063,28.4127187 23.3251719,30.7411094 19,30.7411094 L19,30.7411094 Z" id="Shape"></path>
                </g>
            </g>
        </g>
    </g>
</svg>