<?xml version="1.0" encoding="UTF-8"?>
<svg width="40px" height="40px" viewBox="0 0 40 40" version="1.1" xmlns="http://www.w3.org/2000/svg" xmlns:xlink="http://www.w3.org/1999/xlink">
    <!-- Generator: Sketch 48.2 (47327) - http://www.bohemiancoding.com/sketch -->
    <title>icnt_fill_user01_light</title>
    <desc>Created with Sketch.</desc>
    <defs></defs>
    <g id="Symbols" stroke="none" stroke-width="1" fill="none" fill-rule="evenodd">
        <g id="icnt_fill_user01_light" fill="#000000">
            <path d="M39,20 C39,25.5618182 36.5977091,30.5722909 32.7769818,34.0489455 L32.7956364,34.0648364 L32.1634545,34.5926909 C32.1005818,34.6458909 32.0314909,34.6908 31.9672364,34.7426182 C31.6777455,34.9782182 31.3799636,35.2034545 31.0766545,35.4217818 C30.9502182,35.5129818 30.8251636,35.6048727 30.6973455,35.6919273 C30.3422182,35.9351273 29.9767273,36.1638182 29.6050182,36.3828364 C29.5041455,36.4422545 29.4032727,36.5002909 29.3017091,36.5576364 C28.8933818,36.7877091 28.4767636,37.0039636 28.0504727,37.2043273 C27.9979636,37.2292 27.9447636,37.252 27.8922545,37.2761818 C26.4676,37.9297818 24.9489818,38.4113455 23.3619636,38.696 C23.3191273,38.7042909 23.2756,38.7118909 23.2327636,38.7194909 C22.7373818,38.8044727 22.2357818,38.8714909 21.7279636,38.9177818 C21.6637091,38.9233091 21.5994545,38.9267636 21.5352,38.9322909 C21.0280727,38.9730545 20.5174909,39 20,39 C19.4776727,39 18.9622545,38.9730545 18.4523636,38.9309091 C18.3894909,38.9253818 18.3273091,38.9219273 18.2651273,38.9164 C17.7531636,38.8701091 17.2474182,38.8010182 16.7472,38.7146545 C16.7043636,38.7070545 16.6622182,38.6994545 16.6200727,38.6918545 C15.0088727,38.4009818 13.4681455,37.9083636 12.0248364,37.2374909 C11.9923636,37.2222909 11.9592,37.2084727 11.9267273,37.1932727 C11.4838545,36.9846182 11.0513455,36.7573091 10.6278182,36.5161818 C10.5428364,36.4678182 10.4578545,36.4194545 10.3735636,36.3697091 C9.98665455,36.1410182 9.60803636,35.8998909 9.23909091,35.6456364 C9.12509091,35.5668727 9.01316364,35.4860364 8.90123636,35.4052 C8.55578182,35.1557818 8.21654545,34.8980727 7.88905455,34.6265455 C7.84898182,34.5933818 7.80545455,34.5657455 7.76538182,34.5318909 L7.14909091,34.0123273 L7.16705455,33.9964364 C3.37949091,30.5211636 1,25.5334909 1,20 C1,9.52374545 9.52374545,1 20,1 C30.4762545,1 39,9.52374545 39,20 Z M29.8166032,32.1605758 C29.5868697,32.3272968 29.3531978,32.4887667 29.116244,32.6430164 C29.0072847,32.7139056 28.8989817,32.7847948 28.7880532,32.8537149 C28.4782411,33.0453783 28.1631779,33.2278524 27.8415509,33.3985116 C27.7706617,33.4359254 27.6991161,33.47137 27.6275705,33.5081274 C26.8884847,33.8868596 26.1238001,34.2124249 25.3381113,34.4769467 C25.3105433,34.486136 25.2829752,34.4959817 25.2547508,34.5051711 C24.8431995,34.6416985 24.4263972,34.7631291 24.0050002,34.8674937 C24.0036874,34.8674937 24.0023746,34.8681501 24.0010619,34.8681501 C23.5757266,34.9731712 23.1451402,35.0604699 22.7119283,35.1320155 C22.7001135,35.1339847 22.6882986,35.1366102 22.6764837,35.1385794 C22.2688707,35.2048739 21.8579758,35.2527898 21.4457681,35.2888908 C21.3729098,35.2954546 21.3000514,35.3000492 21.2265367,35.3053003 C20.8189237,35.3361502 20.4093415,35.3558417 19.9977902,35.3558417 C19.5816443,35.3558417 19.1668111,35.3354939 18.753947,35.3046439 C18.6824014,35.2993929 18.6108558,35.2947982 18.5399666,35.2882344 C18.1238207,35.251477 17.7096438,35.2022484 17.2994053,35.1352975 C17.2810266,35.1320155 17.2626479,35.1287336 17.2442693,35.1254517 C16.3765327,34.9803914 15.5225802,34.7670674 14.6909447,34.4881052 C14.6653458,34.4795722 14.6390905,34.4703828 14.6134916,34.4618499 C14.2006276,34.3213842 13.7923582,34.1658218 13.391309,33.9938498 C13.3886835,33.992537 13.3854016,33.9912242 13.382776,33.9899115 C13.0033875,33.8264725 12.6312191,33.6453111 12.2636453,33.4543041 C12.2157295,33.4293616 12.1671572,33.4057318 12.1198978,33.3801329 C11.7844867,33.2009408 11.4562959,33.0073082 11.1326998,32.8051426 C11.0368681,32.7447555 10.9416927,32.683712 10.8471738,32.6220121 C10.5491765,32.4270668 10.2551175,32.2242449 9.96893512,32.0096081 C9.93939795,31.9872911 9.91117354,31.9636614 9.88163636,31.9413444 L9.944649,31.9058998 L15.1346587,29.0749257 C16.0273377,28.5878906 16.5819802,27.6538595 16.5819802,26.6371243 L16.5813238,24.2728376 L16.430356,24.0903635 C16.4159156,24.073954 14.9968185,22.3476703 14.4605547,20.0102953 L14.400824,19.7503681 L14.1769978,19.6053078 C13.8612783,19.4011731 13.6722404,19.0598546 13.6722404,18.6916245 L13.6722404,16.3647516 C13.6722404,16.0595341 13.8015475,15.7753209 14.0378449,15.5619969 L14.2544509,15.3663951 L14.2544509,11.7103494 L14.2485434,11.6243634 C14.2465743,11.6086102 14.0529417,10.0300124 15.1648522,8.76253942 C16.1139801,7.68082248 17.7404938,7.13143104 19.9977902,7.13143104 C22.2465538,7.13143104 23.8678164,7.67622781 24.8195698,8.75006817 C25.9301675,10.0044135 25.7483498,11.6125485 25.7470371,11.6256762 L25.7411296,15.3677079 L25.9577356,15.5633096 C26.1933766,15.7759773 26.3233401,16.0608469 26.3233401,16.3660644 L26.3233401,18.6929373 C26.3233401,19.1609374 26.004995,19.5856163 25.5481534,19.7267384 L25.2219317,19.8271648 L25.1169107,20.1520737 C24.7296455,21.3552212 24.1782849,22.4664754 23.4785821,23.4549861 C23.3066101,23.6978473 23.1392328,23.9131405 22.9954852,24.0778923 L22.8327026,24.2636483 L22.8327026,26.691604 C22.8327026,27.7496912 23.4208205,28.7014446 24.3673228,29.1740394 L29.9249062,31.9525029 C29.9603508,31.9702252 29.995139,31.9886039 30.0299273,32.0069825 C29.9596944,32.0601495 29.8874925,32.1093781 29.8166032,32.1605758 L29.8166032,32.1605758 Z" id="icnt_fill_user01"></path>
        </g>
    </g>
</svg>