<?xml version="1.0" encoding="UTF-8"?>
<svg width="40px" height="40px" viewBox="0 0 40 40" version="1.1" xmlns="http://www.w3.org/2000/svg" xmlns:xlink="http://www.w3.org/1999/xlink">
    <!-- Generator: Sketch 48.2 (47327) - http://www.bohemiancoding.com/sketch -->
    <title>icnt_fill_home03_dark</title>
    <desc>Created with Sketch.</desc>
    <defs></defs>
    <g id="Symbols" stroke="none" stroke-width="1" fill="none" fill-rule="evenodd">
        <g id="icnt_fill_home03_dark" fill="#FFFFFF">
            <path d="M24.7160423,38.3559322 L24.7160423,25.932468 C24.7160423,24.873533 23.8499943,24 22.78167,24 L17.9343723,24 C16.8675927,24 16,24.8651954 16,25.932468 L16,38.3559322 L6.80569156,38.3559322 C5.73880053,38.3559322 4.87391447,37.4954725 4.87391447,36.4243325 L4.87391447,17.632583 L2.97066519,17.632583 C1.90788325,17.632583 1.68308148,17.0539922 2.46914833,16.3397264 L18.7614392,1.53560904 C19.5472411,0.82158407 20.8210125,0.821343248 21.6070794,1.53560904 L37.8993703,16.3397264 C38.6851721,17.0537514 38.4508297,17.632583 37.3978534,17.632583 L36.1325352,17.632583 L36.1325352,36.4243325 C36.1325352,37.4911256 35.2638759,38.3559322 34.2007581,38.3559322 L24.7160423,38.3559322 Z" id="Combined-Shape"></path>
        </g>
    </g>
</svg>