<?xml version="1.0" encoding="UTF-8"?>
<svg width="40px" height="40px" viewBox="0 0 40 40" version="1.1" xmlns="http://www.w3.org/2000/svg" xmlns:xlink="http://www.w3.org/1999/xlink">
    <!-- Generator: Sketch 48.2 (47327) - http://www.bohemiancoding.com/sketch -->
    <title>icnt_fill_basket02_light</title>
    <desc>Created with Sketch.</desc>
    <defs></defs>
    <g id="Symbols" stroke="none" stroke-width="1" fill="none" fill-rule="evenodd">
        <g id="icnt_fill_basket02_light" fill="#000000">
            <g id="icnt_fill_basket02" transform="translate(1.000000, 8.000000)">
                <polygon id="Fill-30" points="15.7735849 21.710228 22.7426415 21.710228 22.7426415 17.4018259 15.7735849 17.4018259"></polygon>
                <polygon id="Fill-31" points="15.7735849 16.5846652 22.7426415 16.5846652 22.7426415 11.6012173 15.7735849 11.6012173"></polygon>
                <path d="M14.4701132,11.6012173 L3.58490566,11.6012173 C3.58490566,11.6693744 3.59135849,11.7375316 3.60498113,11.8049637 L6.80916981,28.1140999 C6.86867925,29.5591766 8.04954717,30.7149478 9.49211321,30.7149478 L29.1997736,30.7149478 C30.6430566,30.7149478 31.8232075,29.5577264 31.882,28.1126498 L35.0331321,11.8013383 C35.0460377,11.7353564 35.0524906,11.6686494 35.0524906,11.6012173 L24.130717,11.6012173 L14.4701132,11.6012173 Z" id="Fill-32"></path>
                <path d="M35.9745283,6.40532209 L25.1531321,6.40532209 L26.9441509,2.08894419 L34.1067925,2.08894419 C34.6767925,2.08894419 35.1392453,1.62127012 35.1392453,1.04410956 C35.1392453,0.467674072 34.6767925,0 34.1067925,0 L26.258,0 C25.841434,0 25.4664528,0.252326476 25.3058491,0.640242179 L22.914,6.40532209 L13.7488302,6.40532209 L11.3576981,0.640242179 C11.1978113,0.252326476 10.8221132,0 10.4062642,0 L2.55675472,0 C1.98675472,0 1.52430189,0.467674072 1.52430189,1.04410956 C1.52430189,1.62127012 1.98675472,2.08894419 2.55675472,2.08894419 L9.71939623,2.08894419 L11.5096981,6.40532209 L1.65264151,6.40532209 C0.739924528,6.40532209 0,7.15360061 0,8.07662246 C0,8.99964431 0.739924528,9.74792282 1.65264151,9.74792282 L35.9745283,9.74792282 C36.8872453,9.74792282 37.6271698,8.99964431 37.6271698,8.07662246 C37.6271698,7.15360061 36.8872453,6.40532209 35.9745283,6.40532209" id="Fill-33" stroke="#000000"></path>
            </g>
        </g>
    </g>
</svg>