<?xml version="1.0" encoding="UTF-8"?>
<svg width="40px" height="40px" viewBox="0 0 40 40" version="1.1" xmlns="http://www.w3.org/2000/svg" xmlns:xlink="http://www.w3.org/1999/xlink">
    <!-- Generator: Sketch 48.2 (47327) - http://www.bohemiancoding.com/sketch -->
    <title>icnt_outline_user01_light</title>
    <desc>Created with Sketch.</desc>
    <defs></defs>
    <g id="Symbols" stroke="none" stroke-width="1" fill="none" fill-rule="evenodd">
        <g id="icnt_outline_user01_light" fill="#000000">
            <path d="M20,19.9999804 C16.231944,19.9999804 13.1676229,16.9501769 13.1676229,13.1999726 C13.1676229,9.44976825 16.231944,6.39996474 20,6.39996474 C23.768056,6.39996474 26.8323771,9.44976825 26.8323771,13.1999726 C26.8323771,16.9501769 23.768056,19.9999804 20,19.9999804 M26.4190183,21.1440817 C29.1297639,18.9731792 30.7097511,15.4626752 30.1289991,11.6189708 C29.4543018,7.15986562 25.7272401,3.5915615 21.2281198,3.07136091 C15.0191971,2.35226008 9.75143434,7.16326562 9.75143434,13.1999726 C9.75143434,16.4129763 11.2477249,19.2757796 13.5809817,21.1440817 C7.84861732,23.2877842 3.66378635,28.32149 3.00787814,35.1146978 C2.91222486,36.119399 3.69965633,37 4.71426433,37 C5.58368431,37 6.32499723,36.3471992 6.40186147,35.4852983 C7.08680727,27.8981895 12.9233654,23.3999843 20,23.3999843 C27.0766346,23.3999843 32.9131927,27.8981895 33.5981385,35.4852983 C33.6750028,36.3471992 34.4163157,37 35.2857357,37 C36.3003437,37 37.0877751,36.119399 36.9921219,35.1146978 C36.3362137,28.32149 32.1513827,23.2877842 26.4190183,21.1440817" id="profile-[#1341]"></path>
        </g>
    </g>
</svg>