<?xml version="1.0" encoding="UTF-8"?>
<svg width="40px" height="40px" viewBox="0 0 40 40" version="1.1" xmlns="http://www.w3.org/2000/svg" xmlns:xlink="http://www.w3.org/1999/xlink">
    <!-- Generator: Sketch 52.5 (67469) - http://www.bohemiancoding.com/sketch -->
    <title>icnt_circle_addressbill</title>
    <desc>Created with Sketch.</desc>
    <g id="icnt_circle_addressbill" stroke="none" stroke-width="1" fill="none" fill-rule="evenodd">
        <circle id="Oval-Copy-2" fill="#FF5000" fill-rule="nonzero" cx="20" cy="20" r="20"></circle>
        <g id="1450808489_60" transform="translate(10.000000, 10.000000)" fill="#FFFFFF">
            <g id="Layer_1">
                <g id="Group">
                    <path d="M11.7916667,19.7916667 L0.625,19.7916667 C0.375,19.7916667 0.208333333,19.625 0.208333333,19.375 L0.208333333,6.16666667 C0.208333333,2.875 2.875,0.208333333 6.16666667,0.208333333 C9.5,0.208333333 12.1666667,2.875 12.1666667,6.16666667 L12.1666667,19.375 C12.2083333,19.625 12,19.7916667 11.7916667,19.7916667 L11.7916667,19.7916667 Z M1.04166667,18.9583333 L11.375,18.9583333 L11.375,6.16666667 C11.375,3.33333333 9.08333333,1.04166667 6.25,1.04166667 C3.33333333,1.04166667 1.04166667,3.33333333 1.04166667,6.16666667 L1.04166667,18.9583333 L1.04166667,18.9583333 Z" id="Shape" stroke="#FFFFFF"></path>
                    <path d="M19.375,19.7916667 L11.7916667,19.7916667 C11.5416667,19.7916667 11.375,19.625 11.375,19.375 C11.375,19.125 11.5416667,18.9583333 11.7916667,18.9583333 L18.9583333,18.9583333 L18.9583333,6.20833333 C18.9583333,3.375 16.6666667,1.04166667 13.8333333,1.04166667 L13.6666667,1.04166667 L13.5833333,1.04166667 L6.08333333,1.04166667 C5.83333333,1.04166667 5.66666667,0.875 5.66666667,0.625 C5.66666667,0.375 5.83333333,0.208333333 6.08333333,0.208333333 L13.6666667,0.208333333 L13.7083333,0.208333333 L13.75,0.208333333 L13.8333333,0.208333333 C17.125,0.208333333 19.7916667,2.91666667 19.7916667,6.20833333 L19.7916667,19.375 C19.7916667,19.625 19.625,19.7916667 19.375,19.7916667 L19.375,19.7916667 Z" id="Shape" stroke="#FFFFFF"></path>
                    <path d="M9.75,7.66666667 L2.66666667,7.66666667 L2.66666667,4.41666667 L9.75,4.41666667 L9.75,7.66666667 L9.75,7.66666667 Z M3.5,6.83333333 L8.91666667,6.83333333 L8.91666667,5.25 L3.5,5.25 L3.5,6.83333333 L3.5,6.83333333 Z" id="Shape"></path>
                    <path d="M9.75,17.8333333 L2.66666667,17.8333333 L2.66666667,11.6666667 L9.75,11.6666667 L9.75,17.8333333 L9.75,17.8333333 Z M3.5,17 L8.91666667,17 L8.91666667,12.5 L3.5,12.5 L3.5,17 L3.5,17 Z" id="Shape"></path>
                </g>
            </g>
        </g>
    </g>
</svg>