<?xml version="1.0" encoding="UTF-8"?>
<svg width="40px" height="40px" viewBox="0 0 40 40" version="1.1" xmlns="http://www.w3.org/2000/svg" xmlns:xlink="http://www.w3.org/1999/xlink">
    <!-- Generator: Sketch 48.2 (47327) - http://www.bohemiancoding.com/sketch -->
    <title>icnt_outline_home03_light</title>
    <desc>Created with Sketch.</desc>
    <defs></defs>
    <g id="Symbols" stroke="none" stroke-width="1" fill="none" fill-rule="evenodd">
        <g id="icnt_outline_home03_light" stroke="#000000" stroke-width="2.4">
            <g id="Group-26" transform="translate(2.000000, 1.000000)">
                <g id="Group-25">
                    <g id="Group-24-Copy">
                        <path d="M35.5284287,16.4625649 C35.5285,16.4627183 35.5285714,16.4628717 35.5286428,16.463025 C35.5288166,16.4633979 35.5271542,16.461422 35.5235961,16.4573282 Z M34.532908,15.5457627 L19.1158233,1.53690829 C18.7875132,1.23858674 18.2124498,1.23862036 17.8841767,1.53690829 L2.46709196,15.5457627 L4.38965517,15.5457627 L4.38965517,35.5375123 C4.38965517,35.9439663 4.71533698,36.2691119 5.12143226,36.2691119 L32.5164988,36.2691119 C32.9185646,36.2691119 33.2482759,35.9398752 33.2482759,35.5375123 L33.2482759,15.5457627 L34.532908,15.5457627 Z M1.10853088,15.535613 C1.10818617,15.5354694 1.1078416,15.5353265 1.10749716,15.5351841 C1.10765774,15.5352505 1.11074173,15.5357815 1.11663441,15.5365734 Z" id="Combined-Shape"></path>
                    </g>
                </g>
                <path d="M14.7482759,27.0504755 C14.7482759,25.3235936 16.1547416,23.9186441 17.8760439,23.9186441 L19.7618872,23.9186441 C21.4917568,23.9186441 22.8896552,25.3157025 22.8896552,27.0504755 L22.8896552,35.979661 L14.7482759,35.979661 L14.7482759,27.0504755 Z" id="Rectangle-12"></path>
            </g>
        </g>
    </g>
</svg>