<?xml version="1.0" encoding="UTF-8"?>
<svg width="40px" height="40px" viewBox="0 0 40 40" version="1.1" xmlns="http://www.w3.org/2000/svg" xmlns:xlink="http://www.w3.org/1999/xlink">
    <!-- Generator: Sketch 48.2 (47327) - http://www.bohemiancoding.com/sketch -->
    <title>icnt_fill_cart02_dark</title>
    <desc>Created with Sketch.</desc>
    <defs></defs>
    <g id="Symbols" stroke="none" stroke-width="1" fill="none" fill-rule="evenodd">
        <g id="icnt_fill_cart02_dark" fill="#FFFFFF">
            <g id="1485288526_shopping-cart" transform="translate(1.000000, 7.000000)">
                <path d="M14.6153846,29.0909091 C14.6153846,29.8787879 14.3261218,30.5606061 13.7475962,31.1363636 C13.1690705,31.7121212 12.4839744,32 11.6923077,32 C10.900641,32 10.2155449,31.7121212 9.63701923,31.1363636 C9.05849359,30.5606061 8.76923077,29.8787879 8.76923077,29.0909091 C8.76923077,28.3030303 9.05849359,27.6212121 9.63701923,27.0454545 C10.2155449,26.469697 10.900641,26.1818182 11.6923077,26.1818182 C12.4839744,26.1818182 13.1690705,26.469697 13.7475962,27.0454545 C14.3261218,27.6212121 14.6153846,28.3030303 14.6153846,29.0909091 Z M35.0769231,29.0909091 C35.0769231,29.8787879 34.7876603,30.5606061 34.2091346,31.1363636 C33.630609,31.7121212 32.9455128,32 32.1538462,32 C31.3621795,32 30.6770833,31.7121212 30.0985577,31.1363636 C29.5200321,30.5606061 29.2307692,29.8787879 29.2307692,29.0909091 C29.2307692,28.3030303 29.5200321,27.6212121 30.0985577,27.0454545 C30.6770833,26.469697 31.3621795,26.1818182 32.1538462,26.1818182 C32.9455128,26.1818182 33.630609,26.469697 34.2091346,27.0454545 C34.7876603,27.6212121 35.0769231,28.3030303 35.0769231,29.0909091 Z M38,4.36363636 L38,16 C38,16.3636364 37.874399,16.6856061 37.6231971,16.9659091 C37.3719952,17.2462121 37.0637019,17.4090909 36.6983173,17.4545455 L12.8569712,20.2272727 C13.0548878,21.1363636 13.1538462,21.6666667 13.1538462,21.8181818 C13.1538462,22.0606061 12.9711538,22.5454545 12.6057692,23.2727273 L33.6153846,23.2727273 C34.0112179,23.2727273 34.353766,23.4166667 34.6430288,23.7045455 C34.9322917,23.9924242 35.0769231,24.3333333 35.0769231,24.7272727 C35.0769231,25.1212121 34.9322917,25.4621212 34.6430288,25.75 C34.353766,26.0378788 34.0112179,26.1818182 33.6153846,26.1818182 L10.2307692,26.1818182 C9.8349359,26.1818182 9.49238782,26.0378788 9.203125,25.75 C8.91386218,25.4621212 8.76923077,25.1212121 8.76923077,24.7272727 C8.76923077,24.5606061 8.83012821,24.3219697 8.95192308,24.0113636 C9.07371795,23.7007576 9.19551282,23.4280303 9.31730769,23.1931818 C9.43910256,22.9583333 9.60276442,22.655303 9.80829327,22.2840909 C10.0138221,21.9128788 10.1318109,21.6893939 10.1622596,21.6136364 L6.12019231,2.90909091 L1.46153846,2.90909091 C1.06570513,2.90909091 0.723157051,2.76515152 0.433894231,2.47727273 C0.14463141,2.18939394 0,1.84848485 0,1.45454545 C0,1.06060606 0.14463141,0.71969697 0.433894231,0.431818182 C0.723157051,0.143939394 1.06570513,0 1.46153846,0 L7.30769231,0 C7.55128205,0 7.76822917,0.0492424242 7.95853365,0.147727273 C8.14883814,0.246212121 8.29727564,0.363636364 8.40384615,0.5 C8.51041667,0.636363636 8.609375,0.821969697 8.70072115,1.05681818 C8.79206731,1.29166667 8.85296474,1.48863636 8.88341346,1.64772727 C8.91386218,1.80681818 8.95572917,2.03030303 9.00901442,2.31818182 C9.06229968,2.60606061 9.09655449,2.8030303 9.11177885,2.90909091 L36.5384615,2.90909091 C36.9342949,2.90909091 37.2768429,3.0530303 37.5661058,3.34090909 C37.8553686,3.62878788 38,3.96969697 38,4.36363636 Z" id="Shape"></path>
            </g>
        </g>
    </g>
</svg>