<?xml version="1.0" encoding="UTF-8"?>
<svg width="40px" height="40px" viewBox="0 0 40 40" version="1.1" xmlns="http://www.w3.org/2000/svg" xmlns:xlink="http://www.w3.org/1999/xlink">
    <!-- Generator: Sketch 48.2 (47327) - http://www.bohemiancoding.com/sketch -->
    <title>icnt_fill_user02_light</title>
    <desc>Created with Sketch.</desc>
    <defs></defs>
    <g id="Symbols" stroke="none" stroke-width="1" fill="none" fill-rule="evenodd">
        <g id="icnt_fill_user02_light" fill="#000000">
            <g id="1485286642_gender-female" transform="translate(2.000000, 1.000000)">
                <g id="Layer_1">
                    <path d="M18.3491643,37.7052417 L1.49238206,37.7052417 C0.309873993,37.7052417 0.0180514125,37.3924045 0.00193850928,36.2017379 C-0.0138760068,35.0832417 -0.0320776197,32.7113348 4.27454335,30.1859549 C9.26327722,27.2599549 13.1578256,27.0131022 13.670753,23.834358 C13.8327772,22.8339859 13.8676885,22.3835828 13.8396401,21.3976448 C13.7913014,21.3522805 12.3742611,21.7755828 10.5009869,21.7755828 C8.6277127,21.7755828 6.79680948,20.8285286 6.79680948,20.8285286 C6.79680948,20.8285286 7.56485786,20.2829782 8.20191432,18.7187921 C9.52138206,15.2345751 9.20777722,12.8296758 9.22239819,9.39023398 C9.2382127,5.97052856 10.4344466,3.49286964 11.7813659,2.20116422 C13.3663982,0.682047936 15.7224627,-0.686541211 18.3497611,0.377753363 C20.9770595,-0.686246637 23.333124,0.68234251 24.9178579,2.20145879 C26.2647772,3.49345879 27.4610111,5.97082313 27.4768256,9.39052856 C27.4914466,12.8299704 27.1778417,15.2348696 28.4973095,18.7190867 C29.1343659,20.2835673 29.9024143,20.8288231 29.9024143,20.8288231 C29.9024143,20.8288231 28.0715111,21.7758774 26.1982369,21.7758774 C24.3252611,21.7758774 22.9079224,21.3522805 22.8595837,21.3979394 C22.8315353,22.3835828 22.8664466,22.8345751 23.0284708,23.8346526 C23.5413982,27.0131022 27.4359466,27.2602495 32.4249788,30.1862495 C36.7315998,32.7116293 36.7133982,35.0835363 36.6975837,36.2020324 C36.6811724,37.3924045 36.3896482,37.7055363 35.2071401,37.7055363 L18.3503579,37.7055363" id="Shape"></path>
                </g>
            </g>
        </g>
    </g>
</svg>