<?xml version="1.0" encoding="UTF-8"?>
<svg width="40px" height="40px" viewBox="0 0 40 40" version="1.1" xmlns="http://www.w3.org/2000/svg" xmlns:xlink="http://www.w3.org/1999/xlink">
    <!-- Generator: Sketch 48.2 (47327) - http://www.bohemiancoding.com/sketch -->
    <title>icnt_fill_search01_dark</title>
    <desc>Created with Sketch.</desc>
    <defs></defs>
    <g id="Symbols" stroke="none" stroke-width="1" fill="none" fill-rule="evenodd">
        <g id="icnt_fill_search01_dark" fill="#FFFFFF">
            <g transform="translate(1.000000, 1.000000)" id="icnt_fill_search01">
                <path d="M30.5396049,27.0378261 C32.6419391,24.2167391 33.8851662,20.7223913 33.8851662,16.9430435 C33.8851662,7.6 26.2853727,0 16.9425831,0 C7.59979348,0 0,7.6 0,16.9430435 C0,26.286087 7.59979348,33.886087 16.9425831,33.886087 C20.7218282,33.886087 24.2160811,32.6428261 27.0370914,30.5404348 L33.7695171,37.2730435 C34.2527649,37.7563043 34.8847042,38 35.5207739,38 C36.1568436,38 36.7887829,37.7563043 37.2720307,37.2730435 C38.2426564,36.3065217 38.2426564,34.7369565 37.2720307,33.7704348 L30.5396049,27.0378261 Z M4.09047139,16.9430435 C4.09047139,9.85691753 9.85664969,4.09058254 16.9425831,4.09058254 C24.0285165,4.09058254 29.7946948,9.85691753 29.7946948,16.9430435 C29.7946948,24.0291694 24.0285165,29.7955044 16.9425831,29.7955044 C9.85664969,29.7955044 4.09047139,24.0291694 4.09047139,16.9430435 Z"></path>
            </g>
        </g>
    </g>
</svg>