<?xml version="1.0" encoding="UTF-8"?>
<svg width="40px" height="40px" viewBox="0 0 40 40" version="1.1" xmlns="http://www.w3.org/2000/svg" xmlns:xlink="http://www.w3.org/1999/xlink">
    <!-- Generator: Sketch 48.2 (47327) - http://www.bohemiancoding.com/sketch -->
    <title>icnt_fill_user04_dark</title>
    <desc>Created with Sketch.</desc>
    <defs></defs>
    <g id="Symbols" stroke="none" stroke-width="1" fill="none" fill-rule="evenodd">
        <g id="icnt_fill_user04_dark" fill="#FFFFFF">
            <g transform="translate(1.000000, 1.000000)" id="icnt_fill_user04">
                <g>
                    <g id="Layer_1">
                        <path d="M18.9968148,0.0447407407 C8.51992593,0.0447407407 0.0338518519,8.53318519 0.0338518519,19.01 C0.0338518519,29.4822222 8.52,37.9706667 18.9968148,37.9706667 C29.469037,37.9706667 37.9597778,29.4822222 37.9597778,19.01 C37.9597778,8.53311111 29.469037,0.0447407407 18.9968148,0.0447407407 L18.9968148,0.0447407407 Z M28.3301481,24.016963 C27.1264444,28.0887407 23.2884444,30.9359259 18.9968148,30.9359259 C14.7051852,30.9359259 10.8625185,28.0886667 9.66348148,24.016963 C9.50140741,23.472963 9.8162963,22.9011852 10.3718519,22.7414815 C10.9274074,22.5771111 11.5014815,22.8988889 11.6635556,23.4405926 C12.608,26.642 15.6219259,28.8780741 18.9968889,28.8780741 C22.3672593,28.8780741 25.3857778,26.6419259 26.3302222,23.4405926 C26.4922963,22.8988889 27.070963,22.5771852 27.6219259,22.7414815 C28.1727407,22.9011852 28.4922222,23.472963 28.3301481,24.016963 L28.3301481,24.016963 Z M16.2838519,14.0585926 C16.2838519,16.047037 15.0754815,17.6534815 13.5754815,17.6534815 C12.0800741,17.6534815 10.8671111,16.046963 10.8671111,14.0585926 C10.8671111,12.0748148 12.0800741,10.4637037 13.5754815,10.4637037 C15.0755556,10.4637037 16.2838519,12.0748148 16.2838519,14.0585926 L16.2838519,14.0585926 Z M21.7051852,14.0585926 C21.7051852,12.0748148 22.9135556,10.4637037 24.4135556,10.4637037 C25.908963,10.4637037 27.1219259,12.0748148 27.1219259,14.0585926 C27.1219259,16.047037 25.908963,17.6534815 24.4135556,17.6534815 C22.9134815,17.6534815 21.7051852,16.047037 21.7051852,14.0585926 L21.7051852,14.0585926 Z" id="Shape"></path>
                    </g>
                </g>
            </g>
        </g>
    </g>
</svg>