<?xml version="1.0" encoding="UTF-8"?>
<svg width="60px" height="60px" viewBox="0 0 60 60" version="1.1" xmlns="http://www.w3.org/2000/svg" xmlns:xlink="http://www.w3.org/1999/xlink">
    <!-- Generator: Sketch 48.2 (47327) - http://www.bohemiancoding.com/sketch -->
    <title>icnt_fill_cartbig01_dark</title>
    <desc>Created with Sketch.</desc>
    <defs></defs>
    <g id="Symbols" stroke="none" stroke-width="1" fill="none" fill-rule="evenodd">
        <g id="icnt_fill_cartbig01_dark">
            <g id="icnt_outline_topbig01_light">
                <g>
                    <g id="icnt_outline_backbig01_light" fill="#000000" fill-opacity="0.8" opacity="0.800000012">
                        <g id="icnt_outline_backbig01_dark">
                            <g id="icnt_fill_back01_light">
                                <circle id="Oval" cx="30" cy="30" r="30"></circle>
                            </g>
                        </g>
                    </g>
                    <g id="1485288526_shopping-cart" transform="translate(13.000000, 17.000000)" fill="#FFFFFF">
                        <path d="M12.6923077,25.4545455 C12.6923077,26.1439394 12.4411058,26.7405303 11.9387019,27.2443182 C11.4362981,27.7481061 10.8413462,28 10.1538462,28 C9.46634615,28 8.87139423,27.7481061 8.36899038,27.2443182 C7.86658654,26.7405303 7.61538462,26.1439394 7.61538462,25.4545455 C7.61538462,24.7651515 7.86658654,24.1685606 8.36899038,23.6647727 C8.87139423,23.1609848 9.46634615,22.9090909 10.1538462,22.9090909 C10.8413462,22.9090909 11.4362981,23.1609848 11.9387019,23.6647727 C12.4411058,24.1685606 12.6923077,24.7651515 12.6923077,25.4545455 Z M30.4615385,25.4545455 C30.4615385,26.1439394 30.2103365,26.7405303 29.7079327,27.2443182 C29.2055288,27.7481061 28.6105769,28 27.9230769,28 C27.2355769,28 26.640625,27.7481061 26.1382212,27.2443182 C25.6358173,26.7405303 25.3846154,26.1439394 25.3846154,25.4545455 C25.3846154,24.7651515 25.6358173,24.1685606 26.1382212,23.6647727 C26.640625,23.1609848 27.2355769,22.9090909 27.9230769,22.9090909 C28.6105769,22.9090909 29.2055288,23.1609848 29.7079327,23.6647727 C30.2103365,24.1685606 30.4615385,24.7651515 30.4615385,25.4545455 Z M33,3.81818182 L33,14 C33,14.3181818 32.8909255,14.5999053 32.6727764,14.8451705 C32.4546274,15.0904356 32.186899,15.2329545 31.8695913,15.2727273 L11.1652644,17.6988636 C11.3371394,18.4943182 11.4230769,18.9583333 11.4230769,19.0909091 C11.4230769,19.3030303 11.2644231,19.7272727 10.9471154,20.3636364 L29.1923077,20.3636364 C29.5360577,20.3636364 29.8335337,20.4895833 30.0847356,20.7414773 C30.3359375,20.9933712 30.4615385,21.2916667 30.4615385,21.6363636 C30.4615385,21.9810606 30.3359375,22.2793561 30.0847356,22.53125 C29.8335337,22.7831439 29.5360577,22.9090909 29.1923077,22.9090909 L8.88461538,22.9090909 C8.54086538,22.9090909 8.24338942,22.7831439 7.9921875,22.53125 C7.74098558,22.2793561 7.61538462,21.9810606 7.61538462,21.6363636 C7.61538462,21.4905303 7.66826923,21.2817235 7.77403846,21.0099432 C7.87980769,20.7381629 7.98557692,20.4995265 8.09134615,20.2940341 C8.19711538,20.0885417 8.33924279,19.8233902 8.51772837,19.4985795 C8.69621394,19.1737689 8.79867788,18.9782197 8.82512019,18.9119318 L5.31490385,2.54545455 L1.26923077,2.54545455 C0.925480769,2.54545455 0.628004808,2.41950758 0.376802885,2.16761364 C0.125600962,1.9157197 0,1.61742424 0,1.27272727 C0,0.928030303 0.125600962,0.629734848 0.376802885,0.377840909 C0.628004808,0.12594697 0.925480769,0 1.26923077,0 L6.34615385,0 C6.55769231,0 6.74609375,0.0430871212 6.91135817,0.129261364 C7.0766226,0.215435606 7.20552885,0.318181818 7.29807692,0.4375 C7.390625,0.556818182 7.4765625,0.719223485 7.55588942,0.924715909 C7.63521635,1.13020833 7.68810096,1.30255682 7.71454327,1.44176136 C7.74098558,1.58096591 7.77734375,1.77651515 7.82361779,2.02840909 C7.86989183,2.28030303 7.89963942,2.45265152 7.91286058,2.54545455 L31.7307692,2.54545455 C32.0745192,2.54545455 32.3719952,2.67140152 32.6231971,2.92329545 C32.874399,3.17518939 33,3.47348485 33,3.81818182 Z" id="Shape"></path>
                    </g>
                </g>
            </g>
        </g>
    </g>
</svg>