<?xml version="1.0" encoding="UTF-8"?>
<svg width="40px" height="40px" viewBox="0 0 40 40" version="1.1" xmlns="http://www.w3.org/2000/svg" xmlns:xlink="http://www.w3.org/1999/xlink">
    <!-- Generator: Sketch 48.2 (47327) - http://www.bohemiancoding.com/sketch -->
    <title>icnt_fill_cart03_dark</title>
    <desc>Created with Sketch.</desc>
    <defs></defs>
    <g id="Symbols" stroke="none" stroke-width="1" fill="none" fill-rule="evenodd">
        <g id="icnt_fill_cart03_dark" fill="#FFFFFF" fill-rule="nonzero">
            <g id="1497814293_shopping-cart" transform="translate(2.000000, 3.000000)">
                <path d="M36.5364,4.42944444 C36.1735,4.01577778 35.651,3.77777778 35.1,3.77777778 L8.8439,3.77777778 L8.4734,1.57911111 C8.3214,0.668666667 7.5291,0 6.6,0 L2.325,0 C1.2743,0 0.425,0.844333333 0.425,1.88888889 C0.425,2.93344444 1.2743,3.77777778 2.325,3.77777778 L4.9907,3.77777778 L8.5247,24.8653333 C8.5399,24.9503333 8.5836,25.0202222 8.6102,25.0995556 C8.6406,25.1996667 8.6653,25.2941111 8.7128,25.3847778 C8.7736,25.5094444 8.8553,25.6152222 8.9408,25.7228889 C8.9997,25.7965556 9.0529,25.8702222 9.1213,25.9344444 C9.2315,26.0364444 9.3588,26.1082222 9.488,26.18 C9.5602,26.2196667 9.6229,26.2725556 9.7008,26.3027778 C9.9212,26.3915556 10.153,26.4444444 10.3981,26.4444444 C10.4,26.4444444 31.3,26.4444444 31.3,26.4444444 C32.3507,26.4444444 33.2,25.6001111 33.2,24.5555556 C33.2,23.511 32.3507,22.6666667 31.3,22.6666667 L12.0093,22.6666667 L11.6939,20.7777778 L33.2,20.7777778 C34.1462,20.7777778 34.948,20.0864444 35.081,19.1571111 L36.981,5.93488889 C37.0589,5.39088889 36.8955,4.84122222 36.5364,4.42944444 Z M32.9093,7.55555556 L32.3678,11.3333333 L25.6,11.3333333 L25.6,7.55555556 L32.9093,7.55555556 Z M23.7,7.55555556 L23.7,11.3333333 L18,11.3333333 L18,7.55555556 L23.7,7.55555556 Z M23.7,13.2222222 L23.7,17 L18,17 L18,13.2222222 L23.7,13.2222222 Z M16.1,7.55555556 L16.1,11.3333333 L10.4,11.3333333 C10.2993,11.3333333 10.2081,11.3616667 10.1188,11.39 L9.4766,7.55555556 L16.1,7.55555556 Z M10.4266,13.2222222 L16.1,13.2222222 L16.1,17 L11.0593,17 L10.4266,13.2222222 Z M25.6,17 L25.6,13.2222222 L32.0942,13.2222222 L31.5527,17 L25.6,17 Z" id="Shape"></path>
                <ellipse id="Oval" cx="13.25" cy="31.1666667" rx="2.85" ry="2.83333333"></ellipse>
                <ellipse id="Oval" cx="30.35" cy="31.1666667" rx="2.85" ry="2.83333333"></ellipse>
            </g>
        </g>
    </g>
</svg>