<?xml version="1.0" encoding="UTF-8"?>
<svg width="60px" height="60px" viewBox="0 0 60 60" version="1.1" xmlns="http://www.w3.org/2000/svg" xmlns:xlink="http://www.w3.org/1999/xlink">
    <!-- Generator: Sketch 51.2 (57519) - http://www.bohemiancoding.com/sketch -->
    <title>icnt_fill_www01_ccolor1</title>
    <desc>Created with Sketch.</desc>
    <defs></defs>
    <g id="icon-share" stroke="none" stroke-width="1" fill="none" fill-rule="evenodd">
        <g id="icon-share-dark" transform="translate(-618.000000, -46.000000)">
            <g id="icnt_fill_www01_ccolor1" transform="translate(618.000000, 46.000000)">
                <g id="icnt_fill_www01_grey2">
                    <g>
                        <g id="icnt_fill_wechat01_grey2">
                            <circle id="Oval-1-Copy-59" fill="#00A44B" cx="30" cy="30" r="30"></circle>
                            <path d="M17.7891841,40.358 C20.1419193,43.11 23.4129415,45.059 27.1301032,45.73 C26.4198812,43.67 25.7036574,41.09 25.129478,38.483 C22.5686777,38.94 19.9428571,39.645 17.7891841,40.358 L17.7891841,40.358 Z M24.7043451,36.387 C24.3472335,34.464 24.1011566,32.61 24.0221319,31 L14,31 C14.1720538,33.742 15.0393248,36.293 16.4247577,38.488 L17.8131916,38 C19.9348546,37.253 22.2615817,36.721 24.7043451,36.387 L24.7043451,36.387 Z M30,37.976 C29.1017193,37.976 28.1144108,38.061 27.0990935,38.187 C27.7653017,41.071 28.6535792,43.887 29.5408565,45.977 C29.6949047,45.981 29.8449515,46 30,46 C30.1550485,46 30.3050953,45.981 30.4591435,45.977 C31.3464208,43.887 32.2346983,41.071 32.9009065,38.187 C31.8855892,38.061 30.8982807,37.976 30,37.976 L30,37.976 Z M24.7043451,23.613 C22.2615817,23.279 19.9348546,22.747 17.8131916,22 L16.4247577,21.512 C15.0393248,23.707 14.1720538,26.258 14,29 L24.0221319,29 C24.1011566,27.39 24.3472335,25.536 24.7043451,23.613 L24.7043451,23.613 Z M32.8698968,45.73 C36.5870585,45.059 39.8580807,43.11 42.2108159,40.358 C40.0571429,39.645 37.4313223,38.94 34.870522,38.483 C34.2963426,41.09 33.5801188,43.67 32.8698968,45.73 L32.8698968,45.73 Z M35.2956549,36.387 C37.7384183,36.721 40.0651454,37.253 42.1868084,38 L43.5762426,38.488 C44.9606752,36.293 45.8279462,33.742 46,31 L35.9778681,31 C35.8988434,32.61 35.6527665,34.464 35.2956549,36.387 L35.2956549,36.387 Z M42.3978743,19.872 C40.032135,17 36.6890903,14.96 32.8698968,14.271 C33.58412,16.344 34.3063457,18.942 34.8815255,21.565 C37.4443264,21.158 40.1641763,20.528 42.3978743,19.872 L42.3978743,19.872 Z M35.2956549,23.613 C35.6527665,25.536 35.8988434,27.39 35.9778681,29 L46,29 C45.8279462,26.258 44.9606752,23.707 43.5762426,21.512 L42.1868084,22 C40.0651454,22.747 37.7384183,23.279 35.2956549,23.613 L35.2956549,23.613 Z M30,22.024 C30.870272,22.024 31.8585808,21.955 32.9059081,21.836 C32.2386996,18.943 31.3484214,16.118 30.4591435,14.023 C30.3050953,14.019 30.1550485,14 30,14 C29.8449515,14 29.6949047,14.019 29.5408565,14.023 C28.6535792,16.113 27.7653017,18.929 27.0990935,21.814 C28.1144108,21.939 29.1017193,22.024 30,22.024 L30,22.024 Z M27.1301032,14.271 C23.4129415,14.941 20.1419193,16.89 17.7891841,19.642 C19.9428571,20.355 22.5686777,21.06 25.129478,21.517 C25.7036574,18.91 26.4198812,16.33 27.1301032,14.271 L27.1301032,14.271 Z M26.668959,36.143 C27.7592998,36.05 28.8696468,36 30,36 C31.1303532,36 32.2407002,36.05 33.331041,36.143 C33.6751485,34.338 33.9022194,32.577 33.9762426,31 L26.0247577,31 C26.0977806,32.577 26.3258518,34.338 26.668959,36.143 L26.668959,36.143 Z M33.331041,23.857 C32.2407002,23.95 31.1303532,24 30,24 C28.8696468,24 27.7592998,23.95 26.668959,23.857 C26.3258518,25.663 26.0977806,27.423 26.0247577,29 L33.9762426,29 C33.9022194,27.423 33.6751485,25.663 33.331041,23.857 L33.331041,23.857 Z" id="Fill-110" fill="#FFFFFF"></path>
                        </g>
                    </g>
                </g>
            </g>
        </g>
    </g>
</svg>