<?xml version="1.0" encoding="UTF-8"?>
<svg width="40px" height="40px" viewBox="0 0 40 40" version="1.1" xmlns="http://www.w3.org/2000/svg" xmlns:xlink="http://www.w3.org/1999/xlink">
    <!-- Generator: Sketch 48.2 (47327) - http://www.bohemiancoding.com/sketch -->
    <title>icnt_outline_cart04_light</title>
    <desc>Created with Sketch.</desc>
    <defs></defs>
    <g id="Symbols" stroke="none" stroke-width="1" fill="none" fill-rule="evenodd">
        <g id="icnt_outline_cart04_light" fill="#000000">
            <path d="M38.0000196,0 L32.0000782,0 L32.0000782,0 C29.7900999,0 28.0001174,1.79 28.0001174,4 L28.0001174,24 L8.000313,24 L8.000313,13.996 C8.000313,12.894 8.89430425,12 9.99629347,12 L18.0002152,12 C19.1042044,12 20.0001956,11.104 20.0001956,10 C20.0001956,8.896 19.1042044,8 18.0002152,8 L8.000313,8 C5.79033461,8 4.00035212,9.79 4.00035212,12 L4.00035212,28.368 C1.32637827,29.318 -0.487603983,32.082 0.11639011,35.2 C0.57438563,37.554 2.51436665,39.468 4.87234359,39.898 C5.25433985,39.966 5.63033618,40 6.00033256,40 C9.31430014,40 12.0002739,37.314 12.0002739,34 C12.0002739,31.392 10.3262902,29.194 8.000313,28.368 L8.000313,28 L28.0001174,28 L28.0001174,28.368 C25.3261435,29.318 23.5121613,32.082 24.1161554,35.2 C24.5741509,37.554 26.5141319,39.468 28.8721088,39.898 C29.2541051,39.966 29.6301014,40 30.0000978,40 C33.3140654,40 36.0000391,37.314 36.0000391,34 C36.0000391,31.392 34.3260555,29.194 32.0000782,28.368 L32.0000782,5.996 C32.0000782,4.894 32.8940695,4 33.9960587,4 L38.0000196,4 C39.1040088,4 40,3.104 40,2 C40,0.896 39.1040088,0 38.0000196,0 M6.00033256,31.902 L6.6603261,32.136 C7.32831957,32.374 8.000313,33.042 8.000313,34 C8.000313,35.102 7.10232178,36 6.00033256,36 C5.86633387,36 5.72833522,35.988 5.58833659,35.962 C4.85034381,35.828 4.1863503,35.172 4.04435169,34.438 C3.81435394,33.254 4.5543467,32.416 5.34033901,32.136 L6.00033256,31.902 M30.0000978,31.902 L30.6600914,32.136 C31.3280848,32.374 32.0000782,33.042 32.0000782,34 C32.0000782,35.102 31.102087,36 30.0000978,36 C29.8660991,36 29.7281005,35.988 29.5881018,35.962 C28.8501091,35.828 28.1861156,35.172 28.0441169,34.438 C27.8141192,33.254 28.554112,32.416 29.3401043,32.136 L30.0000978,31.902"></path>
        </g>
    </g>
</svg>