<?xml version="1.0" encoding="UTF-8"?>
<svg width="61px" height="60px" viewBox="0 0 61 60" version="1.1" xmlns="http://www.w3.org/2000/svg" xmlns:xlink="http://www.w3.org/1999/xlink">
    <!-- Generator: Sketch 51.2 (57519) - http://www.bohemiancoding.com/sketch -->
    <title>icnt_fill_youtube01_ccolor1</title>
    <desc>Created with Sketch.</desc>
    <defs></defs>
    <g id="icon-share" stroke="none" stroke-width="1" fill="none" fill-rule="evenodd">
        <g id="icon-share-dark" transform="translate(-370.000000, -46.000000)">
            <g id="icnt_fill_youtube01_ccolor1" transform="translate(370.000000, 46.000000)">
                <g id="icnt_fill_youtube01_grey2">
                    <g>
                        <path d="M0,30 C0,13.4314567 13.4508663,0 30.0433526,0 C46.6358389,0 60.0867052,13.4314567 60.0867052,30 C60.0867052,46.5685433 46.6358389,60 30.0433526,60 C13.4508663,60 0,46.5685433 0,30 Z" id="back" fill="#00A44B"></path>
                        <g id="Group" transform="translate(14.000000, 19.000000)">
                            <path d="M31.68,4.96134536 C31.68,4.96134536 31.367,2.70804639 30.408,1.71577731 C29.191,0.412849336 27.827,0.40671791 27.202,0.331096992 C22.724,0 16.007,0 16.007,0 L15.993,0 C15.993,0 9.276,0 4.798,0.331096992 C4.172,0.40671791 2.809,0.412849336 1.591,1.71577731 C0.632,2.70804639 0.32,4.96134536 0.32,4.96134536 C0.32,4.96134536 0,7.60807749 0,10.2537877 L0,12.7349713 C0,15.3817035 0.32,18.0274137 0.32,18.0274137 C0.32,18.0274137 0.632,20.2807127 1.591,21.2729817 C2.809,22.5759097 4.408,22.5350335 5.12,22.6709468 C7.68,22.9223353 16,23 16,23 C16,23 22.724,22.989781 27.202,22.658684 C27.827,22.5820411 29.191,22.5759097 30.408,21.2729817 C31.367,20.2807127 31.68,18.0274137 31.68,18.0274137 C31.68,18.0274137 32,15.3817035 32,12.7349713 L32,10.2537877 C32,7.60807749 31.68,4.96134536 31.68,4.96134536 L31.68,4.96134536 Z" id="Youtube" fill="#FFFFFF"></path>
                            <polygon id="Path" fill="#00A44B" points="12.696 15.7414138 12.695 6.55347225 21.341 11.1632825"></polygon>
                        </g>
                    </g>
                </g>
            </g>
        </g>
    </g>
</svg>