<?xml version="1.0" encoding="UTF-8"?>
<svg width="60px" height="60px" viewBox="0 0 60 60" version="1.1" xmlns="http://www.w3.org/2000/svg" xmlns:xlink="http://www.w3.org/1999/xlink">
    <!-- Generator: Sketch 51.2 (57519) - http://www.bohemiancoding.com/sketch -->
    <title>icnt_fill_line01_ccolor1</title>
    <desc>Created with Sketch.</desc>
    <defs></defs>
    <g id="icon-share" stroke="none" stroke-width="1" fill="none" fill-rule="evenodd">
        <g id="icon-share-dark" transform="translate(-453.000000, -46.000000)">
            <g id="icnt_fill_line01_ccolor1" transform="translate(453.000000, 46.000000)">
                <g id="icnt_fill_line01_grey2">
                    <g>
                        <circle id="Oval-1-Copy-58" fill="#00A44B" cx="30" cy="30" r="30"></circle>
                        <g id="Group-74" transform="translate(14.571429, 15.428571)" fill="#FFFFFF">
                            <path d="M15.9913846,0 C24.8232692,0 31.9828846,5.73311538 31.9828846,12.8052692 C31.9828846,15.2755385 31.1087308,17.5819615 29.5954615,19.5380769 C29.5205769,19.6494231 29.4227308,19.7724231 29.2993846,19.9083462 L29.2900385,19.9185 C28.7731154,20.5369615 28.191,21.1175769 27.5509615,21.6535385 C23.1287308,25.7410385 15.8498077,30.6075 14.8891154,29.8566923 C14.0539615,29.2040769 16.2646154,26.0119615 13.7141538,25.4807308 C13.5362308,25.4603077 13.3587692,25.4383846 13.1828077,25.4134615 L13.1794615,25.4132308 L13.1794615,25.413 C5.68857692,24.3488077 -3.55271368e-15,19.1090769 -3.55271368e-15,12.8052692 C-0.000230769231,5.73311538 7.1595,0 15.9913846,0 Z M6.71307692,16.8897692 L6.76673077,16.8897692 L6.78265385,16.8897692 L9.93830769,16.8897692 C10.3970769,16.8897692 10.7723077,16.5144231 10.7723077,16.0556538 L10.7723077,15.9860769 C10.7723077,15.5273077 10.3970769,15.1520769 9.93830769,15.1520769 L7.61665385,15.1520769 L7.61665385,9.86988462 C7.61665385,9.41111538 7.24142308,9.03588462 6.78265385,9.03588462 L6.71307692,9.03588462 C6.25430769,9.03588462 5.87907692,9.41111538 5.87907692,9.86988462 L5.87907692,16.0555385 C5.87907692,16.5144231 6.25430769,16.8897692 6.71307692,16.8897692 Z M26.6982692,13.0125 L26.6982692,12.9429231 C26.6982692,12.4841538 26.3229231,12.1089231 25.8641538,12.1089231 L23.5426154,12.1089231 L23.5426154,10.7883462 L25.8641538,10.7883462 C26.3229231,10.7883462 26.6982692,10.4131154 26.6982692,9.95434615 L26.6982692,9.88476923 C26.6982692,9.426 26.3229231,9.05076923 25.8641538,9.05076923 L22.7085,9.05076923 L22.6925769,9.05076923 L22.6389231,9.05076923 C22.1801538,9.05076923 21.8049231,9.426 21.8049231,9.88476923 L21.8049231,16.0704231 C21.8049231,16.5291923 22.1801538,16.9045385 22.6389231,16.9045385 L22.6925769,16.9045385 L22.7085,16.9045385 L25.8641538,16.9045385 C26.3229231,16.9045385 26.6982692,16.5291923 26.6982692,16.0704231 L26.6982692,16.0008462 C26.6982692,15.5420769 26.3229231,15.1668462 25.8641538,15.1668462 L23.5426154,15.1668462 L23.5426154,13.8462692 L25.8641538,13.8462692 C26.3229231,13.8465 26.6982692,13.4711538 26.6982692,13.0125 Z M20.4957692,16.6411154 L20.496,16.6407692 C20.6448462,16.4898462 20.7371538,16.2830769 20.7371538,16.0557692 L20.7371538,9.87011538 C20.7371538,9.41134615 20.3619231,9.03611538 19.9030385,9.03611538 L19.8334615,9.03611538 C19.3746923,9.03611538 18.9994615,9.41134615 18.9994615,9.87011538 L18.9994615,13.5011538 L15.9849231,9.45784615 C15.8409231,9.20642308 15.5697692,9.03611538 15.2607692,9.03611538 L15.1911923,9.03611538 C14.7324231,9.03611538 14.3570769,9.41134615 14.3570769,9.87011538 L14.3570769,16.0557692 C14.3570769,16.5145385 14.7323077,16.8898846 15.1911923,16.8898846 L15.2607692,16.8898846 C15.7195385,16.8898846 16.0947692,16.5145385 16.0947692,16.0557692 L16.0947692,12.3567692 L19.131,16.5038077 C19.1496923,16.5328846 19.1701154,16.5608077 19.1921538,16.5873462 L19.1922692,16.5875769 C19.2756923,16.7013462 19.3898077,16.7793462 19.5169615,16.827 C19.6146923,16.8673846 19.7215385,16.8897692 19.8333462,16.8897692 L19.9029231,16.8897692 C20.0434615,16.8897692 20.1760385,16.8544615 20.2925769,16.7923846 C20.376,16.7526923 20.4462692,16.7014615 20.4957692,16.6411154 Z M12.2794615,16.8897692 L12.3490385,16.8897692 C12.8078077,16.8897692 13.1830385,16.5144231 13.1830385,16.0556538 L13.1830385,9.87 C13.1830385,9.41123077 12.8078077,9.036 12.3490385,9.036 L12.2794615,9.036 C11.8206923,9.036 11.4453462,9.41123077 11.4453462,9.87 L11.4453462,16.0556538 C11.4453462,16.5144231 11.8206923,16.8897692 12.2794615,16.8897692 Z" id="Combined-Shape"></path>
                        </g>
                    </g>
                </g>
            </g>
        </g>
    </g>
</svg>