<?xml version="1.0" encoding="UTF-8"?>
<svg width="50px" height="40px" viewBox="0 0 50 40" version="1.1" xmlns="http://www.w3.org/2000/svg" xmlns:xlink="http://www.w3.org/1999/xlink">
    <!-- Generator: Sketch 48.2 (47327) - http://www.bohemiancoding.com/sketch -->
    <title>icnt_fill_cart01_light</title>
    <desc>Created with Sketch.</desc>
    <defs></defs>
    <g id="Symbols" stroke="none" stroke-width="1" fill="none" fill-rule="evenodd">
        <g id="icnt_fill_cart01_light" fill="#000000">
            <g id="icnt_fill_cart01" transform="translate(2.000000, 2.000000)">
                <path d="M46.2264345,5.94619222 C46.0079345,5.69681722 45.6888928,5.54006722 45.3579762,5.56698389 L13.3825595,6.42990056 C13.3097262,6.43227556 13.2384762,6.44256722 13.1703928,6.45760889 L11.8245595,1.95935889 C11.6978928,1.53581722 11.3321428,1.22785889 10.8935595,1.17481722 L1.24472615,0.00710888979 C0.638309484,-0.0609744435 0.0817678177,0.367317223 0.0081428177,0.976900556 C-0.0654821823,1.58569222 0.368351151,2.13985889 0.977934484,2.21348389 L9.90397615,3.29331722 L17.0638095,27.2301506 C17.2078928,27.7106922 17.6480595,28.0234006 18.1278095,28.0226089 C18.2204345,28.0226089 18.3138512,28.0115256 18.4080595,27.9869839 L43.4049345,21.4961089 C43.8308512,21.3860672 44.1506845,21.0345672 44.2227262,20.6015256 L46.4861012,6.85819222 C46.5391428,6.53123389 46.4449345,6.19635889 46.2264345,5.94619222 L46.2264345,5.94619222 Z" id="Fill-15" stroke="#000000" stroke-width="2.5"></path>
                <path d="M24.0104583,33.7756667 C24.0104583,35.815 22.3574583,37.4687917 20.3173333,37.4687917 C18.278,37.4687917 16.625,35.815 16.625,33.7756667 C16.625,31.7363333 18.278,30.0833333 20.3173333,30.0833333 C22.3574583,30.0833333 24.0104583,31.7363333 24.0104583,33.7756667" id="Fill-16"></path>
                <path d="M46.9695833,30.609 C46.9695833,32.649125 45.3157917,34.302125 43.2764583,34.302125 C41.237125,34.302125 39.5833333,32.649125 39.5833333,30.609 C39.5833333,28.5696667 41.237125,26.9166667 43.2764583,26.9166667 C45.3157917,26.9166667 46.9695833,28.5696667 46.9695833,30.609" id="Fill-17"></path>
            </g>
        </g>
    </g>
</svg>