<?xml version="1.0" encoding="UTF-8"?>
<svg width="40px" height="40px" viewBox="0 0 40 40" version="1.1" xmlns="http://www.w3.org/2000/svg" xmlns:xlink="http://www.w3.org/1999/xlink">
    <!-- Generator: Sketch 48.2 (47327) - http://www.bohemiancoding.com/sketch -->
    <title>icnt_outline_ticket01_light</title>
    <desc>Created with Sketch.</desc>
    <defs></defs>
    <g id="Symbols" stroke="none" stroke-width="1" fill="none" fill-rule="evenodd">
        <g id="icnt_outline_ticket01_light" fill="#000000">
            <g transform="translate(1.000000, 1.000000)" id="Слой_1">
                <g>
                    <path d="M33.7777778,0 C32.6377778,0 31.5822222,0.417582418 30.78,1.21098901 L23.5177778,8.43516484 L5.53111111,4.21758242 C5.19333333,4.13406593 4.81333333,4.25934066 4.56,4.50989011 L1.39333333,7.64175824 C1.14,7.89230769 1.05555556,8.22637363 1.09777778,8.56043956 C1.14,8.89450549 1.35111111,9.18681319 1.68888889,9.31208791 L16.1711111,15.7010989 L9.83777778,21.9648352 L3.16666667,21.9648352 C2.82888889,21.9648352 2.49111111,22.1318681 2.28,22.4241758 L0.168888889,25.556044 C-1.64066291e-16,25.8065934 -0.0422222222,26.1406593 0.0422222222,26.432967 C0.126666667,26.7252747 0.337777778,26.9758242 0.633333333,27.1010989 L7.64222222,30.0659341 L10.64,36.9978022 C10.7666667,37.2901099 11.02,37.4989011 11.3155556,37.5824176 C11.6111111,37.6659341 11.9488889,37.6241758 12.2022222,37.4571429 L15.3688889,35.3692308 C15.6644444,35.1604396 15.8333333,34.8681319 15.8333333,34.4923077 L15.8333333,27.810989 L22.1666667,21.5472527 L28.5844444,35.9120879 C28.7111111,36.2461538 29.0066667,36.4549451 29.3444444,36.4967033 C29.6822222,36.5802198 30.02,36.4549451 30.2733333,36.2043956 L33.44,33.0725275 C33.6933333,32.821978 33.82,32.4461538 33.7355556,32.1120879 L29.4711111,14.3230769 L36.7755556,7.0989011 C37.5777778,6.34725275 38,5.3032967 38,4.17582418 C38,3.04835165 37.5777778,2.0043956 36.7755556,1.21098901 C35.9733333,0.417582418 34.9177778,0 33.7777778,0 L33.7777778,0 Z M35.2555556,5.63736264 L27.5711111,13.2791209 C27.3177778,13.5296703 27.1911111,13.9054945 27.2755556,14.2395604 L31.54,32.0285714 L29.8933333,33.6571429 L23.4333333,19.3340659 C23.3066667,19 23.0111111,18.7912088 22.6733333,18.7494505 C22.3355556,18.6659341 21.9977778,18.7912088 21.7444444,19.0417582 L14.0177778,26.6417582 C13.8066667,26.8505495 13.7222222,27.1010989 13.7222222,27.3934066 L13.7222222,33.9076923 L12.0755556,34.9934066 L9.41555556,28.8131868 C9.28888889,28.5626374 9.12,28.3956044 8.86666667,28.2703297 L2.66,25.6395604 L3.75777778,24.010989 L10.3444444,24.010989 C10.64,24.010989 10.8933333,23.8857143 11.1044444,23.7186813 L18.8311111,16.0769231 C19.0844444,15.8263736 19.1688889,15.4923077 19.1266667,15.1582418 C19.0422222,14.8241758 18.8311111,14.5318681 18.5355556,14.4065934 L3.92666667,8.01758242 L5.57333333,6.38901099 L23.56,10.6065934 C23.8977778,10.6901099 24.2777778,10.5648352 24.5311111,10.3142857 L32.2577778,2.67252747 C32.6377778,2.2967033 33.1866667,2.04615385 33.7355556,2.04615385 C34.2844444,2.04615385 34.8333333,2.25494505 35.2133333,2.67252747 C36.1,3.50769231 36.1,4.84395604 35.2555556,5.63736264 L35.2555556,5.63736264 Z" id="Shape"></path>
                </g>
            </g>
        </g>
    </g>
</svg>