<?xml version="1.0" encoding="UTF-8"?>
<svg width="60px" height="60px" viewBox="0 0 60 60" version="1.1" xmlns="http://www.w3.org/2000/svg" xmlns:xlink="http://www.w3.org/1999/xlink">
    <!-- Generator: Sketch 51.2 (57519) - http://www.bohemiancoding.com/sketch -->
    <title>icnt_fill_google01_ccolor1</title>
    <desc>Created with Sketch.</desc>
    <defs></defs>
    <g id="icon-share" stroke="none" stroke-width="1" fill="none" fill-rule="evenodd">
        <g id="icon-share-dark" transform="translate(-204.000000, -46.000000)">
            <g id="icnt_fill_google01_ccolor1" transform="translate(204.000000, 46.000000)">
                <g id="icnt_fill_google01_grey2">
                    <g>
                        <circle id="Oval-1-Copy-6" fill="#00A44B" cx="30" cy="30" r="30"></circle>
                        <path d="M14.5974524,29.8855466 C14.6817857,24.8346642 19.3204524,20.4110963 24.3661191,20.5796036 C26.7834524,20.4674879 29.0561191,21.5205753 30.9077857,22.9997695 C30.1177857,23.898364 29.2994524,24.7645919 28.4247857,25.5744281 C26.1991191,24.0341709 23.0331191,23.5943835 20.8074524,25.3732203 C17.6227857,27.5778302 17.4781191,32.7832055 20.5407857,35.1563227 C23.5194524,37.8621168 29.1497857,36.5183959 29.9727857,32.3757847 C28.1067857,32.3477558 26.2364524,32.3757847 24.3707857,32.3150554 C24.3661191,31.2009049 24.3614524,30.0867544 24.3661191,28.9726039 C27.4851191,28.9632609 30.6041191,28.9585894 33.7277857,28.9819468 C33.9147857,31.6033204 33.5687857,34.3932013 31.9601191,36.560773 C29.5237857,39.9919828 24.6324524,40.9936839 20.8167857,39.5238327 C16.9871191,38.0633245 14.2747857,34.0141432 14.5974524,29.8855466" id="Fill-186" fill="#FFFFFF"></path>
                        <path d="M40.5339524,26.5714286 L43.3162857,26.5714286 C43.3209524,27.5030573 43.325619,28.4390238 43.3349524,29.3706525 C44.265619,29.3799955 45.200619,29.3799955 46.1312857,29.3893384 L46.1312857,32.1745479 C45.200619,32.1838908 44.2702857,32.1885623 43.3349524,32.1979053 C43.325619,33.1342055 43.3209524,34.0658342 43.3162857,34.9971292 L40.5292857,34.9971292 C40.5199524,34.0658342 40.5199524,33.1342055 40.510619,32.2025768 C39.5799524,32.1932338 38.644619,32.1838908 37.7142857,32.1745479 L37.7142857,29.3893384 C38.644619,29.3799955 39.5752857,29.375324 40.510619,29.3706525 C40.5152857,28.4343523 40.524619,27.5030573 40.5339524,26.5714286" id="Fill-187" fill="#FFFFFF"></path>
                    </g>
                </g>
            </g>
        </g>
    </g>
</svg>