<?xml version="1.0" encoding="UTF-8" standalone="no"?>
<svg width="26px" height="22px" viewBox="0 0 26 22" version="1.1" xmlns="http://www.w3.org/2000/svg" xmlns:xlink="http://www.w3.org/1999/xlink">
    <!-- Generator: Sketch 3.8.1 (29687) - http://www.bohemiancoding.com/sketch -->
    <title>icn/d/sales/order_normal</title>
    <desc>Created with Sketch.</desc>
    <defs></defs>
    <g id="Symbols" stroke="none" stroke-width="1" fill="none" fill-rule="evenodd">
        <g id="MenuIcon/D/Sales" transform="translate(-12.000000, -14.000000)">
            <g id="icn/d/sales/order_normal" transform="translate(0.000000, -0.150391)">
                <rect id="Rectangle-191" x="0" y="0" width="50" height="50"></rect>
                <g id="1464370042_91" stroke-width="1" fill-rule="evenodd" transform="translate(12.500000, 14.215686)" fill="#FFFFFF">
                    <g id="Layer_1" transform="translate(0.000000, 0.000000)">
                        <path d="M12.8330564,17.647464 C12.8330564,17.1976887 12.7560871,16.7683935 12.6129512,16.3693684 L15.6037264,16.3693684 C15.4659355,16.7683935 15.3889662,17.1976887 15.3889662,17.647464 C15.3889662,19.7641762 17.1062032,21.4814131 19.2229717,21.4814131 C21.3388961,21.4814131 23.0569208,19.7641762 23.0569208,17.647464 C23.0569208,15.5312019 21.3389524,13.8134586 19.2229717,13.8134586 L10.788306,13.8134586 C10.2262275,13.8134586 9.76598708,13.3531618 9.76598708,12.7910271 C9.76598708,12.2290611 10.2262275,11.7688207 10.788306,11.7688207 L19.5808677,11.7688207 C20.5058497,11.7688207 21.3029996,11.2266034 21.6659594,10.4398061 C21.8043692,10.1433505 24.4524959,4.10598615 24.4524959,4.10598615 C24.523895,3.94214505 24.5902867,3.77897912 24.5902867,3.58970665 C24.5902867,3.02762816 24.12999,2.56733146 23.5678552,2.56733146 L7.60842716,2.56733146 L7.17901945,1.24354942 C6.97984449,0.53259609 6.42271725,0.011477879 5.67643006,0.011477879 L1.33132143,0.011477879 C0.625994517,0.011477879 0.0533946429,0.584077753 0.0533946429,1.28940467 C0.0533946429,1.99473158 0.625994517,2.56733146 1.33132143,2.56733146 L4.01506334,2.56733146 C4.46984616,2.56733146 4.85322983,2.8638996 4.98657577,3.2677634 L7.14368559,14.293729 C5.96303945,14.9431857 5.16521433,16.2057524 5.16521433,17.6474077 C5.16521433,19.7641199 6.88256384,21.4813569 8.99916349,21.4813569 C11.1152568,21.4814131 12.8330564,19.7641762 12.8330564,17.647464 L12.8330564,17.647464 Z M10.2770903,17.647464 C10.2770903,18.3527909 9.70449041,18.9253345 8.99910723,18.9253345 C8.29378031,18.9253345 7.72118044,18.3527909 7.72118044,17.647464 C7.72118044,16.9421371 8.29378031,16.3693684 8.99910723,16.3693684 C9.70449041,16.3693684 10.2770903,16.9421371 10.2770903,17.647464 L10.2770903,17.647464 Z M20.5007297,17.647464 C20.5007297,18.3527909 19.9281861,18.9253345 19.2229154,18.9253345 C18.5175322,18.9253345 17.9447636,18.3527909 17.9447636,17.647464 C17.9447636,16.9421371 18.5175322,16.3693684 19.2229154,16.3693684 C19.9281861,16.3693684 20.5007297,16.9421371 20.5007297,17.647464 L20.5007297,17.647464 Z" id="Shape"></path>
                    </g>
                </g>
            </g>
        </g>
    </g>
</svg>