<?xml version="1.0" encoding="UTF-8" standalone="no"?>
<svg width="25px" height="24px" viewBox="0 0 25 24" version="1.1" xmlns="http://www.w3.org/2000/svg" xmlns:xlink="http://www.w3.org/1999/xlink">
    <!-- Generator: Sketch 3.8.1 (29687) - http://www.bohemiancoding.com/sketch -->
    <title>icn/d/sales/payment_normal</title>
    <desc>Created with Sketch.</desc>
    <defs></defs>
    <g id="Symbols" stroke="none" stroke-width="1" fill="none" fill-rule="evenodd">
        <g id="MenuIcon/D/Sales" transform="translate(-193.000000, -13.000000)">
            <g id="icn/d/sales/payment_normal" transform="translate(180.500000, -0.150391)">
                <rect id="Rectangle-191" x="0" y="0" width="50" height="50"></rect>
                <g id="1464370805_95" stroke-width="1" fill-rule="evenodd" transform="translate(12.500000, 13.520408)" fill="#FFFFFF">
                    <g id="Layer_1">
                        <path d="M0.0538191179,20.6168054 C0.0538191179,21.7555135 0.976173315,22.6777543 2.11471137,22.6777543 L20.6637057,22.6777543 C21.8023572,22.6777543 22.7248815,21.7555135 22.7248815,20.6168054 L22.7248815,17.5252969 L23.6521129,17.5252969 C24.280702,17.5252969 24.7857737,17.0202251 24.7857737,16.3915793 L24.7857737,10.9301581 C24.7857737,10.3017958 24.280702,9.79655395 23.6521129,9.79655395 L22.7248815,9.79655395 L22.7248815,6.70504544 C22.7248815,5.56633726 21.8023572,4.64403977 20.6637057,4.64403977 L3.6606074,4.64403977 C3.0939471,4.64403977 2.62999114,4.18008381 2.62999114,3.61359365 C2.62999114,3.04693335 3.0939471,2.58314752 3.6606074,2.58314752 L18.8604533,2.58314752 C19.5713307,2.58314752 20.1486528,2.00588219 20.1486528,1.29489138 C20.1486528,0.583957278 19.5713307,0.00680536791 18.8604533,0.00680536791 L2.11476808,0.00680536791 C0.976173315,0.00680536791 0.0538758293,0.929159565 0.0538758293,2.06786775 L0.0538758293,20.6168054 L0.0538191179,20.6168054 Z M17.5721972,13.6608687 C17.5721972,12.9499913 18.1495192,12.3728961 18.86051,12.3728961 C19.5713874,12.3728961 20.1487095,12.9499913 20.1487095,13.6608687 C20.1487095,14.3718595 19.5713874,14.9491248 18.86051,14.9491248 C18.1494625,14.9491248 17.5721972,14.3718595 17.5721972,13.6608687 L17.5721972,13.6608687 Z" id="Shape"></path>
                    </g>
                </g>
            </g>
        </g>
    </g>
</svg>