<?xml version="1.0" encoding="UTF-8" standalone="no"?>
<svg width="26px" height="22px" viewBox="0 0 26 22" version="1.1" xmlns="http://www.w3.org/2000/svg" xmlns:xlink="http://www.w3.org/1999/xlink">
    <!-- Generator: Sketch 3.8.1 (29687) - http://www.bohemiancoding.com/sketch -->
    <title>icn/d/sales/shipment_normal</title>
    <desc>Created with Sketch.</desc>
    <defs></defs>
    <g id="Symbols" stroke="none" stroke-width="1" fill="none" fill-rule="evenodd">
        <g id="MenuIcon/D/Sales" transform="translate(-102.000000, -14.000000)">
            <g id="icn/d/sales/shipment_normal" transform="translate(90.250000, -0.150391)">
                <rect id="Rectangle-191" x="0" y="0" width="50" height="50"></rect>
                <g id="1464370086_130" stroke-width="1" fill-rule="evenodd" transform="translate(12.500000, 14.622642)" fill="#FFFFFF">
                    <g id="Layer_1" transform="translate(-0.000000, 0.000000)">
                        <path d="M22.8376222,17.1042085 C23.9819227,17.1042085 24.9087388,16.1771074 24.9087388,15.0329779 L24.9087388,2.08775845 C24.9087388,0.943401006 23.9819227,0.016470905 22.8376222,0.016470905 L11.4458542,0.016470905 C10.3014967,0.016470905 9.37456662,0.943401006 9.37456662,2.08775845 L9.37456662,4.15898901 L6.22628706,4.15898901 C5.5325143,4.15898901 4.91659365,4.43358008 4.47056838,4.87345013 L1.85123854,7.50395055 C1.37996548,7.97015126 1.0897014,8.62243329 1.0897014,9.33706539 L1.0897014,14.5408455 C0.499142513,14.6601883 0.0541431134,15.1830968 0.0541431134,15.8095041 C0.0541431134,16.5240223 0.63415834,17.1042085 1.34861947,17.1042085 L3.17107666,17.1042085 C3.30056419,19.1289329 4.98840451,20.7288904 7.044418,20.7288904 C9.10054548,20.7288904 10.7884428,19.1289899 10.9178733,17.1042085 L14.5578294,17.1042085 C14.6921613,19.1289329 16.3802865,20.7288904 18.4361861,20.7288904 C20.4918576,20.7288904 22.1801538,19.1289899 22.3095844,17.1042085 L22.8376222,17.1042085 L22.8376222,17.1042085 Z M8.33900834,16.8452904 C8.33900834,17.5596945 7.75899311,18.1398807 7.044418,18.1398807 C6.32995688,18.1398807 5.74994165,17.5596945 5.74994165,16.8452904 C5.74994165,16.1307723 6.32995688,15.5505861 7.044418,15.5505861 C7.75899311,15.5506431 8.33900834,16.1307723 8.33900834,16.8452904 L8.33900834,16.8452904 Z M19.7307764,16.8452904 C19.7307764,17.5596945 19.1505902,18.1398807 18.4361291,18.1398807 C17.7216679,18.1398807 17.1417667,17.5596945 17.1417667,16.8452904 C17.1417667,16.1307723 17.7216679,15.5505861 18.4361291,15.5505861 C19.1505902,15.5505861 19.7307764,16.1307723 19.7307764,16.8452904 L19.7307764,16.8452904 Z M3.67876809,10.8905168 L3.67876809,9.58082339 C3.67876809,9.06298725 3.88605072,8.81928625 4.27434234,8.43093765 L5.38735377,7.31747027 C5.73979694,6.96548304 6.00885972,6.7479987 6.51655114,6.7479987 L9.37450963,6.7479987 L9.37450963,10.8905168 L3.67876809,10.8905168 L3.67876809,10.8905168 Z" id="Shape"></path>
                    </g>
                </g>
            </g>
        </g>
    </g>
</svg>