<?xml version="1.0" encoding="UTF-8" standalone="no"?>
<svg width="18px" height="26px" viewBox="0 0 18 26" version="1.1" xmlns="http://www.w3.org/2000/svg" xmlns:xlink="http://www.w3.org/1999/xlink">
    <!-- Generator: Sketch 3.8.1 (29687) - http://www.bohemiancoding.com/sketch -->
    <title>icn/d/sales/taxes_normal</title>
    <desc>Created with Sketch.</desc>
    <defs></defs>
    <g id="Symbols" stroke="none" stroke-width="1" fill="none" fill-rule="evenodd">
        <g id="MenuIcon/D/Sales" transform="translate(-287.000000, -12.000000)">
            <g id="icn/d/sales/taxes_normal" transform="translate(270.750000, -0.150391)">
                <rect id="Rectangle-191" x="4.54747351e-13" y="0" width="50" height="50"></rect>
                <path d="M16.4062339,35.416767 C16.4062339,36.5677618 17.3385294,37.5 18.4895815,37.5 L31.5104758,37.5 C32.6614706,37.5 33.5937661,36.5677618 33.5937661,35.416767 L33.5937661,14.583233 C33.5937661,13.4322955 32.6614706,12.5 31.5104758,12.5 L18.4895815,12.5 C17.3385294,12.5 16.4062339,13.4323528 16.4062339,14.583233 L16.4062339,35.416767 L16.4062339,35.416767 Z M20.1563399,15.1040413 L29.8437747,15.1040413 C30.4790633,15.1040413 30.9895529,15.6145308 30.9895529,16.2500487 L30.9895529,19.6872685 C30.9895529,20.3227865 30.4790633,20.833276 29.8437747,20.833276 L20.1563399,20.833276 C19.520822,20.833276 19.0104471,20.3227865 19.0104471,19.6872685 L19.0104471,16.2501061 C19.0104471,15.6145308 19.520822,15.1040413 20.1563399,15.1040413 L20.1563399,15.1040413 Z M19.0104471,24.218673 C19.0104471,23.4999748 19.5938556,22.9166237 20.3124964,22.9166237 C21.0311373,22.9166237 21.614603,23.5000321 21.614603,24.218673 C21.614603,24.9374285 21.0311373,25.5208369 20.3124964,25.5208369 C19.5938556,25.5208369 19.0104471,24.9374285 19.0104471,24.218673 L19.0104471,24.218673 Z M23.698008,24.218673 C23.698008,23.4999748 24.2814165,22.9166237 25.0000573,22.9166237 C25.7186982,22.9166237 26.3022213,23.5000321 26.3022213,24.218673 C26.3022213,24.9374285 25.7186982,25.5208369 25.0000573,25.5208369 C24.2813591,25.5208369 23.698008,24.9374285 23.698008,24.218673 L23.698008,24.218673 Z M28.3855116,24.218673 C28.3855116,23.4999748 28.9688054,22.9166237 29.6877329,22.9166237 C30.4063164,22.9166237 30.9896102,23.5000321 30.9896102,24.218673 C30.9896102,24.9374285 30.4063164,25.5208369 29.6877329,25.5208369 C28.9687481,25.5208369 28.3855116,24.9374285 28.3855116,24.218673 L28.3855116,24.218673 Z M19.0104471,28.9062912 C19.0104471,28.1876503 19.5938556,27.6041273 20.3124964,27.6041273 C21.0311373,27.6041273 21.614603,28.1876503 21.614603,28.9062912 C21.614603,29.6249894 21.0311373,30.2082258 20.3124964,30.2082258 C19.5938556,30.2082258 19.0104471,29.6249894 19.0104471,28.9062912 L19.0104471,28.9062912 Z M23.698008,28.9062912 C23.698008,28.1876503 24.2814165,27.6041273 25.0000573,27.6041273 C25.7186982,27.6041273 26.3022213,28.1876503 26.3022213,28.9062912 C26.3022213,29.6249894 25.7186982,30.2082258 25.0000573,30.2082258 C24.2813591,30.2082258 23.698008,29.6249894 23.698008,28.9062912 L23.698008,28.9062912 Z M28.3855116,28.9062912 C28.3855116,28.1876503 28.9688054,27.6041273 29.6877329,27.6041273 C30.4063164,27.6041273 30.9896102,28.1876503 30.9896102,28.9062912 C30.9896102,29.6249894 30.4063164,30.2082258 29.6877329,30.2082258 C28.9687481,30.2082258 28.3855116,29.6249894 28.3855116,28.9062912 L28.3855116,28.9062912 Z M19.0104471,33.5936801 C19.0104471,32.8750393 19.5938556,32.2917455 20.3124964,32.2917455 C21.0311373,32.2917455 21.614603,32.8750393 21.614603,33.5936801 C21.614603,34.3125503 21.0311373,34.8958441 20.3124964,34.8958441 C19.5938556,34.8958441 19.0104471,34.3125503 19.0104471,33.5936801 L19.0104471,33.5936801 Z M23.698008,33.5936801 C23.698008,32.8750393 24.2814165,32.2917455 25.0000573,32.2917455 C25.7186982,32.2917455 26.3022213,32.8750393 26.3022213,33.5936801 C26.3022213,34.3125503 25.7186982,34.8958441 25.0000573,34.8958441 C24.2813591,34.8958441 23.698008,34.3125503 23.698008,33.5936801 L23.698008,33.5936801 Z M28.3855116,33.5936801 C28.3855116,32.8750393 28.9688054,32.2917455 29.6877329,32.2917455 C30.4063164,32.2917455 30.9896102,32.8750393 30.9896102,33.5936801 C30.9896102,34.3125503 30.4063164,34.8958441 29.6877329,34.8958441 C28.9687481,34.8958441 28.3855116,34.3125503 28.3855116,33.5936801 L28.3855116,33.5936801 Z" id="Shape" fill="#FFFFFF" fill-rule="evenodd"></path>
            </g>
        </g>
    </g>
</svg>