<?xml version="1.0" encoding="UTF-8"?>
<svg width="187px" height="43px" viewBox="0 0 187 43" version="1.1" xmlns="http://www.w3.org/2000/svg" xmlns:xlink="http://www.w3.org/1999/xlink">
    <!-- Generator: Sketch 48.2 (47327) - http://www.bohemiancoding.com/sketch -->
    <title>btn-logingg</title>
    <desc>Created with Sketch.</desc>
    <defs>
        <rect id="path-1" x="0" y="0" width="185" height="40" rx="2"></rect>
        <filter x="-1.6%" y="-5.0%" width="103.2%" height="115.0%" filterUnits="objectBoundingBox" id="filter-2">
            <feOffset dx="0" dy="1" in="SourceAlpha" result="shadowOffsetOuter1"></feOffset>
            <feGaussianBlur stdDeviation="0.5" in="shadowOffsetOuter1" result="shadowBlurOuter1"></feGaussianBlur>
            <feColorMatrix values="0 0 0 0 0   0 0 0 0 0   0 0 0 0 0  0 0 0 0.24 0" type="matrix" in="shadowBlurOuter1" result="shadowMatrixOuter1"></feColorMatrix>
            <feOffset dx="0" dy="0" in="SourceAlpha" result="shadowOffsetOuter2"></feOffset>
            <feGaussianBlur stdDeviation="0.5" in="shadowOffsetOuter2" result="shadowBlurOuter2"></feGaussianBlur>
            <feColorMatrix values="0 0 0 0 0   0 0 0 0 0   0 0 0 0 0  0 0 0 0.12 0" type="matrix" in="shadowBlurOuter2" result="shadowMatrixOuter2"></feColorMatrix>
            <feMerge>
                <feMergeNode in="shadowMatrixOuter1"></feMergeNode>
                <feMergeNode in="shadowMatrixOuter2"></feMergeNode>
            </feMerge>
        </filter>
    </defs>
    <g id="Authen-style1-loginsocial-(modal)" stroke="none" stroke-width="1" fill="none" fill-rule="evenodd" transform="translate(-564.000000, -871.000000)">
        <g id="Group-2" transform="translate(515.000000, 160.000000)">
            <g id="btn-logingg" transform="translate(50.000000, 712.000000)">
                <g id="button-bg">
                    <use fill="black" fill-opacity="1" filter="url(#filter-2)" xlink:href="#path-1"></use>
                    <use fill="#DC4E41" fill-rule="evenodd" xlink:href="#path-1"></use>
                </g>
                <path d="M16,19 L16,21.4 L19.97,21.4 C19.81,22.43 18.77,24.42 16,24.42 C13.61,24.42 11.66,22.44 11.66,20 C11.66,17.56 13.61,15.58 16,15.58 C17.36,15.58 18.27,16.16 18.79,16.66 L20.69,14.83 C19.47,13.69 17.89,13 16,13 C12.13,13 9,16.13 9,20 C9,23.87 12.13,27 16,27 C20.04,27 22.72,24.16 22.72,20.16 C22.72,19.7 22.67,19.35 22.61,19 L16,19 L16,19 Z" id="Shape" fill="#FFFFFF"></path>
                <polyline id="Shape-Copy" fill="#FFFFFF" points="31 19 29 19 29 17 27 17 27 19 25 19 25 21 27 21 27 23 29 23 29 21 31 21"></polyline>
                <text id="Sign-in-with-Google" font-family="Roboto-Medium, Roboto" font-size="14" font-weight="400" letter-spacing="0.21875" fill="#FFFFFF">
                    <tspan x="50" y="25">Sign in with Google</tspan>
                </text>
            </g>
        </g>
    </g>
</svg>