<?xml version="1.0" encoding="UTF-8"?>
<svg width="180px" height="48px" viewBox="0 0 180 48" version="1.1" xmlns="http://www.w3.org/2000/svg" xmlns:xlink="http://www.w3.org/1999/xlink">
    <!-- Generator: Sketch 49.1 (51147) - http://www.bohemiancoding.com/sketch -->
    <title>icn-securecheckout</title>
    <desc>Created with Sketch.</desc>
    <defs>
        <linearGradient x1="0%" y1="50%" x2="100%" y2="50%" id="linearGradient-1">
            <stop stop-color="#00AD27" offset="0%"></stop>
            <stop stop-color="#00AD27" stop-opacity="0.670261549" offset="65.8980389%"></stop>
            <stop stop-color="#00FF3E" stop-opacity="0.666330218" offset="79.6735491%"></stop>
            <stop stop-color="#00AD27" stop-opacity="0.811565897" offset="100%"></stop>
        </linearGradient>
        <rect id="path-2" x="0.505239521" y="3.86363636" width="148.76497" height="32.7272727" rx="16.3636364"></rect>
        <filter x="-15.7%" y="-8.7%" width="131.4%" height="127.5%" filterUnits="objectBoundingBox" id="filter-3">
            <feOffset dx="0" dy="2" in="SourceAlpha" result="shadowOffsetOuter1"></feOffset>
            <feGaussianBlur stdDeviation="1.5" in="shadowOffsetOuter1" result="shadowBlurOuter1"></feGaussianBlur>
            <feColorMatrix values="0 0 0 0 0   0 0 0 0 0   0 0 0 0 0  0 0 0 0.406221694 0" type="matrix" in="shadowBlurOuter1" result="shadowMatrixOuter1"></feColorMatrix>
            <feMerge>
                <feMergeNode in="shadowMatrixOuter1"></feMergeNode>
                <feMergeNode in="SourceGraphic"></feMergeNode>
            </feMerge>
        </filter>
        <linearGradient x1="107.009891%" y1="-3.79694677%" x2="5.90723977%" y2="78.6312278%" id="linearGradient-4">
            <stop stop-color="#9BE15D" offset="0%"></stop>
            <stop stop-color="#00AA26" offset="100%"></stop>
        </linearGradient>
    </defs>
    <g id="icn-securecheckout" stroke="none" stroke-width="1" fill="none" fill-rule="evenodd">
        <g transform="translate(15.000000, 3.000000)">
            <g id="Rectangle-7" transform="translate(74.887725, 20.227273) scale(-1, -1) translate(-74.887725, -20.227273) ">
                <use fill="url(#linearGradient-1)" fill-rule="evenodd" xlink:href="#path-2"></use>
                <rect stroke="#00A708" stroke-width="2.7" x="1.85523952" y="5.21363636" width="146.06497" height="30.0272727" rx="15.0136364"></rect>
            </g>
            <g id="Group-5" filter="url(#filter-3)" transform="translate(11.676647, 0.000000)">
                <g id="Group">
                    <path d="M31.6292196,20.1041136 C31.6292196,28.6199598 17.6106039,36.871727 17.6106039,36.871727 C17.3634331,37.0172138 16.9596047,37.0172138 16.7124338,36.871727 C16.7124338,36.871727 2.69381811,28.6199598 2.69381811,20.1041136 C2.69381811,15.8460624 2.69381811,5.73344691 2.69381811,5.73344691 C2.69381811,5.44042414 2.8825532,5.06210715 3.11455562,4.89151872 C3.11455562,4.89151872 5.58701014,3.07242105 17.1615189,3.07242105 C28.7360276,3.07242105 31.2084821,4.89151872 31.2084821,4.89151872 C31.4404846,5.06210715 31.6292196,5.44042414 31.6292196,5.73344691 C31.6292196,5.73344691 31.6292196,15.8460624 31.6292196,20.1041136" id="Fill-26" fill="url(#linearGradient-4)"></path>
                    <path d="M31.0813403,20.1010526 C31.0813403,28.2943158 17.5935817,36.2336842 17.5935817,36.2336842 C17.3556815,36.3734737 16.9671519,36.3734737 16.7294561,36.2336842 C16.7294561,36.2336842 3.24169744,28.2943158 3.24169744,20.1010526 C3.24169744,16.0044211 3.24169744,6.27494737 3.24169744,6.27494737 C3.24169744,5.99284211 3.42318835,5.62884211 3.6465775,5.46484211 C3.6465775,5.46484211 6.02557998,3.71452632 17.1615189,3.71452632 C28.2974578,3.71452632 30.6764603,5.46484211 30.6764603,5.46484211 C30.899645,5.62884211 31.0813403,5.99284211 31.0813403,6.27494737 C31.0813403,6.27494737 31.0813403,16.0044211 31.0813403,20.1010526 M33.631819,2.28063158 C33.631819,2.28063158 30.7326652,0.147578947 17.1615189,0.147578947 C3.59037255,0.147578947 0.69121876,2.28063158 0.69121876,2.28063158 C0.418982394,2.48042105 0.197841443,2.924 0.197841443,3.26778947 C0.197841443,3.26778947 0.197841443,15.1248421 0.197841443,20.1174737 C0.197841443,30.1023158 16.6348274,39.7778947 16.6348274,39.7778947 C16.9246405,39.9484211 17.3981928,39.9484211 17.688006,39.7778947 C17.688006,39.7778947 34.1251963,30.1023158 34.1251963,20.1174737 C34.1251963,15.1248421 34.1251963,3.26778947 34.1251963,3.26778947 C34.1251963,2.924 33.903851,2.48042105 33.631819,2.28063158" id="Fill-27" fill="#00A708"></path>
                    <path d="M17.5306321,33.872 C17.5306321,33.872 29.0528524,27.0896842 29.0528524,20.0903158 C29.0528524,16.5905263 29.0528524,8.27873684 29.0528524,8.27873684 C29.0528524,8.27873684 29.0528524,16.5905263 29.0528524,20.0903158 C29.0528524,27.0896842 17.5306321,33.872 17.5306321,33.872" id="Fill-34" fill="#FBCAC9"></path>
                    <path d="M30.6764603,5.46484211 C30.899645,5.62884211 31.0813403,5.99284211 31.0813403,6.27494737 C31.0813403,6.27494737 31.0813403,16.0044211 31.0813403,20.1010526 C31.0813403,28.2943158 17.5935817,36.2336842 17.5935817,36.2336842 C17.4746316,36.3035789 17.3180752,36.3385263 17.1615189,36.3385263 L17.1615189,39.9056842 C17.3524113,39.9056842 17.5430994,39.8631579 17.688006,39.7778947 C17.688006,39.7778947 34.1251963,30.1023158 34.1251963,20.1174737 C34.1251963,15.1248421 34.1251963,3.26778947 34.1251963,3.26778947 C34.1251963,2.924 33.903851,2.48042105 33.631819,2.28063158 C33.631819,2.28063158 30.7326652,0.147578947 17.1615189,0.147578947 L17.1615189,3.71452632 C28.2974578,3.71452632 30.6764603,5.46484211 30.6764603,5.46484211" id="Fill-40" fill="#00C609"></path>
                </g>
                <g id="lock" transform="translate(10.564585, 9.166667)" stroke="#FFFFFF" stroke-linecap="round" stroke-linejoin="round" stroke-width="2">
                    <rect id="Rectangle-path" x="0" y="6.5625" width="13.0025663" height="8.4375" rx="1.485"></rect>
                    <path d="M2.78626421,6.5625 L2.78626421,3.64583333 C2.78626421,1.63229518 4.44953484,3.23815049e-16 6.50128315,0 C8.55303145,-6.47630098e-16 10.2163021,1.63229518 10.2163021,3.64583333 L10.2163021,6.5625" id="Shape"></path>
                </g>
            </g>
        </g>
        <text id="SECURED" font-family="BoonTook-Ultra-Oblique, BoonTook Ultra" font-size="16" font-style="italic" font-weight="600" letter-spacing="0.300000012" fill="#0D460F">
            <tspan x="66.3466666" y="37">SECURE</tspan>
            <tspan x="135.666667" y="37">D</tspan>
        </text>
        <text id="ปลอดภัย" font-family="BoonTook-Ultra-Oblique, BoonTook Ultra" font-size="20" font-style="italic" font-weight="600" letter-spacing="0.200000003" fill="#FFFFFF">
            <tspan x="68.5" y="24">ปลอดภั</tspan>
            <tspan x="133.583333" y="24">ย</tspan>
        </text>
    </g>
</svg>