<?xml version="1.0" encoding="UTF-8"?>
<svg width="138px" height="55px" viewBox="0 0 138 55" version="1.1" xmlns="http://www.w3.org/2000/svg" xmlns:xlink="http://www.w3.org/1999/xlink">
    <!-- Generator: Sketch 47 (45396) - http://www.bohemiancoding.com/sketch -->
    <title>icn-paypal</title>
    <desc>Created with Sketch.</desc>
    <defs></defs>
    <g id="*Checkout-no-Cart" stroke="none" stroke-width="1" fill="none" fill-rule="evenodd">
        <g id="Checkout-Style1-4A" transform="translate(-270.000000, -976.000000)">
            <g id="icn-paypal" transform="translate(270.000000, 976.000000)">
                <g id="Group-2" stroke="#000000" stroke-opacity="0.12">
                    <rect id="Rectangle-2" x="0.5" y="0.5" width="137" height="54" rx="3"></rect>
                </g>
                <g id="Asset-4" transform="translate(20.000000, 16.000000)">
                    <g id="Layer_2">
                        <g>
                            <g id="Layer_1-2">
                                <path d="M8.55037037,5.6226087 L15.2461728,5.6226087 C18.8412346,5.6226087 20.1945679,7.45391304 19.9854321,10.1443478 C19.6414815,14.5895652 16.9728395,17.0434783 13.431358,17.0434783 L11.6441975,17.0434783 C11.1585185,17.0434783 10.8318519,17.3669565 10.7004938,18.2434783 L9.93308642,23.3391304 C9.88296296,23.6695652 9.71012346,23.8608696 9.4508642,23.8869565 L5.25259259,23.8869565 C4.85679012,23.8869565 4.71679012,23.5826087 4.82049383,22.9234783 L7.3837037,6.58782609 C7.48740741,5.93391304 7.8417284,5.6226087 8.55037037,5.6226087 L8.55037037,5.6226087 Z" id="Shape" fill="#00AEEF"></path>
                                <path d="M37.6202469,5.32 C39.8792593,5.32 41.9637037,6.55304348 41.6785185,9.62608696 C41.3328395,13.2782609 39.3883951,15.2991304 36.3204938,15.3078261 L33.6397531,15.3078261 C33.254321,15.3078261 33.0676543,15.6243478 32.9674074,16.2730435 L32.4488889,19.5895652 C32.3711111,20.0904348 32.1153086,20.3373913 31.7385185,20.3373913 L29.2461728,20.3373913 C28.848642,20.3373913 28.7103704,20.0817391 28.7985185,19.5095652 L30.8604938,6.21565217 C30.9624691,5.56173913 31.2061728,5.31826087 31.6503704,5.31826087 L37.6202469,5.32 Z M33.5585185,12.4365217 L35.5893827,12.4365217 C36.8597531,12.3878261 37.7032099,11.5026087 37.7879012,9.90608696 C37.8397531,8.92 37.1777778,8.21391304 36.1251852,8.21913043 L34.2135802,8.22782609 L33.5585185,12.4365217 L33.5585185,12.4365217 Z M48.4590123,19.32 C48.6871605,19.1113043 48.9187654,19.0034783 48.8859259,19.2608696 L48.8046914,19.8765217 C48.7632099,20.1982609 48.8893827,20.3686957 49.1866667,20.3686957 L51.4024691,20.3686957 C51.7758025,20.3686957 51.957284,20.2173913 52.0488889,19.6365217 L53.4074074,11.013913 C53.4765432,10.5808696 53.3711111,10.3686957 53.0444444,10.3686957 L50.614321,10.3686957 C50.3948148,10.3686957 50.2876543,10.4921739 50.2306173,10.8295652 L50.1407407,11.36 C50.0940741,11.6365217 49.9679012,11.6852174 49.8503704,11.4069565 C49.437284,10.4226087 48.382963,9.98086957 46.9120988,10.0156522 C43.4864198,10.0869565 41.1824691,12.6956522 40.937037,16.0382609 C40.7469136,18.626087 42.5893827,20.6591304 45.0195062,20.6591304 C46.7824691,20.6591304 47.5706173,20.1373913 48.4590123,19.32 L48.4590123,19.32 Z M46.6044444,17.9947826 C45.1335802,17.9947826 44.108642,16.813913 44.3212346,15.3669565 C44.5338272,13.92 45.9096296,12.7391304 47.3804938,12.7391304 C48.851358,12.7391304 49.8780247,13.9130435 49.6637037,15.3669565 C49.4493827,16.8208696 48.0753086,17.9947826 46.6044444,17.9947826 L46.6044444,17.9947826 Z M57.7525926,10.3426087 L55.505679,10.3426087 C55.0424691,10.3426087 54.8540741,10.6904348 55.0009877,11.1182609 L57.7906173,19.3373913 L55.0424691,23.2469565 C54.8125926,23.573913 54.9906173,23.8713043 55.3138272,23.8713043 L57.8390123,23.8713043 C58.1395696,23.9062706 58.4327512,23.7614882 58.5891358,23.5008696 L67.1688889,11.1182609 C67.4333333,10.7373913 67.3088889,10.3373913 66.8750617,10.3373913 L64.4950617,10.3373913 C64.0854321,10.3373913 63.9212346,10.5008696 63.6861728,10.8434783 L60.1083951,16.0608696 L58.5165432,10.8278261 C58.4197531,10.5078261 58.182963,10.3408696 57.7525926,10.3408696 L57.7525926,10.3426087 Z" id="Shape" fill="#03428E"></path>
                                <path d="M76.1046914,5.32 C78.3637037,5.32 80.4481481,6.55304348 80.162963,9.62608696 C79.817284,13.2782609 77.8728395,15.2991304 74.8049383,15.3078261 L72.1259259,15.3078261 C71.7404938,15.3078261 71.5538272,15.6243478 71.4535802,16.2730435 L70.9350617,19.5895652 C70.857284,20.0904348 70.6014815,20.3373913 70.2246914,20.3373913 L67.7306173,20.3373913 C67.3330864,20.3373913 67.1948148,20.0817391 67.282963,19.5095652 L69.3449383,6.21565217 C69.4469136,5.56173913 69.6906173,5.31826087 70.1348148,5.31826087 L76.1046914,5.32 Z M72.042963,12.4365217 L74.0738272,12.4365217 C75.3441975,12.3878261 76.1876543,11.5026087 76.2723457,9.90608696 C76.3241975,8.92 75.6622222,8.21391304 74.6096296,8.21913043 L72.6980247,8.22782609 L72.042963,12.4365217 L72.042963,12.4365217 Z M86.9382716,19.32 C87.1664198,19.1113043 87.3980247,19.0034783 87.3651852,19.2608696 L87.2839506,19.8765217 C87.2424691,20.1982609 87.368642,20.3686957 87.6659259,20.3686957 L89.8817284,20.3686957 C90.2550617,20.3686957 90.4365432,20.2173913 90.5281481,19.6365217 L91.8935802,11.013913 C91.962716,10.5808696 91.857284,10.3686957 91.5306173,10.3686957 L89.1004938,10.3686957 C88.8809877,10.3686957 88.7738272,10.4921739 88.7167901,10.8295652 L88.6269136,11.36 C88.5802469,11.6365217 88.4540741,11.6852174 88.3365432,11.4069565 C87.9234568,10.4226087 86.8691358,9.98086957 85.3982716,10.0156522 C81.9725926,10.0869565 79.668642,12.6956522 79.4214815,16.0382609 C79.231358,18.626087 81.0738272,20.6591304 83.5039506,20.6591304 C85.2669136,20.6591304 86.0550617,20.1373913 86.9434568,19.32 L86.9382716,19.32 Z M85.0837037,17.9947826 C83.6128395,17.9947826 82.5879012,16.813913 82.8004938,15.3669565 C83.0130864,13.92 84.3888889,12.7391304 85.8597531,12.7391304 C87.3306173,12.7391304 88.3624691,13.9130435 88.1481481,15.3669565 C87.9338272,16.8208696 86.5597531,17.9947826 85.0888889,17.9947826 L85.0837037,17.9947826 Z M95.3037037,20.3843478 L92.745679,20.3843478 C92.6555928,20.3884026 92.5684067,20.3518009 92.5078974,20.2845246 C92.4473882,20.2172483 92.4198671,20.1263144 92.4328395,20.0365217 L94.6797531,5.71304348 C94.7239233,5.51176462 94.9000975,5.36764395 95.1049383,5.36521739 L97.662963,5.36521739 C97.7530492,5.36116264 97.8402353,5.39776431 97.9007446,5.46504063 C97.9612538,5.53231695 97.9887749,5.62325086 97.9758025,5.71304348 L95.7288889,20.0365217 C95.6851727,20.2359342 95.5117783,20.379532 95.3088889,20.3843478 L95.3037037,20.3843478 Z" id="Shape" fill="#00AEEF"></path>
                                <path d="M4.36246914,0 L11.0617284,0 C12.962963,0 15.194321,0.0608695652 16.6911111,1.39130435 C17.6918519,2.28 18.217284,3.69391304 18.0962963,5.2173913 C17.6849383,10.3669565 14.6239506,13.2521739 10.517284,13.2521739 L7.2108642,13.2521739 C6.64740741,13.2521739 6.27580247,13.6278261 6.11679012,14.6434783 L5.19382716,20.5565217 C5.13333333,20.9391304 4.9691358,21.1652174 4.67530864,21.1930435 L0.539259259,21.1930435 C0.0812345679,21.1930435 -0.0812345679,20.8452174 0.0380246914,20.0765217 L3.0108642,1.12 C3.13012346,0.36173913 3.54320988,0 4.36246914,0 L4.36246914,0 Z" id="Shape" fill="#03428E"></path>
                                <path d="M6.21358025,14.0434783 L7.3837037,6.58782609 C7.48567901,5.93391304 7.8417284,5.62086957 8.55037037,5.62086957 L15.2461728,5.62086957 C16.3540741,5.62086957 17.2511111,5.79478261 17.9528395,6.11652174 C17.2804938,10.7008696 14.3335802,13.2469565 10.4758025,13.2469565 L7.16938272,13.2469565 C6.74074074,13.2469565 6.40888889,13.4713043 6.21358025,14.0434783 L6.21358025,14.0434783 Z" id="Shape" fill="#0E3178"></path>
                            </g>
                        </g>
                    </g>
                </g>
            </g>
        </g>
    </g>
</svg>