<?xml version="1.0" encoding="UTF-8"?>
<svg width="240px" height="64px" viewBox="0 0 240 64" version="1.1" xmlns="http://www.w3.org/2000/svg" xmlns:xlink="http://www.w3.org/1999/xlink">
    <!-- Generator: Sketch 47 (45396) - http://www.bohemiancoding.com/sketch -->
    <title>icn-securecheckout</title>
    <desc>Created with Sketch.</desc>
    <defs>
        <linearGradient x1="0%" y1="50%" x2="100%" y2="50%" id="linearGradient-1">
            <stop stop-color="#00AD27" offset="0%"></stop>
            <stop stop-color="#00AD27" stop-opacity="0.670261549" offset="65.8980389%"></stop>
            <stop stop-color="#00FF3E" stop-opacity="0.666330218" offset="79.6735491%"></stop>
            <stop stop-color="#00AD27" stop-opacity="0.811565897" offset="100%"></stop>
        </linearGradient>
        <path d="M75.56,27.688 C76.616,28.68 78.056,29.192 79.416,29.192 C81.912,29.192 83.352,27.688 83.352,25.96 C83.352,24.488 82.552,23.64 81.288,23.128 L79.944,22.584 C79.048,22.216 78.36,21.992 78.36,21.352 C78.36,20.76 78.872,20.408 79.688,20.408 C80.52,20.408 81.16,20.712 81.848,21.24 L83.048,19.752 C82.152,18.856 80.888,18.376 79.688,18.376 C77.512,18.376 75.976,19.752 75.976,21.48 C75.976,23 77,23.896 78.072,24.328 L79.432,24.904 C80.344,25.288 80.936,25.496 80.936,26.152 C80.936,26.776 80.456,27.16 79.48,27.16 C78.616,27.16 77.656,26.712 76.904,26.072 L75.56,27.688 Z M84.628,29 L91.316,29 L91.316,27.016 L86.98,27.016 L86.98,24.616 L90.532,24.616 L90.532,22.648 L86.98,22.648 L86.98,20.552 L91.156,20.552 L91.156,18.568 L84.628,18.568 L84.628,29 Z M92.4,23.848 C92.4,27.352 94.608,29.192 97.312,29.192 C98.608,29.192 99.76,28.664 100.624,27.656 L99.328,26.232 C98.816,26.792 98.192,27.16 97.344,27.16 C95.808,27.16 94.816,25.912 94.816,23.768 C94.816,21.672 95.952,20.408 97.408,20.408 C98.128,20.408 98.64,20.712 99.168,21.192 L100.464,19.736 C99.76,19.016 98.672,18.376 97.376,18.376 C94.688,18.376 92.4,20.392 92.4,23.848 Z M101.356,24.168 C101.356,27.672 102.828,29.192 105.532,29.192 C108.22,29.192 109.644,27.672 109.644,24.168 L109.644,18.568 L107.372,18.568 L107.372,24.408 C107.372,26.456 106.7,27.16 105.532,27.16 C104.364,27.16 103.724,26.456 103.724,24.408 L103.724,18.568 L101.356,18.568 L101.356,24.168 Z M113.912,20.44 L113.912,23.368 L115.128,23.368 C116.36,23.368 117.032,22.84 117.032,21.816 C117.032,20.792 116.36,20.44 115.128,20.44 L113.912,20.44 Z M119.848,29 L117.208,29 L115.208,25.24 L113.912,25.24 L113.912,29 L111.56,29 L111.56,18.568 L115.32,18.568 C117.528,18.568 119.336,19.336 119.336,21.816 C119.336,23.352 118.6,24.328 117.48,24.824 L119.848,29 Z M120.916,29 L127.604,29 L127.604,27.016 L123.268,27.016 L123.268,24.616 L126.82,24.616 L126.82,22.648 L123.268,22.648 L123.268,20.552 L127.444,20.552 L127.444,18.568 L120.916,18.568 L120.916,29 Z M134.344,23.848 C134.344,27.352 136.552,29.192 139.256,29.192 C140.552,29.192 141.704,28.664 142.568,27.656 L141.272,26.232 C140.76,26.792 140.136,27.16 139.288,27.16 C137.752,27.16 136.76,25.912 136.76,23.768 C136.76,21.672 137.896,20.408 139.352,20.408 C140.072,20.408 140.584,20.712 141.112,21.192 L142.408,19.736 C141.704,19.016 140.616,18.376 139.32,18.376 C136.632,18.376 134.344,20.392 134.344,23.848 Z M143.652,29 L146.004,29 L146.004,24.648 L149.604,24.648 L149.604,29 L151.972,29 L151.972,18.568 L149.604,18.568 L149.604,22.584 L146.004,22.584 L146.004,18.568 L143.652,18.568 L143.652,29 Z M153.936,29 L160.624,29 L160.624,27.016 L156.288,27.016 L156.288,24.616 L159.84,24.616 L159.84,22.648 L156.288,22.648 L156.288,20.552 L160.464,20.552 L160.464,18.568 L153.936,18.568 L153.936,29 Z M161.708,23.848 C161.708,27.352 163.916,29.192 166.62,29.192 C167.916,29.192 169.068,28.664 169.932,27.656 L168.636,26.232 C168.124,26.792 167.5,27.16 166.652,27.16 C165.116,27.16 164.124,25.912 164.124,23.768 C164.124,21.672 165.26,20.408 166.716,20.408 C167.436,20.408 167.948,20.712 168.476,21.192 L169.772,19.736 C169.068,19.016 167.98,18.376 166.684,18.376 C163.996,18.376 161.708,20.392 161.708,23.848 Z M171.016,29 L171.016,18.568 L173.368,18.568 L173.368,22.84 L173.432,22.84 L176.536,18.568 L179.128,18.568 L175.976,22.728 L179.704,29 L177.128,29 L174.584,24.6 L173.368,26.2 L173.368,29 L171.016,29 Z M184.132,29.192 C181.316,29.192 179.396,27.144 179.396,23.736 C179.396,20.328 181.316,18.376 184.132,18.376 C186.948,18.376 188.868,20.344 188.868,23.736 C188.868,27.144 186.948,29.192 184.132,29.192 Z M184.132,27.16 C185.556,27.16 186.452,25.832 186.452,23.736 C186.452,21.656 185.556,20.408 184.132,20.408 C182.708,20.408 181.812,21.656 181.812,23.736 C181.812,25.832 182.708,27.16 184.132,27.16 Z M190.272,24.168 C190.272,27.672 191.744,29.192 194.448,29.192 C197.136,29.192 198.56,27.672 198.56,24.168 L198.56,18.568 L196.288,18.568 L196.288,24.408 C196.288,26.456 195.616,27.16 194.448,27.16 C193.28,27.16 192.64,26.456 192.64,24.408 L192.64,18.568 L190.272,18.568 L190.272,24.168 Z M202.508,29 L204.876,29 L204.876,20.552 L207.74,20.552 L207.74,18.568 L199.644,18.568 L199.644,20.552 L202.508,20.552 L202.508,29 Z" id="path-2"></path>
        <filter x="-5.3%" y="-46.2%" width="110.6%" height="229.4%" filterUnits="objectBoundingBox" id="filter-3">
            <feOffset dx="0" dy="2" in="SourceAlpha" result="shadowOffsetOuter1"></feOffset>
            <feGaussianBlur stdDeviation="2" in="shadowOffsetOuter1" result="shadowBlurOuter1"></feGaussianBlur>
            <feComposite in="shadowBlurOuter1" in2="SourceAlpha" operator="out" result="shadowBlurOuter1"></feComposite>
            <feColorMatrix values="0 0 0 0 0.10193623   0 0 0 0 0.471115009   0 0 0 0 0  0 0 0 1 0" type="matrix" in="shadowBlurOuter1"></feColorMatrix>
        </filter>
        <filter x="-16.7%" y="-10.4%" width="133.3%" height="129.2%" filterUnits="objectBoundingBox" id="filter-4">
            <feOffset dx="0" dy="2" in="SourceAlpha" result="shadowOffsetOuter1"></feOffset>
            <feGaussianBlur stdDeviation="2" in="shadowOffsetOuter1" result="shadowBlurOuter1"></feGaussianBlur>
            <feColorMatrix values="0 0 0 0 0   0 0 0 0 0   0 0 0 0 0  0 0 0 0.406221694 0" type="matrix" in="shadowBlurOuter1" result="shadowMatrixOuter1"></feColorMatrix>
            <feMerge>
                <feMergeNode in="shadowMatrixOuter1"></feMergeNode>
                <feMergeNode in="SourceGraphic"></feMergeNode>
            </feMerge>
        </filter>
        <linearGradient x1="107.009891%" y1="-3.79694677%" x2="5.90723977%" y2="78.6312278%" id="linearGradient-5">
            <stop stop-color="#9BE15D" offset="0%"></stop>
            <stop stop-color="#00AA26" offset="100%"></stop>
        </linearGradient>
    </defs>
    <g id="Symbols" stroke="none" stroke-width="1" fill="none" fill-rule="evenodd">
        <g id="icn-securecheckout">
            <g transform="translate(4.000000, 8.000000)">
                <rect id="Rectangle-7" fill="url(#linearGradient-1)" transform="translate(116.500000, 23.500000) scale(-1, -1) translate(-116.500000, -23.500000) " x="0" y="6" width="233" height="35" rx="17.5"></rect>
                <g id="Secure-Checkout">
                    <use fill="black" fill-opacity="1" filter="url(#filter-3)" xlink:href="#path-2"></use>
                    <use fill-opacity="0.852977808" fill="#FFFFFF" fill-rule="evenodd" xlink:href="#path-2"></use>
                </g>
                <g id="Group-5" filter="url(#filter-4)" transform="translate(24.000000, 0.000000)">
                    <g id="Group">
                        <path d="M38.9205871,24.1249363 C38.9205871,34.3439518 21.6703116,44.2460724 21.6703116,44.2460724 C21.3661614,44.4206566 20.8692398,44.4206566 20.5650896,44.2460724 C20.5650896,44.2460724 3.31481408,34.3439518 3.31481408,24.1249363 C3.31481408,19.0152748 3.31481408,6.88013629 3.31481408,6.88013629 C3.31481408,6.52850897 3.54705757,6.07452858 3.83254266,5.86982246 C3.83254266,5.86982246 6.874963,3.68690526 21.1177006,3.68690526 C35.3604382,3.68690526 38.4028585,5.86982246 38.4028585,5.86982246 C38.6883436,6.07452858 38.9205871,6.52850897 38.9205871,6.88013629 C38.9205871,6.88013629 38.9205871,19.0152748 38.9205871,24.1249363" id="Fill-26" fill="url(#linearGradient-5)"></path>
                        <path d="M38.2464072,24.1212632 C38.2464072,33.9531789 21.6493653,43.4804211 21.6493653,43.4804211 C21.3566228,43.6481684 20.8785269,43.6481684 20.5860359,43.4804211 C20.5860359,43.4804211 3.98899401,33.9531789 3.98899401,24.1212632 C3.98899401,19.2053053 3.98899401,7.52993684 3.98899401,7.52993684 C3.98899401,7.19141053 4.21232335,6.75461053 4.48720958,6.55781053 C4.48720958,6.55781053 7.41463473,4.45743158 21.1177006,4.45743158 C34.8207665,4.45743158 37.7481916,6.55781053 37.7481916,6.55781053 C38.0228263,6.75461053 38.2464072,7.19141053 38.2464072,7.52993684 C38.2464072,7.52993684 38.2464072,19.2053053 38.2464072,24.1212632 M41.3848383,2.73675789 C41.3848383,2.73675789 37.8173533,0.177094737 21.1177006,0.177094737 C4.4180479,0.177094737 0.850562874,2.73675789 0.850562874,2.73675789 C0.515568862,2.97650526 0.243449102,3.5088 0.243449102,3.92134737 C0.243449102,3.92134737 0.243449102,18.1498105 0.243449102,24.1409684 C0.243449102,36.1227789 20.4695928,47.7334737 20.4695928,47.7334737 C20.8262156,47.9381053 21.4089341,47.9381053 21.7655569,47.7334737 C21.7655569,47.7334737 41.9919521,36.1227789 41.9919521,24.1409684 C41.9919521,18.1498105 41.9919521,3.92134737 41.9919521,3.92134737 C41.9919521,3.5088 41.7195808,2.97650526 41.3848383,2.73675789" id="Fill-27" fill="#00A708"></path>
                        <path d="M21.5719042,40.6464 L21.5719042,40.6464 C21.5719042,40.6464 35.7502994,32.5076211 35.7502994,24.1083789 C35.7502994,19.9086316 35.7502994,9.93448421 35.7502994,9.93448421 C35.7502994,9.93448421 35.7502994,19.9086316 35.7502994,24.1083789 C35.7502994,32.5076211 21.5719042,40.6464 21.5719042,40.6464" id="Fill-34" fill="#FBCAC9"></path>
                        <path d="M37.7481916,6.55781053 C38.0228263,6.75461053 38.2464072,7.19141053 38.2464072,7.52993684 C38.2464072,7.52993684 38.2464072,19.2053053 38.2464072,24.1212632 C38.2464072,33.9531789 21.6493653,43.4804211 21.6493653,43.4804211 C21.502994,43.5642947 21.3103473,43.6062316 21.1177006,43.6062316 L21.1177006,47.8868211 C21.3525988,47.8868211 21.5872455,47.8357895 21.7655569,47.7334737 C21.7655569,47.7334737 41.9919521,36.1227789 41.9919521,24.1409684 C41.9919521,18.1498105 41.9919521,3.92134737 41.9919521,3.92134737 C41.9919521,3.5088 41.7195808,2.97650526 41.3848383,2.73675789 C41.3848383,2.73675789 37.8173533,0.177094737 21.1177006,0.177094737 L21.1177006,4.45743158 C34.8207665,4.45743158 37.7481916,6.55781053 37.7481916,6.55781053" id="Fill-40" fill="#00C609"></path>
                    </g>
                    <g id="lock" transform="translate(13.000000, 11.000000)" stroke="#FFFFFF" stroke-width="1.8" stroke-linecap="round" stroke-linejoin="round">
                        <rect id="Rectangle-path" x="0" y="7.875" width="16" height="10.125" rx="1.8"></rect>
                        <path d="M3.42857143,7.875 L3.42857143,4.375 C3.42857143,1.95875422 5.47526972,3.88578059e-16 8,0 C10.5247303,-7.77156117e-16 12.5714286,1.95875422 12.5714286,4.375 L12.5714286,7.875" id="Shape"></path>
                    </g>
                </g>
            </g>
        </g>
    </g>
</svg>