<?xml version="1.0" encoding="UTF-8"?>
<svg width="268px" height="55px" viewBox="0 0 268 55" version="1.1" xmlns="http://www.w3.org/2000/svg" xmlns:xlink="http://www.w3.org/1999/xlink">
    <!-- Generator: Sketch 47 (45396) - http://www.bohemiancoding.com/sketch -->
    <title>icn-visamaster</title>
    <desc>Created with Sketch.</desc>
    <defs>
        <linearGradient x1="0%" y1="50.0071685%" x2="100%" y2="50.0071685%" id="linearGradient-1">
            <stop stop-color="#231F5C" offset="0%"></stop>
            <stop stop-color="#034EA2" offset="100%"></stop>
        </linearGradient>
    </defs>
    <g id="*Checkout-no-Cart" stroke="none" stroke-width="1" fill="none" fill-rule="evenodd">
        <g id="Checkout-Style1-4A" transform="translate(-269.000000, -815.000000)">
            <g id="icn-visamaster" transform="translate(269.000000, 815.000000)">
                <rect id="Rectangle-2" stroke-opacity="0.12" stroke="#000000" x="0.5" y="0.5" width="267" height="54" rx="3"></rect>
                <g id="Asset-1" transform="translate(20.000000, 16.000000)" fill="url(#linearGradient-1)">
                    <g id="Layer_2">
                        <g>
                            <g id="Visa_Logo">
                                <path d="M28.0925926,0.421714286 L18.4075,23.5542857 L12.0866667,23.5542857 L7.31777778,5.09485714 C7.02657407,3.96 6.77648148,3.54171429 5.89601852,3.06171429 C4.4537037,2.28 2.08638889,1.54971429 0,1.09371429 L0.140462963,0.408 L10.315463,0.408 C11.6840571,0.413616999 12.84579,1.41347876 13.0562037,2.76685714 L15.5742593,16.1382857 L21.8162963,0.421714286 L28.0925926,0.421714286 Z M52.862037,16.0011429 C52.8894444,9.89828571 44.4274074,9.55885714 44.4856481,6.83314286 C44.5027778,6.00342857 45.2941667,5.11885714 47.0208333,4.896 C49.0428154,4.70257245 51.0795242,5.05788009 52.9168519,5.92457143 L53.9686111,1.02857143 C52.1797496,0.355396783 50.28521,0.00708032218 48.3740741,0 C42.4643519,0 38.3018519,3.144 38.2675926,7.64571429 C38.2299074,10.9714286 41.2378704,12.8331429 43.5092593,13.944 C45.8388889,15.0788571 46.62,15.8057143 46.6097222,16.8171429 C46.5925926,18.3702857 44.7528704,19.056 43.0296296,19.08 C40.0250926,19.128 38.2778704,18.2674286 36.8869444,17.6194286 L35.8009259,22.6868571 C37.1952778,23.328 39.775,23.8868571 42.4506481,23.9142857 C48.7337963,23.9142857 52.8414815,20.8114286 52.862037,16.0011429 L52.862037,16.0011429 Z M68.4705556,23.544 L74,23.544 L69.1728704,0.421714286 L64.0648148,0.421714286 C62.9487747,0.411255129 61.9395934,1.08410911 61.5193519,2.11885714 L52.5502778,23.5542857 L58.8265741,23.5542857 L60.0736111,20.0982857 L67.7442593,20.0982857 L68.4705556,23.544 Z M61.7968519,15.36 L64.9452778,6.67542857 L66.7575926,15.36 L61.7968519,15.36 Z M36.6402778,0.421714286 L31.6966667,23.5542857 L25.715,23.5542857 L30.662037,0.421714286 L36.6402778,0.421714286 Z" id="Shape"></path>
                            </g>
                        </g>
                    </g>
                </g>
                <g id="Asset-2-1" transform="translate(114.000000, 16.000000)">
                    <g id="Layer_2">
                        <g>
                            <g id="Layer_1-2">
                                <path d="M14.8312207,12.0631579 C14.8257906,8.46782653 16.4641364,5.06884583 19.2758685,2.84210526 C14.4830864,-0.965898725 7.57835547,-0.429179973 3.42658117,4.07410255 C-0.725193141,8.57738508 -0.725193141,15.5299833 3.42658117,20.0332659 C7.57835547,24.5365484 14.4830864,25.0732671 19.2758685,21.2652632 C16.4693415,19.0426381 14.8315754,15.6518417 14.8312207,12.0631579 L14.8312207,12.0631579 Z" id="Shape" fill="#E30D17"></path>
                                <path d="M14.8312207,12.0631579 C14.8286848,15.6551659 16.4667405,19.0500534 19.2758685,21.2747368 C22.085884,19.0481982 23.7253921,15.6522785 23.7253921,12.0584211 C23.7253921,8.46456364 22.085884,5.06864392 19.2758685,2.84210526 C16.4641364,5.06884583 14.8257906,8.46782653 14.8312207,12.0631579 L14.8312207,12.0631579 Z" id="Shape" fill="#EB610A"></path>
                                <path d="M57.4690141,8.90842105 C57.1920153,8.6341907 56.8624065,8.41931838 56.5001878,8.27684211 C56.1097775,8.12206505 55.6931507,8.04484724 55.2734272,8.04947368 C55.0279277,8.04998892 54.7828557,8.07005183 54.5405164,8.10947368 C54.2842973,8.1505867 54.0339784,8.22269024 53.7950235,8.32421053 C53.5450027,8.43192079 53.3118953,8.57552583 53.1030047,8.75052632 C52.8738558,8.94247965 52.6800809,9.17335754 52.5305164,9.43263158 C52.2733545,9.00329791 51.9062032,8.65106222 51.4673239,8.41263158 C50.9964824,8.16022287 50.469115,8.03302712 49.935446,8.04315789 C49.7340322,8.04405173 49.5330529,8.06201021 49.3346479,8.09684211 C49.118457,8.13265351 48.9072728,8.19413749 48.7055399,8.28 C48.2598429,8.47091419 47.8809314,8.79084579 47.6171831,9.19894737 L47.6171831,8.25157895 L45.9877934,8.25157895 L45.9877934,16.0326316 L47.6329108,16.0326316 L47.6329108,11.7157895 C47.6278991,11.4146424 47.6813179,11.1153948 47.7901878,10.8347368 C47.8858128,10.5980543 48.0281158,10.3832243 48.2085446,10.2031579 C48.3876557,10.0278499 48.602202,9.8932318 48.8376526,9.80842105 C49.0781171,9.71864053 49.3328895,9.67369295 49.5894366,9.67578947 C50.0764957,9.64764922 50.5502498,9.84137528 50.879108,10.2031579 C51.2047103,10.6254386 51.3687618,11.150897 51.3415023,11.6842105 L51.3415023,16.0326316 L52.9866197,16.0326316 L52.9866197,11.7157895 C52.981608,11.4146424 53.0350268,11.1153948 53.1438967,10.8347368 C53.2395217,10.5980543 53.3818247,10.3832243 53.5622535,10.2031579 C53.7413646,10.0278499 53.9559109,9.8932318 54.1913615,9.80842105 C54.431826,9.71864053 54.6865985,9.67369295 54.9431455,9.67578947 C55.4302046,9.64764922 55.9039587,9.84137528 56.2328169,10.2031579 C56.5528124,10.6275995 56.7112229,11.1528553 56.6794836,11.6842105 L56.6794836,16.0326316 L58.3246009,16.0326316 L58.3246009,11.1378947 C58.3310337,10.7064 58.2552283,10.2776499 58.1012676,9.87473684 C57.9586899,9.51254507 57.7434868,9.18363566 57.4690141,8.90842105 L57.4690141,8.90842105 Z" id="Shape" fill="#1D1D1B"></path>
                                <path d="M66.1475587,9.18947368 C65.8771107,8.84196166 65.5347545,8.55751961 65.1441315,8.35578947 C64.6984941,8.13559019 64.206293,8.02722739 63.7097653,8.04 C62.6736167,8.02865495 61.6783858,8.445439 60.9574178,9.19263158 C60.5992147,9.56634999 60.3180745,10.0074241 60.1301408,10.4905263 C59.7310884,11.550787 59.7310884,12.720792 60.1301408,13.7810526 C60.3180004,14.2641927 60.5991494,14.7052806 60.9574178,15.0789474 C61.6783858,15.82614 62.6736167,16.242924 63.7097653,16.2315789 C64.2061617,16.2429799 64.6980416,16.1346878 65.1441315,15.9157895 C65.5352269,15.7161707 65.877797,15.4326291 66.1475587,15.0852632 L66.1475587,16.0326316 L67.8398592,16.0326316 L67.8398592,8.24526316 L66.1475587,8.24526316 L66.1475587,9.18947368 Z M66.0815023,13.1305263 C65.9752988,13.4226437 65.8128339,13.6909053 65.6033803,13.92 C65.3967108,14.1438814 65.1460957,14.3223665 64.8673239,14.4442105 C64.2473311,14.70386 63.5496642,14.70386 62.9296714,14.4442105 C62.6508963,14.3182798 62.4012951,14.135452 62.1967606,13.9073684 C61.9927793,13.6758399 61.835718,13.4066071 61.7343662,13.1147368 C61.5181747,12.4877246 61.5181747,11.8059596 61.7343662,11.1789474 C61.835718,10.8870772 61.9927793,10.6178443 62.1967606,10.3863158 C62.4012951,10.1582322 62.6508963,9.97540444 62.9296714,9.84947368 C63.5496642,9.58982424 64.2473311,9.58982424 64.8673239,9.84947368 C65.1458282,9.97179301 65.3963524,10.1502133 65.6033803,10.3736842 C65.8127681,10.6028287 65.9752246,10.8710763 66.0815023,11.1631579 C66.3082182,11.8046188 66.3082182,12.5048549 66.0815023,13.1463158 L66.0815023,13.1305263 Z" id="Shape" fill="#1D1D1B"></path>
                                <path d="M75.6187793,12.1263158 C75.0331085,11.7065084 74.3494732,11.4454674 73.6339437,11.3684211 L72.831831,11.2452632 C72.6535837,11.2178947 72.4858216,11.1863158 72.3285446,11.1505263 C72.1876789,11.1211741 72.051257,11.0733982 71.92277,11.0084211 C71.8163612,10.9545552 71.723783,10.8767435 71.6522535,10.7810526 C71.5826027,10.6814057 71.5472599,10.5616551 71.5515962,10.44 C71.5587423,10.1702604 71.7053576,9.92374509 71.9384977,9.78947368 C72.2667627,9.60045685 72.6427789,9.51157039 73.0205634,9.53368421 C73.2611354,9.53385724 73.5011904,9.55605442 73.7377465,9.6 C73.9629492,9.64067988 74.1856088,9.69445461 74.4046009,9.76105263 C74.6007828,9.82041726 74.793042,9.89213842 74.9802347,9.97578947 C75.1298074,10.0427483 75.2757539,10.1175893 75.4174648,10.2 L76.14723,8.87368421 C75.7095712,8.59911291 75.232031,8.39456212 74.7317371,8.26736842 C74.1688405,8.12114353 73.5894053,8.04896041 73.0079812,8.05263158 C72.5563796,8.04599285 72.1061679,8.10448438 71.6711268,8.22631579 C71.3080556,8.327945 70.9668066,8.4960279 70.664554,8.72210526 C70.3963711,8.92980522 70.1808218,9.19813621 70.035446,9.50526316 C69.8833503,9.83004919 69.8069725,10.1853588 69.8121127,10.5442105 C69.7870114,11.1248877 70.0252729,11.6857243 70.4600939,12.0694737 C71.0279884,12.5071316 71.709414,12.7713441 72.4229108,12.8305263 L73.2313146,12.9347368 C73.5894388,12.9665419 73.9367856,13.0741688 74.2504695,13.2505263 C74.4458919,13.3637943 74.5659193,13.5734623 74.5650235,13.8 C74.5614659,14.0985023 74.3878423,14.3685531 74.1183568,14.4947368 C73.7063395,14.6899481 73.2520091,14.7779131 72.79723,14.7505263 C72.5106802,14.7527319 72.2244599,14.7305472 71.9416432,14.6842105 C71.7076202,14.6455861 71.4772018,14.5874912 71.25277,14.5105263 C71.0587938,14.4437794 70.8713643,14.3592105 70.6928638,14.2578947 C70.5338929,14.1631047 70.3815087,14.0575994 70.2367606,13.9421053 L69.4503756,15.2052632 C69.7229744,15.4115666 70.0198405,15.5833858 70.3342723,15.7168421 C70.6274823,15.8459095 70.9303979,15.9515017 71.2401878,16.0326316 C71.5171954,16.1020539 71.7989806,16.15061 72.0831925,16.1778947 C72.3474178,16.2031579 72.5791393,16.2157895 72.7783568,16.2157895 C73.2825478,16.2226387 73.7852876,16.1599479 74.2724883,16.0294737 C74.6715551,15.924721 75.0479695,15.7470151 75.3828638,15.5052632 C75.671364,15.293866 75.9071538,15.0182379 76.0717371,14.7 C76.2331826,14.3813016 76.315215,14.0280439 76.3107981,13.6705263 C76.3404156,13.0741102 76.0829941,12.4996852 75.6187793,12.1263158 L75.6187793,12.1263158 Z" id="Shape" fill="#1D1D1B"></path>
                                <path d="M91.4597183,9.17684211 C91.1388506,8.81695434 90.7438741,8.53141124 90.3021596,8.34 C89.8331806,8.13856611 89.3275314,8.03746927 88.8174648,8.04315789 C88.2787121,8.03554366 87.7439098,8.13648139 87.2446948,8.34 C86.7847263,8.52973427 86.3698888,8.81491187 86.0273709,9.17684211 C85.6826362,9.55146671 85.4162975,9.99173883 85.2441315,10.4715789 C85.0500155,11.0055843 84.9540936,11.5705367 84.9610329,12.1389474 C84.9536054,12.7133678 85.0528086,13.2841528 85.2535681,13.8221053 C85.4345578,14.3046388 85.7130036,14.7443759 86.0714085,15.1136842 C86.4283182,15.4758489 86.856961,15.7587885 87.3296244,15.9442105 C87.8406629,16.144464 88.3852975,16.2441698 88.9338498,16.2378947 C89.5026699,16.2409296 90.0687742,16.1589797 90.6135681,15.9947368 C91.1701194,15.8182873 91.6842132,15.5279737 92.1234272,15.1421053 L91.2804225,13.9326316 C90.9545881,14.1887352 90.5890226,14.3893058 90.1983568,14.5263158 C89.8239781,14.6666196 89.4278256,14.739319 89.028216,14.7410526 C88.7598864,14.7421073 88.4928422,14.7038083 88.2355399,14.6273684 C87.9858676,14.5538527 87.7521856,14.4338747 87.5466667,14.2736842 C87.3341911,14.1050366 87.1558741,13.8970763 87.0213615,13.6610526 C86.8601642,13.382863 86.7533985,13.0763139 86.7068075,12.7578947 L92.4379812,12.7578947 C92.4484664,12.6610526 92.4568545,12.5557895 92.4631455,12.4421053 C92.4694366,12.3284211 92.4694366,12.2231579 92.4631455,12.1263158 C92.4700804,11.5610361 92.3785303,10.9988907 92.1926291,10.4652632 C92.0324162,9.9927914 91.7836404,9.55545587 91.4597183,9.17684211 L91.4597183,9.17684211 Z M86.7414085,11.4726316 C86.7804242,11.2043433 86.8566568,10.9428587 86.9678873,10.6957895 C87.0699426,10.4691666 87.2116356,10.2627444 87.3862441,10.0863158 C87.5589984,9.91370562 87.765783,9.77925175 87.9933333,9.69157895 C88.2507674,9.5952332 88.5238881,9.54810619 88.7985915,9.55263158 C89.2891303,9.53340246 89.7662581,9.71587937 90.1197183,10.0578947 C90.4843429,10.4454169 90.7120154,10.9424941 90.7676995,11.4726316 L86.7414085,11.4726316 Z" id="Shape" fill="#1D1D1B"></path>
                                <path d="M113.940892,9.18947368 C113.66682,8.84053396 113.320048,8.55599147 112.924883,8.35578947 C112.479245,8.13559019 111.987044,8.02722739 111.490516,8.04 C110.454368,8.02865495 109.459137,8.445439 108.738169,9.19263158 C108.379966,9.56634999 108.098826,10.0074241 107.910892,10.4905263 C107.51184,11.550787 107.51184,12.720792 107.910892,13.7810526 C108.098752,14.2641927 108.379901,14.7052806 108.738169,15.0789474 C109.459137,15.82614 110.454368,16.242924 111.490516,16.2315789 C111.986913,16.2429799 112.478793,16.1346878 112.924883,15.9157895 C113.316035,15.7162576 113.658622,15.4327015 113.92831,15.0852632 L113.92831,16.0326316 L115.62061,16.0326316 L115.62061,8.24526316 L113.92831,8.24526316 L113.940892,9.18947368 Z M113.868545,13.1305263 C113.762341,13.4226437 113.599876,13.6909053 113.390423,13.92 C113.183753,14.1438814 112.933138,14.3223665 112.654366,14.4442105 C112.034373,14.70386 111.336706,14.70386 110.716714,14.4442105 C110.437939,14.3182798 110.188337,14.135452 109.983803,13.9073684 C109.779822,13.6758399 109.62276,13.4066071 109.521408,13.1147368 C109.305217,12.4877246 109.305217,11.8059596 109.521408,11.1789474 C109.62276,10.8870772 109.779822,10.6178443 109.983803,10.3863158 C110.188337,10.1582322 110.437939,9.97540444 110.716714,9.84947368 C111.336706,9.58982424 112.034373,9.58982424 112.654366,9.84947368 C112.93287,9.97179301 113.183395,10.1502133 113.390423,10.3736842 C113.598075,10.5981569 113.760441,10.8608927 113.868545,11.1473684 C114.095005,11.7888735 114.095005,12.4890212 113.868545,13.1305263 L113.868545,13.1305263 Z" id="Shape" fill="#1D1D1B"></path>
                                <path d="M82.8723944,14.4789474 C82.6155095,14.5790076 82.3426696,14.631436 82.0671362,14.6336842 C81.903151,14.6349591 81.740229,14.6071642 81.5858685,14.5515789 C81.4375578,14.4984326 81.3038941,14.410777 81.1958216,14.2957895 C81.0767522,14.1658462 80.9866716,14.0118924 80.9315962,13.8442105 C80.8620256,13.6291847 80.8290598,13.4039231 80.8340845,13.1778947 L80.8340845,9.78947368 L83.551831,9.78947368 L83.551831,8.24526316 L80.8403756,8.24526316 L80.8403756,5.88947368 L79.141784,5.88947368 L79.141784,8.24526316 L77.5941784,8.24526316 L77.5941784,9.78947368 L79.141784,9.78947368 L79.141784,13.2126316 C79.141784,14.2484211 79.3860876,15.0115789 79.8746948,15.5021053 C80.4298485,16.0177604 81.1706345,16.2835289 81.9255869,16.2378947 C82.3772127,16.2449009 82.8262203,16.1678094 83.2498592,16.0105263 C83.4988147,15.9143193 83.7405907,15.8003438 83.9733333,15.6694737 L83.394554,14.2484211 C83.2257433,14.3367146 83.0513108,14.4137241 82.8723944,14.4789474 L82.8723944,14.4789474 Z" id="Shape" fill="#1D1D1B"></path>
                                <path d="M98.1408451,8.04315789 C97.6985156,8.03637407 97.2598584,8.12466542 96.8543192,8.30210526 C96.4575254,8.53768097 96.1264381,8.87006868 95.891784,9.26842105 L95.891784,8.24526316 L94.3661972,8.24526316 L94.3661972,16.0326316 L95.9200939,16.0326316 L95.9200939,11.7473684 C95.915464,11.4458181 95.9622743,11.1456964 96.0584977,10.86 C96.1403564,10.6177115 96.2697776,10.3943616 96.439108,10.2031579 C96.5971785,10.0231388 96.7940428,9.88166054 97.0147418,9.78947368 C97.2519044,9.69503245 97.5051104,9.64783909 97.7602347,9.65052632 C97.9833368,9.65234057 98.2056918,9.67667351 98.4239437,9.72315789 C98.5389929,9.74646412 98.6524587,9.77705148 98.763662,9.81473684 L99.2638028,8.21052632 C99.1279599,8.16621311 98.9892246,8.13139305 98.8485915,8.10631579 C98.6148517,8.06542123 98.3781052,8.04429444 98.1408451,8.04315789 L98.1408451,8.04315789 Z" id="Shape" fill="#1D1D1B"></path>
                                <path d="M121.672629,8.04315789 C121.2303,8.03637407 120.791642,8.12466542 120.386103,8.30210526 C119.989309,8.53768097 119.658222,8.87006868 119.423568,9.26842105 L119.423568,8.24526316 L117.888545,8.24526316 L117.888545,16.0326316 L119.442441,16.0326316 L119.442441,11.7473684 C119.437811,11.4458181 119.484622,11.1456964 119.580845,10.86 C119.662704,10.6177115 119.792125,10.3943616 119.961455,10.2031579 C120.119526,10.0231388 120.31639,9.88166054 120.537089,9.78947368 C120.774252,9.69503245 121.027458,9.64783909 121.282582,9.65052632 C121.505684,9.65234057 121.728039,9.67667351 121.946291,9.72315789 C122.06134,9.74646412 122.174806,9.77705148 122.286009,9.81473684 L122.78615,8.21052632 C122.650307,8.16621311 122.511572,8.13139305 122.370939,8.10631579 C122.140305,8.06594565 121.906737,8.04482082 121.672629,8.04315789 L121.672629,8.04315789 Z" id="Shape" fill="#1D1D1B"></path>
                                <path d="M129.574225,5.08105263 L129.574225,9.18631579 C129.303777,8.83880377 128.961421,8.55436172 128.570798,8.35263158 C128.125161,8.13243229 127.63296,8.0240695 127.136432,8.03684211 C126.100283,8.02549706 125.105052,8.4422811 124.384085,9.18947368 C124.025881,9.5631921 123.744741,10.0042662 123.556808,10.4873684 C123.157755,11.5476291 123.157755,12.7176341 123.556808,13.7778947 C123.744667,14.2610348 124.025816,14.7021227 124.384085,15.0757895 C125.105052,15.8229821 126.100283,16.2397661 127.136432,16.2284211 C127.632828,16.239822 128.124708,16.1315299 128.570798,15.9126316 C128.961894,15.7130128 129.304464,15.4294712 129.574225,15.0821053 L129.574225,16.0294737 L131.266526,16.0294737 L131.266526,5.08105263 L129.574225,5.08105263 Z M129.508169,13.1305263 C129.40204,13.4226797 129.239567,13.6909551 129.030047,13.92 C128.823377,14.1438814 128.572762,14.3223665 128.293991,14.4442105 C127.673998,14.70386 126.976331,14.70386 126.356338,14.4442105 C126.077563,14.3182798 125.827962,14.135452 125.623427,13.9073684 C125.419446,13.6758399 125.262385,13.4066071 125.161033,13.1147368 C124.944841,12.4877246 124.944841,11.8059596 125.161033,11.1789474 C125.262385,10.8870772 125.419446,10.6178443 125.623427,10.3863158 C125.827962,10.1582322 126.077563,9.97540444 126.356338,9.84947368 C126.976331,9.58982424 127.673998,9.58982424 128.293991,9.84947368 C128.572539,9.9717144 128.823078,10.1501454 129.030047,10.3736842 C129.239501,10.602779 129.401966,10.8710405 129.508169,11.1631579 C129.734885,11.8046188 129.734885,12.5048549 129.508169,13.1463158 L129.508169,13.1305263 Z" id="Shape" fill="#1D1D1B"></path>
                                <path d="M102.198592,10.3389474 C102.418019,10.1174201 102.680286,9.94332166 102.969249,9.82736842 C103.275044,9.70360044 103.602085,9.6413687 103.931784,9.64421053 L103.931784,9.64421053 C104.293209,9.64101439 104.652265,9.70305308 104.991831,9.82736842 C105.294081,9.93793872 105.572675,10.1051088 105.812817,10.32 L106.633803,8.95578947 C106.320679,8.7058149 105.973164,8.50265614 105.602066,8.35263158 C104.531696,7.93522681 103.344454,7.93522681 102.274085,8.35263158 C101.782416,8.54991223 101.334488,8.84290672 100.956103,9.21473684 C100.582937,9.58518864 100.28677,10.0263537 100.084789,10.5126316 C99.6630281,11.5555028 99.6630281,12.722392 100.084789,13.7652632 C100.28706,14.2504544 100.583217,14.6905309 100.956103,15.06 C101.334436,15.4318954 101.782378,15.7248989 102.274085,15.9221053 C103.344454,16.33951 104.531696,16.33951 105.602066,15.9221053 C105.973184,15.7721207 106.320704,15.5689587 106.633803,15.3189474 L105.819108,13.9578947 C105.578921,14.1727241 105.300339,14.3398866 104.998122,14.4505263 C104.658539,14.5747752 104.299495,14.6368118 103.938075,14.6336842 L103.938075,14.6336842 C103.608376,14.636526 103.281335,14.5742943 102.97554,14.4505263 C102.686536,14.3346526 102.424254,14.160544 102.204883,13.9389474 C101.984548,13.7123243 101.811327,13.4439571 101.695305,13.1494737 C101.447853,12.497603 101.447853,11.7771338 101.695305,11.1252632 C101.809823,10.8324275 101.980862,10.565202 102.198592,10.3389474 L102.198592,10.3389474 Z" id="Shape" fill="#1D1D1B"></path>
                                <path d="M37.3029577,18.4894737 L37.3029577,18.0884211 L37.1425352,18.0884211 L37.1425352,17.9778947 L37.5860563,17.9778947 L37.5860563,18.0884211 L37.4319249,18.0884211 L37.4319249,18.4894737 L37.3029577,18.4894737 Z M38.1585446,18.4894737 L38.1585446,18.1357895 L38.0453052,18.4515789 L37.9194836,18.4515789 L37.8062441,18.1357895 L37.8062441,18.4894737 L37.6867136,18.4894737 L37.6867136,17.9810526 L37.8565728,17.9810526 L37.9823944,18.2968421 L38.108216,17.9810526 L38.2780751,17.9810526 L38.2780751,18.4926316 L38.1585446,18.4894737 Z" id="Shape" fill="#F69F00"></path>
                                <path d="M133.370892,15.2842105 C133.452949,15.2836176 133.534274,15.2997316 133.609953,15.3315789 C133.682448,15.3621236 133.748598,15.4060398 133.804977,15.4610526 C133.860776,15.5150635 133.905639,15.5794041 133.937089,15.6505263 C134.000954,15.7986216 134.000954,15.9666415 133.937089,16.1147368 C133.905501,16.1857812 133.860656,16.2500969 133.804977,16.3042105 C133.748598,16.3592234 133.682448,16.4031396 133.609953,16.4336842 C133.534274,16.4655316 133.452949,16.4816456 133.370892,16.4810526 C133.287833,16.4814698 133.205515,16.4653707 133.128685,16.4336842 C133.055973,16.4035493 132.98975,16.3595845 132.933662,16.3042105 C132.87893,16.2499712 132.83514,16.1856368 132.804695,16.1147368 C132.741939,15.9664131 132.741939,15.7988501 132.804695,15.6505263 C132.835,15.5795489 132.878807,15.5151888 132.933662,15.4610526 C133.051068,15.3474454 133.207827,15.2840427 133.370892,15.2842105 L133.370892,15.2842105 Z M133.370892,16.3136842 C133.428257,16.3137912 133.485021,16.3019637 133.537606,16.2789474 C133.588126,16.2574144 133.634047,16.2263228 133.672864,16.1873684 C133.711606,16.1483491 133.742567,16.1022602 133.764085,16.0515789 C133.808307,15.9433223 133.808307,15.8219409 133.764085,15.7136842 C133.742776,15.6628889 133.711789,15.6167619 133.672864,15.5778947 C133.633948,15.5390606 133.588052,15.5079856 133.537606,15.4863158 C133.485021,15.4632995 133.428257,15.4514719 133.370892,15.4515789 C133.312504,15.4513993 133.254698,15.4632209 133.201033,15.4863158 C133.14954,15.5077715 133.102573,15.5388482 133.062629,15.5778947 C133.023577,15.6166563 132.992571,15.6628103 132.971408,15.7136842 C132.903158,15.8755235 132.93921,16.0627309 133.062629,16.1873684 C133.102476,16.2265366 133.149467,16.2576297 133.201033,16.2789474 C133.254698,16.3020422 133.312504,16.3138639 133.370892,16.3136842 L133.370892,16.3136842 Z M133.405493,15.6157895 C133.46387,15.6117525 133.521794,15.6285269 133.569061,15.6631579 C133.606806,15.6952457 133.627698,15.7430188 133.625681,15.7926316 C133.627335,15.8325433 133.612545,15.8713775 133.584789,15.9 C133.552599,15.929762 133.511865,15.9485512 133.468404,15.9536842 L133.631972,16.1431579 L133.455822,16.1431579 L133.307981,15.9568421 L133.292254,15.9568421 L133.292254,16.1431579 L133.144413,16.1431579 L133.144413,15.6157895 L133.405493,15.6157895 Z M133.292254,15.7452632 L133.292254,15.8431579 L133.402347,15.8431579 C133.419885,15.8477038 133.438284,15.8477038 133.455822,15.8431579 C133.469216,15.8355665 133.476682,15.8205753 133.474695,15.8052632 C133.475884,15.7900966 133.468621,15.7755134 133.455822,15.7673684 C133.438345,15.7623659 133.419824,15.7623659 133.402347,15.7673684 L133.292254,15.7452632 Z" id="Shape" fill="#1D1D1B"></path>
                                <path d="M26.5326291,0.315789474 C23.8986444,0.3092425 21.3403413,1.1998715 19.2758685,2.84210526 C22.082344,5.06881697 23.719418,8.46250849 23.719418,12.0536842 C23.719418,15.6448599 22.082344,19.0385514 19.2758685,21.2652632 C23.2963657,24.4681857 28.9266364,24.6669391 33.1612927,21.7554308 C37.395949,18.8439224 39.2464099,13.5018441 37.7249161,8.58074932 C36.2034223,3.65965454 31.6651666,0.308373304 26.5326291,0.315789474 L26.5326291,0.315789474 Z" id="Shape" fill="#F69F00"></path>
                            </g>
                        </g>
                    </g>
                </g>
            </g>
        </g>
    </g>
</svg>