<?xml version="1.0" encoding="UTF-8"?>
<svg width="100px" height="100px" viewBox="0 0 100 100" version="1.1" xmlns="http://www.w3.org/2000/svg" xmlns:xlink="http://www.w3.org/1999/xlink">
    <!-- Generator: Sketch 48.2 (47327) - http://www.bohemiancoding.com/sketch -->
    <title>icn/d/sales/ship/carrier_menu</title>
    <desc>Created with Sketch.</desc>
    <defs>
        <linearGradient x1="50%" y1="0%" x2="50%" y2="100%" id="linearGradient-1">
            <stop stop-color="#2196F3" offset="0%"></stop>
            <stop stop-color="#0D47A1" offset="100%"></stop>
        </linearGradient>
    </defs>
    <g id="**Icon-Set" stroke="none" stroke-width="1" fill="none" fill-rule="evenodd">
        <g id="icn/d/sales/ship/carrier_menu">
            <g id="icn/d/sales/shipcarrier_menu_gradients">
                <g>
                    <circle id="Oval-793" fill="url(#linearGradient-1)" cx="50" cy="50" r="50"></circle>
                    <g id="if_Business_E-commerce__Logistics_67_2237372" transform="translate(17.000000, 25.000000)" fill="#FFFFFF" fill-rule="nonzero">
                        <path d="M53.1183956,15.984058 L53.1183956,21.6898551 C53.1183956,22.0297101 53.394,22.3057971 53.7341538,22.3057971 L64.4914286,22.3057971 C64.7082857,22.3057971 64.9077363,22.192029 65.0201538,22.0065217 C65.1311209,21.8210145 65.1369231,21.5905797 65.0353846,21.4 L61.9863297,15.6942029 C61.8797143,15.4942029 61.6701099,15.3688406 61.4423736,15.3688406 L53.7341538,15.3688406 C53.394,15.3681159 53.1183956,15.6442029 53.1183956,15.984058 Z" id="Shape"></path>
                        <path d="M1.16841758,49.3876812 L31.7242418,49.3876812 C33.5432308,49.3876812 35.0227912,47.9086957 35.0227912,46.0898551 L35.0227912,22.3036232 C35.0227912,21.9311594 34.7203516,21.6289855 34.3468352,21.6289855 L23.5765055,21.6289855 C23.2037143,21.6289855 22.9012747,21.9311594 22.9012747,22.3036232 L22.9027253,36.5833333 L17.7815604,33.4376812 C17.5516484,33.2963768 17.2593626,33.3057971 17.0374286,33.4608696 L12.6118022,36.584058 L12.6118022,22.3036232 C12.6118022,21.9311594 12.3093626,21.6289855 11.9365714,21.6289855 L1.16841758,21.6289855 C0.794901099,21.6289855 0.493186813,21.9311594 0.493186813,22.3036232 L0.493186813,48.7137681 C0.493186813,49.0855072 0.794901099,49.3876812 1.16841758,49.3876812 Z M6.25476923,42.9536232 L15.8501538,42.9536232 C16.4093407,42.9536232 16.8640879,43.407971 16.8640879,43.965942 C16.8640879,44.523913 16.4093407,44.9775362 15.8501538,44.9775362 L6.25476923,44.9775362 C5.69630769,44.9775362 5.24228571,44.523913 5.24228571,43.965942 C5.24228571,43.407971 5.69630769,42.9536232 6.25476923,42.9536232 Z" id="Shape"></path>
                        <path d="M62.3707253,31.6768116 L65.6895824,31.6768116 L65.6895824,24.7681159 L52.1936703,24.7681159 C51.3421978,24.7681159 50.6531868,24.0789855 50.6531868,23.2289855 L50.6531868,14.4449275 C50.6531868,13.5942029 51.3421978,12.9057971 52.1936703,12.9057971 L59.796,12.9057971 L58.6594945,10.7768116 L47.1065934,10.7768116 L47.1065934,31.6768116 L51.0716703,31.6768116 C52.0203297,29.4949275 54.193978,27.9644928 56.7201099,27.9644928 C59.246967,27.9644928 61.4213407,29.4949275 62.3707253,31.6768116 Z" id="Shape"></path>
                        <path d="M53.0233846,34.1202899 C53.0233846,36.1565217 54.6813626,37.8137681 56.7201099,37.8137681 C58.7595824,37.8137681 60.4175604,36.1565217 60.4175604,34.1202899 C60.4175604,32.0833333 58.7595824,30.4268116 56.7201099,30.4268116 C54.6820879,30.4268116 53.0233846,32.0833333 53.0233846,34.1202899 Z" id="Shape"></path>
                        <path d="M11.2482857,0.542753623 L11.2482857,19.2253623 L35.8865934,19.2253623 C36.7373407,19.2253623 37.4278022,19.9137681 37.4278022,20.7652174 L37.4278022,31.6775362 L44.0256298,31.6775362 L44.0256264,9.2384058 L44.0256264,4.43115942 C44.0256264,4.38333333 44.0357802,2.62463768 42.9435165,1.51956522 C42.2936703,0.862318841 41.366044,0.542753623 40.1091429,0.542753623 L11.2482857,0.542753623 Z" id="Shape"></path>
                    </g>
                </g>
            </g>
        </g>
    </g>
</svg>