<?xml version="1.0" encoding="UTF-8"?>
<svg width="100px" height="100px" viewBox="0 0 100 100" version="1.1" xmlns="http://www.w3.org/2000/svg" xmlns:xlink="http://www.w3.org/1999/xlink">
    <!-- Generator: Sketch 48.2 (47327) - http://www.bohemiancoding.com/sketch -->
    <title>icn/d/sales/ship/lalamove_menu</title>
    <desc>Created with Sketch.</desc>
    <defs>
        <circle id="path-1" cx="50" cy="50" r="50"></circle>
    </defs>
    <g id="**Icon-Set" stroke="none" stroke-width="1" fill="none" fill-rule="evenodd">
        <g id="icn/d/sales/ship/lalamove_menu">
            <g id="icn_menu_carrier_lalamove">
                <g>
                    <mask id="mask-2" fill="white">
                        <use xlink:href="#path-1"></use>
                    </mask>
                    <use id="Mask" fill="#F16622" xlink:href="#path-1"></use>
                    <path d="M34.0401636,74.8362165 C37.5596379,66.9104353 41.0791122,58.984654 44.594685,51.0678013 C41.7588175,49.5365513 39.6859812,47.187221 37.409707,45.078683 C37.4361818,45.0220424 37.4626566,44.9654018 37.4891314,44.9090402 C42.3128372,46.4899554 47.136543,48.0711496 51.9920185,49.6626674 C51.8292683,48.640346 51.0793352,47.7271205 50.2112409,47.4422433 C45.3947808,45.8624442 40.5875173,44.2541853 35.754615,42.7265625 C34.6184287,42.3674665 34.0164757,41.5212054 33.334541,40.6704799 C38.8524435,42.4799107 44.3700673,44.2893415 50.0387368,46.1478795 C49.4624225,44.9916295 49.0064989,44.1233259 47.7502007,43.7315848 C42.3373612,42.0446429 36.95239,40.265067 31.590828,38.4210379 C30.7511593,38.1322545 30.0853881,37.3367746 29.3390779,36.7753906 C29.388962,36.6953125 29.438846,36.6152344 29.4887301,36.5351562 C35.5857337,38.5348772 41.6827373,40.5348772 47.9449993,42.5892857 C47.3419316,41.4835379 46.9456459,40.5683594 45.6896263,40.1732701 C39.815847,38.3256138 33.9791323,36.359096 28.1217952,34.4578683 C27.4367949,34.2354911 26.8816605,33.9023438 26.4321465,33.3417969 C25.978731,32.7762277 25.4793329,32.2477679 25,31.703125 C25.0326058,31.6523437 25.0654903,31.6012835 25.0983747,31.5505022 C34.3625987,34.6054688 43.6271013,37.6604353 52.8316873,40.6955915 C52.8316873,39.7798549 52.7868195,38.9411272 52.8403264,38.108817 C52.9766019,35.9938616 54.0860347,34.4827009 55.8818611,33.4497768 C57.6202791,32.4497768 59.5437419,32.0142299 61.5101217,31.9882812 C63.0707406,31.9679129 64.3978241,31.5432478 65.6886788,30.6992187 C68.5042025,28.8585379 71.3693316,27.0945871 74.2152316,25.3005022 C74.4351117,25.1618304 74.6625162,25.0343192 75,25 C74.8924288,25.1358817 74.8010211,25.2893415 74.6747782,25.4048549 C71.4228385,28.3875558 68.1597516,31.3579799 64.9234182,34.3579799 C64.5984751,34.6593192 64.3719066,35.109096 64.2038614,35.531808 C63.1677219,38.1381138 62.1719913,40.7606027 61.1414255,43.3688616 C60.6013399,44.7354911 60.0275338,46.0890067 59.4503835,47.4402902 C58.3019352,50.1291853 56.402439,52.2067522 54.0216592,53.8250558 C52.1820796,55.0756138 50.2875998,56.2600446 48.3393343,57.3314732 C46.5379342,58.3219866 44.9937575,59.5728237 43.8634236,61.2625558 C42.1916106,63.7614397 40.6585812,66.3532366 38.9987515,68.8607701 C37.8692536,70.5678013 36.6411022,72.2103795 35.419918,73.8543527 C35.0977616,74.2885045 34.6390511,74.6210938 34.2433228,75 C34.1756031,74.9455915 34.1078834,74.890625 34.0401636,74.8362165" id="Fill-1" fill="#FFFFFF" mask="url(#mask-2)"></path>
                </g>
            </g>
        </g>
    </g>
</svg>