<?xml version="1.0" encoding="UTF-8"?>
<svg width="100px" height="100px" viewBox="0 0 100 100" version="1.1" xmlns="http://www.w3.org/2000/svg" xmlns:xlink="http://www.w3.org/1999/xlink">
    <!-- Generator: Sketch 48.2 (47327) - http://www.bohemiancoding.com/sketch -->
    <title>icn/d/sales/ship/manual_menu</title>
    <desc>Created with Sketch.</desc>
    <defs>
        <linearGradient x1="50%" y1="0%" x2="50%" y2="100%" id="linearGradient-1">
            <stop stop-color="#FF5722" offset="0%"></stop>
            <stop stop-color="#BF360C" offset="100%"></stop>
        </linearGradient>
    </defs>
    <g id="**Icon-Set" stroke="none" stroke-width="1" fill="none" fill-rule="evenodd">
        <g id="icn/d/sales/ship/manual_menu">
            <g id="icn/d/sales/shipmanual_menu_gradients">
                <g>
                    <circle id="Oval-793" fill="url(#linearGradient-1)" cx="50" cy="50" r="50"></circle>
                    <g id="if__settings_2003635" transform="translate(25.000000, 25.000000)" fill-rule="nonzero">
                        <circle id="Oval" fill="#000000" cx="17.887931" cy="33.8362069" r="1.72413793"></circle>
                        <path d="M17.887931,37.7155172 C15.7327586,37.7155172 14.0086207,35.9913793 14.0086207,33.8362069 C14.0086207,31.6810345 15.7327586,29.9568966 17.887931,29.9568966 C20.0431034,29.9568966 21.7672414,31.6810345 21.7672414,33.8362069 C21.7672414,35.9913793 20.0431034,37.7155172 17.887931,37.7155172 Z" id="Shape" fill="#FFFFFF"></path>
                        <path d="M48.7068966,0.215517241 L32.112069,0.215517241 L17.887931,0.215517241 L1.29310345,0.215517241 C0.646551724,0.215517241 0.215517241,0.646551724 0.215517241,1.29310345 L0.215517241,48.7068966 C0.215517241,49.3534483 0.646551724,49.7844828 1.29310345,49.7844828 L48.7068966,49.7844828 C49.3534483,49.7844828 49.7844828,49.3534483 49.7844828,48.7068966 L49.7844828,1.29310345 C49.7844828,0.646551724 49.3534483,0.215517241 48.7068966,0.215517241 Z M28.0172414,38.362069 L26.7241379,40.5172414 C26.2931034,41.1637931 25.4310345,41.5948276 24.5689655,41.3793103 L23.2758621,40.9482759 C22.8448276,41.1637931 22.6293103,41.3793103 22.1982759,41.5948276 C21.7672414,41.8103448 21.5517241,42.0258621 21.1206897,42.2413793 L20.9051724,43.5344828 C20.6896552,44.3965517 20.0431034,44.8275862 19.1810345,44.8275862 L16.5948276,44.8275862 C15.7327586,44.8275862 15.0862069,44.1810345 14.8706897,43.3189655 L14.4396552,42.2413793 C13.5775862,42.0258621 12.9310345,41.5948276 12.2844828,40.9482759 L10.9913793,41.3793103 C10.1293103,41.5948276 9.26724138,41.1637931 8.8362069,40.5172414 L7.54310345,38.362069 C7.11206897,37.5 7.32758621,36.637931 7.97413793,35.9913793 L8.8362069,35.1293103 C8.62068966,34.2672414 8.62068966,33.4051724 8.8362069,32.5431034 L7.97413793,31.6810345 C7.32758621,31.0344828 7.11206897,30.1724138 7.54310345,29.3103448 L8.8362069,27.1551724 C9.26724138,26.5086207 10.1293103,26.0775862 10.9913793,26.2931034 L12.2844828,26.7241379 C12.7155172,26.5086207 12.9310345,26.2931034 13.362069,26.0775862 C13.7931034,25.862069 14.0086207,25.6465517 14.4396552,25.4310345 L14.6551724,24.137931 C14.8706897,23.4913793 15.7327586,22.8448276 16.5948276,22.8448276 L19.1810345,22.8448276 C20.0431034,22.8448276 20.6896552,23.4913793 20.9051724,24.3534483 L21.1206897,25.6465517 C21.9827586,25.862069 22.6293103,26.2931034 23.2758621,26.9396552 L24.5689655,26.5086207 C25.4310345,26.2931034 26.2931034,26.7241379 26.7241379,27.3706897 L28.0172414,29.5258621 C28.4482759,30.1724138 28.2327586,31.25 27.5862069,31.8965517 L26.7241379,32.7586207 C26.9396552,33.6206897 26.9396552,34.4827586 26.7241379,35.3448276 L27.5862069,36.2068966 C28.2327586,36.637931 28.4482759,37.5 28.0172414,38.362069 Z M31.0344828,12.5 L18.9655172,12.5 L18.9655172,2.37068966 L31.25,2.37068966 L31.25,12.5 L31.0344828,12.5 Z M43.75,43.5344828 L38.7931034,43.5344828 L38.7931034,41.3793103 L43.75,41.3793103 L43.75,43.5344828 Z M43.75,39.4396552 L35.7758621,39.4396552 L35.7758621,37.2844828 L43.75,37.2844828 L43.75,39.4396552 Z M43.75,35.5603448 L35.7758621,35.5603448 L35.7758621,33.4051724 L43.75,33.4051724 L43.75,35.5603448 Z" id="Shape" fill="#FFFFFF"></path>
                    </g>
                </g>
            </g>
        </g>
    </g>
</svg>