<?xml version="1.0" encoding="UTF-8"?>
<svg width="100px" height="100px" viewBox="0 0 100 100" version="1.1" xmlns="http://www.w3.org/2000/svg" xmlns:xlink="http://www.w3.org/1999/xlink">
    <!-- Generator: Sketch 48.2 (47327) - http://www.bohemiancoding.com/sketch -->
    <title>icn/d/sales/ship/opt_flat_menu</title>
    <desc>Created with Sketch.</desc>
    <defs>
        <linearGradient x1="50%" y1="0%" x2="50%" y2="100%" id="linearGradient-1">
            <stop stop-color="#FF9800" offset="0%"></stop>
            <stop stop-color="#E65100" offset="100%"></stop>
        </linearGradient>
    </defs>
    <g id="**Icon-Set" stroke="none" stroke-width="1" fill="none" fill-rule="evenodd">
        <g id="icn/d/sales/ship/opt_flat_menu">
            <g id="icn/d/sales/opt_free_menu_gradients">
                <g id="icn/d/sales/opt_flat_menu_gradients">
                    <circle id="Oval-793" fill="url(#linearGradient-1)" cx="50" cy="50" r="50"></circle>
                    <g id="if_free-delivery_553678" transform="translate(25.000000, 28.000000)" fill="#FFFFFF" fill-rule="nonzero">
                        <path d="M14.28125,28.8619048 C10.3645833,28.8619048 7.19791667,32.0571429 7.19791667,35.9857143 C7.19791667,39.9142857 10.375,43.1095238 14.28125,43.1095238 C18.1875,43.1095238 21.3541667,39.9247619 21.3541667,35.9857143 C21.3645833,32.0571429 18.1875,28.8619048 14.28125,28.8619048 Z M14.28125,38.4371429 C12.9375,38.4371429 11.84375,37.3371429 11.84375,35.9857143 C11.84375,34.6342857 12.9375,33.5342857 14.28125,33.5342857 C15.625,33.5342857 16.71875,34.6342857 16.71875,35.9857143 C16.71875,37.3371429 15.625,38.4371429 14.28125,38.4371429 Z M12.5208333,13.6819048 L11.6770833,13.6819048 L11.6770833,16.1647619 L12.5208333,16.1647619 C12.84375,16.1647619 13.1666667,16.0285714 13.3958333,15.7980952 C13.625,15.567619 13.75,15.2533333 13.75,14.9285714 L13.75,14.7714286 C13.6666667,14.1533333 13.1458333,13.6819048 12.5208333,13.6819048 Z M49.1875,21.9790476 L46.7916667,11.1361905 C46.5520833,10.067619 45.4895833,9.20857143 44.40625,9.20857143 L34.0520833,9.20857143 C32.96875,9.20857143 32.09375,10.0885714 32.09375,11.1780952 L32.09375,28.1180952 C33.4270833,27.3428571 34.9583333,26.892381 36.6041667,26.892381 C40.8020833,26.892381 44.3333333,29.7942857 45.34375,33.712381 L46.9479167,33.712381 C48.4270833,33.712381 49.625,32.507619 49.625,31.02 L49.625,25.8866667 C49.6041667,24.7866667 49.4166667,23.047619 49.1875,21.9790476 Z M43.4895833,20.6380952 L37.2916667,20.6380952 C36.2083333,20.6380952 35.3333333,19.7580952 35.3333333,18.6685714 L35.3333333,14.4466667 C35.3333333,13.3571429 36.2083333,12.4771429 37.2916667,12.4771429 L41.8645833,12.4771429 C42.9479167,12.4771429 44,13.3466667 44.2083333,14.4152381 L45.0625,18.7104762 C45.28125,19.7790476 44.5729167,20.6380952 43.4895833,20.6380952 Z M31.03125,28.8304762 L31.03125,4.84 C31.03125,2.67142857 29.2604167,0.89047619 27.1041667,0.89047619 L4.3125,0.89047619 C2.15625,0.89047619 0.395833333,2.66095238 0.395833333,4.84 L0.395833333,29.7628571 C0.395833333,31.9314286 2.15625,33.712381 4.3125,33.712381 L5.53125,33.712381 C6.54166667,29.7942857 10.0729167,26.892381 14.28125,26.892381 C18.4791667,26.892381 22.0104167,29.7942857 23.0208333,33.712381 L27.1041667,33.712381 C27.3645833,33.712381 27.6145833,33.6809524 27.8541667,33.6390476 C28.375,31.7009524 29.5104167,30.0247619 31.03125,28.8304762 Z M8.26041667,13.6819048 L5.51041667,13.6819048 L5.51041667,15.232381 L7.96875,15.232381 C8.47916667,15.232381 8.85416667,15.62 8.85416667,16.1228571 C8.85416667,16.6361905 8.46875,17.0238095 7.96875,17.0238095 L5.51041667,17.0238095 L5.51041667,19.8209524 C5.51041667,20.3342857 5.125,20.7114286 4.625,20.7114286 C4.11458333,20.7114286 3.73958333,20.3238095 3.73958333,19.8209524 L3.73958333,12.7809524 C3.73958333,12.2990476 4.14583333,11.88 4.625,11.88 L8.27083333,11.88 C8.78125,11.88 9.16666667,12.267619 9.16666667,12.7809524 C9.15625,13.2942857 8.77083333,13.6819048 8.26041667,13.6819048 Z M14.6458333,20.732381 C14.3333333,20.732381 14.0520833,20.5647619 13.8958333,20.292381 L12.4166667,17.9561905 L11.6770833,17.9561905 L11.6770833,19.8209524 C11.6770833,20.3342857 11.2916667,20.7114286 10.7916667,20.7114286 C10.28125,20.7114286 9.90625,20.3238095 9.90625,19.8209524 L9.90625,12.7809524 C9.90625,12.2990476 10.3125,11.88 10.7916667,11.88 L12.5208333,11.88 C14.1875,11.88 15.5416667,13.2419048 15.5416667,14.907619 C15.5416667,15.9342857 15.0416667,16.8666667 14.2083333,17.4219048 L15.40625,19.3285714 C15.5104167,19.4961905 15.5520833,19.6638095 15.5520833,19.8209524 C15.5625,20.3133333 15.1458333,20.732381 14.6458333,20.732381 Z M20.6458333,15.232381 C21.15625,15.232381 21.53125,15.62 21.53125,16.1228571 C21.53125,16.6361905 21.1458333,17.0238095 20.6458333,17.0238095 L18.1875,17.0238095 L18.1875,18.9304762 L20.9375,18.9304762 C21.4479167,18.9304762 21.8333333,19.3180952 21.8333333,19.8314286 C21.8333333,20.3447619 21.4479167,20.7219048 20.9375,20.7219048 L17.2916667,20.7219048 C16.8125,20.7219048 16.40625,20.3133333 16.40625,19.8314286 L16.40625,12.7914286 C16.40625,12.3095238 16.8125,11.8904762 17.2916667,11.8904762 L20.9375,11.8904762 C21.4479167,11.8904762 21.8333333,12.2780952 21.8333333,12.7914286 C21.8333333,13.3047619 21.4479167,13.6819048 20.9375,13.6819048 L18.1875,13.6819048 L18.1875,15.232381 L20.6458333,15.232381 Z M26.9166667,15.232381 C27.4270833,15.232381 27.8020833,15.62 27.8020833,16.1228571 C27.8020833,16.6361905 27.4166667,17.0238095 26.9166667,17.0238095 L24.4583333,17.0238095 L24.4583333,18.9304762 L27.2083333,18.9304762 C27.71875,18.9304762 28.09375,19.3180952 28.09375,19.8314286 C28.09375,20.3447619 27.7083333,20.7219048 27.2083333,20.7219048 L23.5625,20.7219048 C23.0833333,20.7219048 22.6770833,20.3133333 22.6770833,19.8314286 L22.6770833,12.7914286 C22.6770833,12.3095238 23.0833333,11.8904762 23.5625,11.8904762 L27.2083333,11.8904762 C27.71875,11.8904762 28.09375,12.2780952 28.09375,12.7914286 C28.09375,13.3047619 27.7083333,13.6819048 27.2083333,13.6819048 L24.4583333,13.6819048 L24.4583333,15.232381 L26.9166667,15.232381 Z M36.59375,28.8619048 C32.6770833,28.8619048 29.5104167,32.0571429 29.5104167,35.9857143 C29.5104167,39.9142857 32.6875,43.1095238 36.59375,43.1095238 C40.5,43.1095238 43.6666667,39.9247619 43.6666667,35.9857143 C43.6666667,32.0571429 40.5,28.8619048 36.59375,28.8619048 Z M36.5833333,38.4371429 C35.2395833,38.4371429 34.1458333,37.3371429 34.1458333,35.9857143 C34.1458333,34.6342857 35.2395833,33.5342857 36.5833333,33.5342857 C37.9270833,33.5342857 39.0208333,34.6342857 39.0208333,35.9857143 C39.0208333,37.3371429 37.9270833,38.4371429 36.5833333,38.4371429 Z" id="Shape"></path>
                    </g>
                </g>
            </g>
        </g>
    </g>
</svg>