<?xml version="1.0" encoding="UTF-8"?>
<svg width="100px" height="100px" viewBox="0 0 100 100" version="1.1" xmlns="http://www.w3.org/2000/svg" xmlns:xlink="http://www.w3.org/1999/xlink">
    <!-- Generator: Sketch 48.2 (47327) - http://www.bohemiancoding.com/sketch -->
    <title>icn/d/sales/ship/opt_cal_menu</title>
    <desc>Created with Sketch.</desc>
    <defs>
        <linearGradient x1="50%" y1="0%" x2="50%" y2="100%" id="linearGradient-1">
            <stop stop-color="#8BC34A" offset="0%"></stop>
            <stop stop-color="#33691E" offset="100%"></stop>
        </linearGradient>
    </defs>
    <g id="**Icon-Set" stroke="none" stroke-width="1" fill="none" fill-rule="evenodd">
        <g id="icn/d/sales/ship/opt_cal_menu">
            <g id="icn/d/sales/opt_flat_menu_gradients">
                <g id="icn/d/sales/opt_cal_menu_gradients">
                    <circle id="Oval-793" fill="url(#linearGradient-1)" cx="50" cy="50" r="50"></circle>
                    <g id="if_delivery-truck_553680" transform="translate(25.000000, 29.000000)" fill="#FFFFFF" fill-rule="nonzero">
                        <path d="M14.28125,28.9905 C10.7708333,28.9905 7.92708333,31.857 7.92708333,35.385 C7.92708333,38.913 10.7708333,41.7795 14.28125,41.7795 C17.78125,41.7795 20.625,38.913 20.625,35.385 C20.625,31.857 17.78125,28.9905 14.28125,28.9905 Z M14.28125,37.59 C13.0729167,37.59 12.09375,36.603 12.09375,35.385 C12.09375,34.167 13.0729167,33.18 14.28125,33.18 C15.4895833,33.18 16.46875,34.167 16.46875,35.385 C16.46875,36.603 15.4895833,37.59 14.28125,37.59 Z M49.1875,21.3465 L46.7916667,10.479 C46.5520833,9.408 45.4895833,8.547 44.40625,8.547 L34.0520833,8.547 C32.96875,8.547 32.09375,9.429 32.09375,10.521 L32.09375,27.4995 C33.4270833,26.7225 34.9583333,26.271 36.6041667,26.271 C40.8020833,26.271 44.3333333,29.1795 45.34375,33.1065 L46.9479167,33.1065 C48.4270833,33.1065 49.625,31.899 49.625,30.408 L49.625,25.263 C49.6145833,24.1605 49.4166667,22.4175 49.1875,21.3465 Z M43.4895833,20.013 L37.2916667,20.013 C36.2083333,20.013 35.3333333,19.131 35.3333333,18.039 L35.3333333,13.8075 C35.3333333,12.7155 36.2083333,11.8335 37.2916667,11.8335 L41.8645833,11.8335 C42.9479167,11.8335 44,12.705 44.2083333,13.776 L45.0625,18.081 C45.28125,19.1415 44.5729167,20.013 43.4895833,20.013 Z M31.03125,28.2135 L31.03125,4.1685 C31.03125,1.995 29.2604167,0.21 27.1041667,0.21 L4.3125,0.21 C2.15625,0.21 0.395833333,1.9845 0.395833333,4.1685 L0.395833333,29.148 C0.395833333,31.3215 2.15625,33.1065 4.3125,33.1065 L5.53125,33.1065 C6.54166667,29.1795 10.0729167,26.271 14.28125,26.271 C18.4791667,26.271 22.0104167,29.1795 23.0208333,33.1065 L27.1041667,33.1065 C27.3645833,33.1065 27.6145833,33.075 27.8541667,33.033 C28.375,31.0905 29.5104167,29.4105 31.03125,28.2135 Z M24.3020833,22.5435 L7.34375,22.5435 C6.66666667,22.5435 6.125,21.9975 6.125,21.315 C6.125,20.6325 6.66666667,20.0865 7.34375,20.0865 L24.3125,20.0865 C24.9895833,20.0865 25.53125,20.6325 25.53125,21.315 C25.53125,21.9975 24.9791667,22.5435 24.3020833,22.5435 Z M24.3020833,16.107 L7.34375,16.107 C6.66666667,16.107 6.125,15.561 6.125,14.8785 C6.125,14.196 6.66666667,13.65 7.34375,13.65 L24.3125,13.65 C24.9895833,13.65 25.53125,14.196 25.53125,14.8785 C25.53125,15.561 24.9791667,16.107 24.3020833,16.107 Z M24.3020833,9.6705 L7.34375,9.6705 C6.66666667,9.6705 6.125,9.1245 6.125,8.442 C6.125,7.7595 6.66666667,7.2135 7.34375,7.2135 L24.3125,7.2135 C24.9895833,7.2135 25.53125,7.7595 25.53125,8.442 C25.53125,9.1245 24.9791667,9.6705 24.3020833,9.6705 Z M36.59375,28.9905 C33.0833333,28.9905 30.2395833,31.857 30.2395833,35.385 C30.2395833,38.913 33.0833333,41.7795 36.59375,41.7795 C40.09375,41.7795 42.9375,38.913 42.9375,35.385 C42.9270833,31.857 40.09375,28.9905 36.59375,28.9905 Z M36.5833333,37.59 C35.375,37.59 34.3958333,36.603 34.3958333,35.385 C34.3958333,34.167 35.375,33.18 36.5833333,33.18 C37.7916667,33.18 38.7604167,34.167 38.7604167,35.385 C38.7708333,36.603 37.7916667,37.59 36.5833333,37.59 Z" id="Shape"></path>
                    </g>
                </g>
            </g>
        </g>
    </g>
</svg>