<?xml version="1.0" encoding="UTF-8"?>
<svg width="100px" height="100px" viewBox="0 0 100 100" version="1.1" xmlns="http://www.w3.org/2000/svg" xmlns:xlink="http://www.w3.org/1999/xlink">
    <!-- Generator: Sketch 48.2 (47327) - http://www.bohemiancoding.com/sketch -->
    <title>icn/d/sales/ship/opt_free_menu</title>
    <desc>Created with Sketch.</desc>
    <defs>
        <linearGradient x1="50%" y1="0%" x2="50%" y2="100%" id="linearGradient-1">
            <stop stop-color="#F44336" offset="0%"></stop>
            <stop stop-color="#B71C1C" offset="100%"></stop>
        </linearGradient>
    </defs>
    <g id="**Icon-Set" stroke="none" stroke-width="1" fill="none" fill-rule="evenodd">
        <g id="icn/d/sales/ship/opt_free_menu">
            <g id="icn/d/sales/opt_cal_menu_gradients">
                <g id="icn/d/sales/opt_free_menu_gradients">
                    <circle id="Oval-793" fill="url(#linearGradient-1)" cx="50" cy="50" r="50"></circle>
                    <g id="if_hand-truck_553675" transform="translate(25.000000, 26.000000)" fill="#FFFFFF" fill-rule="nonzero">
                        <path d="M32.4270833,32.2226087 L35.84375,30.8034783 L33.8958333,26.0973913 L38.59375,24.146087 L40.5416667,28.8521739 L48.9583333,25.3669565 C49.21875,25.2626087 49.4270833,25.053913 49.53125,24.7930435 C49.6354167,24.5321739 49.6354167,24.24 49.53125,23.9791304 L40.6041667,2.4 C40.375,1.8573913 39.7604167,1.59652174 39.21875,1.82608696 L30.8020833,5.32173913 L32.75,10.0278261 L28.0520833,11.9791304 L26.1041667,7.27304348 L17.6875,10.7686957 C17.4270833,10.8730435 17.21875,11.0817391 17.1145833,11.3426087 C17.0104167,11.6034783 17.0104167,11.8956522 17.1145833,12.1565217 L23.96875,28.7165217 C27.1666667,28.5182609 30.3020833,29.8121739 32.4270833,32.2226087 Z M20.6145833,29.4782609 C21.1458333,29.2591304 21.6875,29.0921739 22.2395833,28.9669565 L10.8333333,1.49217391 C10.6666667,1.09565217 10.28125,0.834782609 9.85416667,0.834782609 L1.44791667,0.834782609 C0.864583333,0.834782609 0.385416667,1.31478261 0.385416667,1.89913043 L0.385416667,3.17217391 C0.385416667,3.75652174 0.864583333,4.23652174 1.44791667,4.23652174 L7.625,4.23652174 C8.05208333,4.23652174 8.4375,4.4973913 8.60416667,4.89391304 L19.09375,30.2713043 C19.5833333,29.9791304 20.0833333,29.7078261 20.6145833,29.4782609 Z M33.4583333,33.6313043 C33.75,34.1113043 34.0208333,34.6121739 34.25,35.1443478 C34.46875,35.6765217 34.625,36.2191304 34.7604167,36.7721739 L46.1979167,32.0243478 C46.7395833,31.7947826 47,31.1791304 46.7708333,30.6365217 L46.28125,29.4573913 C46.1770833,29.1965217 45.96875,28.9878261 45.7083333,28.8834783 C45.4479167,28.7791304 45.15625,28.7791304 44.8958333,28.8834783 L33.4583333,33.6313043 Z M21.5416667,31.7321739 C17.4583333,33.4226087 15.5208333,38.1182609 17.2083333,42.2086957 C18.8958333,46.2991304 23.5833333,48.24 27.6666667,46.5495652 C31.75,44.8591304 33.6875,40.1634783 32,36.0730435 C30.3125,31.9826087 25.625,30.0417391 21.5416667,31.7321739 Z M25.6875,41.7704348 C24.2395833,42.3652174 22.5729167,41.6765217 21.9791667,40.226087 C21.3854167,38.7756522 22.0625,37.1165217 23.5104167,36.5113043 C24.9583333,35.9165217 26.6145833,36.5947826 27.21875,38.0452174 C27.8229167,39.506087 27.1354167,41.1652174 25.6875,41.7704348 Z" id="Shape"></path>
                    </g>
                </g>
            </g>
        </g>
    </g>
</svg>