<?xml version="1.0" encoding="UTF-8"?>
<svg width="100px" height="100px" viewBox="0 0 100 100" version="1.1" xmlns="http://www.w3.org/2000/svg" xmlns:xlink="http://www.w3.org/1999/xlink">
    <!-- Generator: Sketch 49 (51002) - http://www.bohemiancoding.com/sketch -->
    <title>icn/d/sales/ship/rider_menu</title>
    <desc>Created with Sketch.</desc>
    <defs>
        <linearGradient x1="50%" y1="100%" x2="50%" y2="3.061617e-15%" id="linearGradient-1">
            <stop stop-color="#4A148C" offset="0%"></stop>
            <stop stop-color="#9C27B0" offset="100%"></stop>
        </linearGradient>
        <polygon id="path-2" points="0.0481427751 0.0960768072 21.241302 0.0960768072 21.241302 18.637116 0.0481427751 18.637116"></polygon>
        <polygon id="path-4" points="0 0.00517367906 15.8984446 0.00517367906 15.8984446 16.0642735 0 16.0642735"></polygon>
    </defs>
    <g id="icn/d/sales/ship/rider_menu" stroke="none" stroke-width="1" fill="none" fill-rule="evenodd">
        <g id="icn/d/sales/rider_menu_gradients">
            <g id="icn/d/sales/shipcarrier_menu_gradients">
                <circle id="Oval-793" fill="url(#linearGradient-1)" cx="50" cy="50" r="50"></circle>
                <g id="Page-1" transform="translate(23.000000, 23.000000)">
                    <g id="Group-3" transform="translate(32.754098, 20.535714)">
                        <mask id="mask-3" fill="white">
                            <use xlink:href="#path-2"></use>
                        </mask>
                        <g id="Clip-2"></g>
                        <path d="M3.96264539,1.91957078 C3.57101991,2.36776355 3.0335205,2.63184488 2.44914869,2.66256777 C2.18696988,2.6765738 1.91778212,2.68380271 1.64925144,2.68470633 L1.64903242,2.68470633 L1.63676674,2.68470633 C1.09817218,2.68470633 0.56833882,2.65375753 0.0481427751,2.59321536 C0.0590942707,2.67544428 0.0770547237,2.75767319 0.106842792,2.83877259 C0.320835018,3.42250753 0.952736319,3.71685994 1.51870962,3.49660392 L3.60058895,2.68448042 L8.54124671,17.5464533 C8.93769086,17.0993901 9.3831977,16.7031551 9.86966314,16.3629443 C10.0284598,16.2515738 10.19098,16.1449473 10.3583189,16.0462274 C10.784113,15.7950226 11.2359717,15.5840286 11.7108286,15.4179895 C11.7572629,15.4017244 11.8041353,15.3877184 11.8507887,15.3723569 C12.5188299,15.1532304 13.207241,15.0296611 13.9024419,15.0052636 C13.9876445,15.0023268 14.0726282,14.9998419 14.1580498,14.9998419 C16.8032741,14.9998419 19.2073464,16.4069955 20.5841685,18.637116 C21.4031213,18.5966792 21.6127329,18.1017244 20.2965822,16.3328991 C18.1741823,13.4804142 15.2218781,12.927628 13.1456936,12.9560919 C13.0151517,12.5937425 12.8804483,12.215128 12.7400502,11.8148268 C11.4677054,8.18658886 8.61002211,6.4582003 6.9280914,5.72740211 L6.46418604,4.33176958 L8.23241453,4.33176958 C8.57935792,5.85277861 9.9001083,6.98613705 11.4806282,6.98613705 C13.3252981,6.98613705 13.3252981,0.0960768072 11.4806282,0.0960768072 C9.9001083,0.0960768072 8.57935792,1.22966114 8.23241453,2.75044428 L5.93851425,2.75044428 L5.30661295,0.849917169 C5.20980172,0.560534639 5.00544681,0.324239458 4.73647808,0.194118976 C4.66222694,0.158200301 4.58469035,0.133350904 4.50583958,0.115278614 C4.5132866,0.17310994 4.52007653,0.230941265 4.52314294,0.290128012 C4.55293101,0.892612952 4.35448991,1.47137801 3.96264539,1.91957078" id="Fill-1" fill="#FFFFFF" mask="url(#mask-3)"></path>
                    </g>
                    <path d="M26.7812838,9.69236861 C29.3995556,10.3074227 32.0160963,8.66502314 32.6263051,6.02408834 C33.2356484,3.38337179 31.607343,0.74374654 28.9890712,0.129128985 C26.3710158,-0.486143347 23.7542587,1.15647445 23.1442663,3.797191 C22.5347066,6.4381258 24.163012,9.07775105 26.7812838,9.69236861" id="Fill-4" fill="#FFFFFF"></path>
                    <path d="M21.9122257,29.9771879 C21.9202581,29.9785235 21.9278442,29.9807495 21.9358766,29.9820851 L30.39711,31.2947403 L33.5665584,39.3093497 C33.9996382,40.4034146 35.0503198,41.071206 36.1619137,41.0714286 C36.5023979,41.0714286 36.8482371,41.0088788 37.184482,40.8764335 C38.6178178,40.3128176 39.3208753,38.6967625 38.755261,37.2672437 L34.999448,27.7696923 C34.6366516,26.8532599 33.8093151,26.1928142 32.8336025,26.0416708 L25.8235548,24.9536161 C25.7896402,23.4145795 25.9476106,21.8252361 26.1812194,20.297552 C25.6002096,19.8394471 25.0479826,19.3317031 24.5310089,18.770981 C22.7667831,16.8495226 21.9414547,14.9643475 21.7306044,14.4318952 L21.7290425,14.4285563 L21.7194483,14.4047384 C21.5092673,13.8482456 21.5293483,13.2434492 21.775675,12.7018704 C22.0215555,12.1602916 22.4642296,11.7469287 23.0224809,11.53791 C23.275055,11.4426385 23.5394546,11.3943349 23.8078704,11.3943349 C24.7315956,11.3943349 25.5705344,11.9742004 25.8958463,12.8367642 C25.9016475,12.8516782 25.9132498,12.8783899 25.9295377,12.9166766 C25.9659066,13.0003731 26.0245877,13.1299247 26.1080354,13.2955369 C26.2648901,13.6076181 26.5328597,14.095551 26.9213151,14.6471466 C27.0054321,14.7666813 27.0969122,14.8920035 27.1964246,15.0213324 C27.7071509,12.8605821 26.8628572,10.3866377 25.0296866,9.93053619 C23.1248939,9.45684952 20.3637589,10.4888098 19.2403395,13.7480769 C17.7219941,18.2389738 17.3955666,21.1618967 17.9725601,26.1068918 C18.5303652,28.9708263 20.2147134,29.7806347 21.9122257,29.9771879" id="Fill-6" fill="#FFFFFF"></path>
                    <path d="M25.8405508,14.1348015 C25.7516482,13.9615616 25.6890124,13.825476 25.6508471,13.7390759 C25.63154,13.6957659 25.6187434,13.6649872 25.6117839,13.648059 C25.6106614,13.6449811 25.6095389,13.6423429 25.6084164,13.6401445 L25.6086409,13.6401445 C25.2590922,12.730855 24.2236919,12.2709339 23.2951543,12.6132365 C22.3666166,12.9550995 21.8976332,13.9696959 22.2465084,14.8783259 C22.3003887,15.0071566 23.0616728,16.9908411 24.9860986,19.0477348 C25.3985076,19.4869902 25.869736,19.9282243 26.3964162,20.3523102 C27.0995545,20.9188574 27.9046164,21.4541862 28.8284395,21.9053134 C30.0472574,22.5017598 31.4679021,22.9443129 33.0703929,23.1245879 C33.584501,23.1824078 34.1165692,23.2142857 34.6674956,23.2142857 L34.6798432,23.2142857 C34.9425098,23.213846 35.2083194,23.2072506 35.477272,23.19362 C36.4679966,23.1437146 37.2292807,22.3164283 37.1778699,21.346241 C37.1742779,21.2791875 37.1661958,21.2132333 37.1551953,21.1483782 C37.0081469,20.2773422 36.2140855,19.6342881 35.2920584,19.6808958 C35.0814761,19.6912286 34.8774044,19.6962851 34.6798432,19.6962851 C32.9588157,19.6945263 31.5828468,19.3168282 30.4307058,18.7568765 C29.0450833,18.0828239 27.9849879,17.1152748 27.2109071,16.1888372 C27.023224,15.9639331 26.8469904,15.7407879 26.693207,15.5255571 C26.2994316,14.9770375 26.0179069,14.4812812 25.8405508,14.1348015" id="Fill-8" fill="#FFFFFF"></path>
                    <g id="Group-12" transform="translate(0.000000, 13.392857)">
                        <mask id="mask-5" fill="white">
                            <use xlink:href="#path-4"></use>
                        </mask>
                        <g id="Clip-11"></g>
                        <path d="M1.14919513,16.0642735 L14.7492279,16.0642735 C15.3838057,16.0642735 15.8984446,15.5380993 15.8984446,14.8892979 L15.8984446,1.18014922 C15.8984446,0.531127691 15.3838057,0.00517367906 14.7492279,0.00517367906 L1.14919513,0.00517367906 C0.514617368,0.00517367906 -2.15330084e-05,0.531127691 -2.15330084e-05,1.18014922 L-2.15330084e-05,14.8892979 C-2.15330084e-05,15.5380993 0.514617368,16.0642735 1.14919513,16.0642735" id="Fill-10" fill="#FFFFFF" mask="url(#mask-5)"></path>
                    </g>
                    <path d="M15.4486475,45.808441 C14.3207277,46.1940476 13.1139294,45.7599031 12.4624009,44.8242005 C12.3218008,44.6224087 12.2054883,44.3983704 12.1230445,44.1527597 C11.6580172,42.7696547 12.3931035,41.2676767 13.7645666,40.7987018 C15.1362525,40.329727 16.625365,41.071278 17.0901696,42.4543831 C17.3695871,43.285145 17.2136124,44.157254 16.7490307,44.8242005 C16.4402008,45.2675582 15.9963414,45.6212555 15.4486475,45.808441 M20.8935007,41.1539722 C19.7161147,37.652503 15.9473208,35.7761541 12.4751017,36.9635346 C9.20988318,38.0796813 7.37094173,41.5076696 8.1421251,44.8242005 C8.19114571,45.0345314 8.24952481,45.2444128 8.31993623,45.4531706 C9.49687659,48.9546399 13.2658933,50.8309888 16.7381124,49.6436082 C18.9917237,48.8730693 20.5652854,47.0007652 21.0708662,44.8242005 C21.3442675,43.6476062 21.3063879,42.3824751 20.8935007,41.1539722" id="Fill-13" fill="#FFFFFF"></path>
                    <path d="M39.7739458,41.9937351 L25.7785534,41.9937351 C24.5686442,39.5386613 24.1524635,37.0325919 24.0146146,35.4020572 C24.3739436,35.2914564 24.6369101,34.9589916 24.6369101,34.5614025 L24.6369101,32.1330407 C24.6369101,31.6453815 24.2437774,31.25 23.7588918,31.25 L5.86926867,31.25 C5.38438305,31.25 4.99125035,31.6453815 4.99125035,32.1330407 L4.99125035,34.5614025 C4.99125035,35.0490617 5.38438305,35.4444432 5.86926867,35.4444432 L5.96585068,35.4444432 C5.0125423,37.7977466 3.54098361,41.8767322 3.54098361,44.6428571 L7.32568154,44.6428571 C6.99620517,42.9909088 7.21373421,41.2855365 7.96751293,39.7494872 C8.87077426,37.9098928 10.4318908,36.5336739 12.3637506,35.8753671 C13.1587962,35.603832 13.9839139,35.46674 14.8164948,35.46674 C18.0906251,35.46674 20.9968657,37.562637 22.0482926,40.683082 C22.4936674,42.0043316 22.5575432,43.3642142 22.3031374,44.6428571 L23.8451571,44.6428571 L27.4669826,44.6428571 L39.8360656,44.6428571 C39.6606814,43.7635694 39.6407065,42.8697115 39.7739458,41.9937351" id="Fill-15" fill="#FFFFFF"></path>
                    <path d="M48.2021639,45.808256 C46.8307715,46.2772516 45.3415129,45.5356678 44.8767323,44.1525017 C44.4117289,42.7693356 45.1467774,41.2672914 46.5181698,40.7982958 C47.889785,40.3293003 49.3788208,41.070884 49.8436014,42.4540501 C50.3088276,43.8372163 49.5737791,45.3390358 48.2021639,45.808256 M52.3949928,38.9405161 C51.1800127,37.5151022 49.4126878,36.6622808 47.5444303,36.6096958 C46.9123198,36.5919427 46.2690688,36.6665506 45.6318336,36.8407104 C45.4970339,36.8773401 45.3626798,36.917116 45.2287713,36.9629593 C44.7405957,37.1297033 44.2856187,37.3499312 43.8651772,37.6121822 C43.7118843,37.707914 43.5628247,37.8081401 43.4191126,37.9148833 C42.9021946,38.2993832 42.4490001,38.7533224 42.0695556,39.2596218 C41.4387819,40.1007576 41.0105421,41.0848168 40.8251646,42.1273038 C40.6696436,43.0014738 40.6852402,43.916768 40.896018,44.8239721 C40.9450361,45.0343122 41.0034122,45.2442029 41.07382,45.45297 C42.2506997,48.9545938 46.0195222,50.8310255 49.4915624,49.6435925 C52.9633798,48.456609 54.823839,44.6552056 53.6467365,41.1535819 C53.3651053,40.3158169 52.9337462,39.5724354 52.3949928,38.9405161" id="Fill-17" fill="#FFFFFF"></path>
                </g>
            </g>
        </g>
    </g>
</svg>