<?xml version="1.0" encoding="UTF-8" standalone="no"?>
<svg width="26px" height="26px" viewBox="0 0 26 26" version="1.1" xmlns="http://www.w3.org/2000/svg" xmlns:xlink="http://www.w3.org/1999/xlink">
    <!-- Generator: Sketch 3.8.1 (29687) - http://www.bohemiancoding.com/sketch -->
    <title>icn/d/promotion/freegift_normal</title>
    <desc>Created with Sketch.</desc>
    <defs></defs>
    <g id="Symbols" stroke="none" stroke-width="1" fill="none" fill-rule="evenodd">
        <g id="MenuIcon/D/Promotions" transform="translate(-196.000000, -12.000000)">
            <g id="icn/d/promotion/freegift_normal" transform="translate(184.000000, 0.000000)">
                <rect id="Rectangle-204" x="0" y="0" width="50" height="50"></rect>
                <g id="1464373181_gift-present" stroke-width="1" fill-rule="evenodd" transform="translate(12.500000, 12.500000)" fill="#FFFFFF">
                    <g id="Layer_1" transform="translate(-0.000000, -0.000000)">
                        <g id="Group">
                            <path d="M11.3123607,17.7792323 L1.33767648,17.7792323 L1.33767648,22.6677796 C1.33767648,23.6873034 2.16391657,24.5130651 3.18248353,24.5130651 L11.3118822,24.5130651 L11.3118822,17.7792323 L11.3123607,17.7792323 Z" id="Shape"></path>
                            <path d="M13.5657427,17.7792323 L13.5657427,24.5130651 L21.6951414,24.5130651 C22.7141868,24.5130651 23.5404269,23.686825 23.5404269,22.6677796 L23.5404269,17.7792323 L13.5657427,17.7792323 L13.5657427,17.7792323 Z" id="Shape"></path>
                            <path d="M23.801647,4.89141786 L18.5619357,4.89141786 C19.0858111,4.05130345 19.1805393,2.9681491 18.7116827,2.01656165 C18.2102932,0.997994685 17.1931616,0.365038325 16.0564236,0.365038325 C15.6014414,0.365038325 15.1622472,0.467421288 14.75128,0.669795091 C13.7542422,1.16113763 12.9782367,2.11655249 12.4380948,2.98441556 C11.8979529,2.11607406 11.1224259,1.16065921 10.1249096,0.669316666 C9.71442094,0.467421288 9.27570516,0.365038325 8.8202445,0.365038325 C7.68398497,0.365038325 6.66637486,0.997994685 6.16498539,2.01608322 C5.69612882,2.9681491 5.79085699,4.05082502 6.31521086,4.89141786 L1.0764564,4.89141786 C0.550188825,4.89141786 0.119606266,5.32200042 0.119606266,5.84826799 L0.119606266,10.8114496 C0.119606266,11.3377172 0.550188825,11.7682997 1.0764564,11.7682997 L1.33767648,11.7682997 L1.33767648,15.8660104 L11.3123607,15.8660104 L11.3123607,11.55253 L13.5662211,11.55253 L13.5662211,15.8660104 L23.5409053,15.8660104 L23.5409053,11.7682997 L23.8021254,11.7682997 C24.328393,11.7682997 24.7589755,11.3377172 24.7589755,10.8114496 L24.7589755,5.84826799 C24.7584971,5.32200042 24.3279146,4.89141786 23.801647,4.89141786 L23.801647,4.89141786 Z M10.6731848,4.50102301 C10.4215332,4.53116379 10.1593563,4.55412819 9.88617554,4.55412819 C9.26805036,4.55412819 8.75326499,4.4550942 8.35808588,4.26085363 C7.84138681,4.00633149 7.62800924,3.37863781 7.88253137,2.86146031 C8.05954864,2.50216309 8.41884587,2.27873858 8.82072292,2.27873858 C8.98051689,2.27873858 9.13552662,2.31509889 9.28001098,2.38638422 C9.89574404,2.68970572 10.4459329,3.39490426 10.8583353,4.07570313 C10.7793951,4.20727002 10.7181567,4.35031912 10.6731848,4.50102301 L10.6731848,4.50102301 Z M16.5200175,4.26085363 C16.1238815,4.45557263 15.610053,4.55460662 14.9914494,4.55460662 C14.7177903,4.55460662 14.4556133,4.53116379 14.2044402,4.50150144 C14.1594682,4.35079754 14.0987082,4.20774845 14.0192897,4.07570313 C14.4316921,3.39490426 14.9823593,2.69018414 15.5971355,2.38686265 C16.1076151,2.13616792 16.7482262,2.35959242 16.995572,2.86241716 C17.2500941,3.37863781 17.0362381,4.00633149 16.5200175,4.26085363 L16.5200175,4.26085363 Z" id="Shape"></path>
                        </g>
                    </g>
                </g>
            </g>
        </g>
    </g>
</svg>