<?xml version="1.0" encoding="UTF-8" standalone="no"?>
<svg width="26px" height="23px" viewBox="0 0 26 23" version="1.1" xmlns="http://www.w3.org/2000/svg" xmlns:xlink="http://www.w3.org/1999/xlink">
    <!-- Generator: Sketch 3.8.1 (29687) - http://www.bohemiancoding.com/sketch -->
    <title>icn/d/promotion/manage_normal</title>
    <desc>Created with Sketch.</desc>
    <defs></defs>
    <g id="Symbols" stroke="none" stroke-width="1" fill="none" fill-rule="evenodd">
        <g id="MenuIcon/D/Promotions" transform="translate(-104.000000, -13.000000)">
            <g id="icn/d/promotion/manage_normal" transform="translate(92.000000, 0.000000)">
                <rect id="Rectangle-204" x="0" y="0" width="50" height="50"></rect>
                <g id="1464444667_06_menu_bullet" stroke-width="1" fill-rule="evenodd" transform="translate(12.500000, 13.500000)" fill="#FFFFFF">
                    <g id="Layer_1" transform="translate(0.000000, -0.000000)">
                        <path d="M22.475344,8.6543578 L10.6862959,8.6543578 C9.32241972,8.6543578 8.21674312,9.7600344 8.21674312,11.1239106 C8.21674312,12.4877294 9.32241972,13.5934633 10.6862959,13.5934633 L22.475344,13.5934633 C23.8392202,13.5934633 24.9448394,12.4877294 24.9448394,11.1239106 C24.9448394,9.7600344 23.8392202,8.6543578 22.475344,8.6543578 L22.475344,8.6543578 Z" id="Shape"></path>
                        <ellipse id="Oval" cx="2.95693807" cy="11.1237959" rx="2.8787844" ry="2.8787844"></ellipse>
                        <path d="M22.475344,0.447821101 L10.6862959,0.447821101 C9.32241972,0.447821101 8.21674312,1.55349771 8.21674312,2.91737385 C8.21674312,4.28119266 9.32241972,5.38692661 10.6862959,5.38692661 L22.475344,5.38692661 C23.8392202,5.38692661 24.9448394,4.28119266 24.9448394,2.91737385 C24.9448394,1.55349771 23.8392202,0.447821101 22.475344,0.447821101 L22.475344,0.447821101 Z" id="Shape"></path>
                        <circle id="Oval" cx="2.95693807" cy="2.91725917" r="2.8709289"></circle>
                        <path d="M22.475344,16.8608372 L10.6862959,16.8608372 C9.32241972,16.8608372 8.21674312,17.9665138 8.21674312,19.3303899 C8.21674312,20.6942087 9.32241972,21.7999427 10.6862959,21.7999427 L22.475344,21.7999427 C23.8392202,21.7999427 24.9448394,20.6942087 24.9448394,19.3303899 C24.9448394,17.9665138 23.8392202,16.8608372 22.475344,16.8608372 L22.475344,16.8608372 Z" id="Shape"></path>
                        <ellipse id="Oval" cx="2.95693807" cy="19.3302752" rx="2.94397936" ry="2.94397936"></ellipse>
                    </g>
                </g>
            </g>
        </g>
    </g>
</svg>