<?xml version="1.0" encoding="UTF-8" standalone="no"?>
<svg width="26px" height="19px" viewBox="0 0 26 19" version="1.1" xmlns="http://www.w3.org/2000/svg" xmlns:xlink="http://www.w3.org/1999/xlink">
    <!-- Generator: Sketch 3.8.1 (29687) - http://www.bohemiancoding.com/sketch -->
    <title>icn/d/coupon/member_normal</title>
    <desc>Created with Sketch.</desc>
    <defs></defs>
    <g id="Symbols" stroke="none" stroke-width="1" fill="none" fill-rule="evenodd">
        <g id="MenuIcon/D/Coupons" transform="translate(-192.000000, -15.000000)" fill="#FFFFFF">
            <g id="icn/d/coupon/member_normal" transform="translate(180.000000, 0.000000)">
                <g id="1464449033_30" transform="translate(12.500000, 15.625000)">
                    <g id="Layer_1" transform="translate(0.000000, 0.000000)">
                        <path d="M2.07993491,0 C0.931082862,0 0,0.931082862 0,2.07993491 L0,16.2234923 C0,17.3723443 0.931082862,18.3034272 2.07993491,18.3034272 L5.82381774,18.3034272 L5.82381774,16.6394793 L4.99184378,16.6394793 C4.53197017,16.6394793 4.15986982,16.2673789 4.15986982,15.8075053 C4.15986982,15.3476317 4.53197017,14.9755313 4.99184378,14.9755313 L8.31973963,14.9755313 C8.77961324,14.9755313 9.1517136,15.3476317 9.1517136,15.8075053 C9.1517136,16.2673789 8.77961324,16.6394793 8.31973963,16.6394793 L7.48776567,16.6394793 L7.48776567,18.3034272 L17.4714532,18.3034272 L17.4714532,16.6394793 L16.6394793,16.6394793 C16.1796057,16.6394793 15.8075053,16.2673789 15.8075053,15.8075053 C15.8075053,15.3476317 16.1796057,14.9755313 16.6394793,14.9755313 L19.9673751,14.9755313 C20.4272487,14.9755313 20.7993491,15.3476317 20.7993491,15.8075053 C20.7993491,16.2673789 20.4272487,16.6394793 19.9673751,16.6394793 L19.1354012,16.6394793 L19.1354012,18.3034272 L22.879284,18.3034272 C24.028136,18.3034272 24.9592189,17.3723443 24.9592189,16.2234923 L24.9592189,2.07993491 C24.9592189,0.931082862 24.028136,0 22.879284,0 L2.07993491,0 Z M10.8156615,11.3161459 C10.8156615,11.7069656 9.13543811,12.5624949 6.65579171,12.5624949 C4.17614531,12.5624949 2.49592189,11.7069656 2.49592189,11.3161459 L2.49592189,10.6604984 C2.49592189,9.41342141 4.33047648,9.56525665 5.40783076,8.77800129 L5.40783076,8.2791289 C5.03245451,7.89480893 4.70179686,7.381325 4.62541125,6.8126188 C4.28658985,6.8126188 4.09487185,6.65662368 3.97704354,5.95381368 C3.87387877,5.34850062 4.1029836,5.27455893 4.37597505,5.26566721 C4.05420912,3.39533774 4.8602359,2.85424268 5.97820091,2.85424268 C5.97820091,2.85424268 5.94408998,2.49592189 6.49496074,2.49592189 C7.60642596,2.49592189 9.40525766,3.2945649 8.93566036,5.26566721 C9.20865181,5.27461093 9.43775665,5.34855262 9.33459187,5.95381368 C9.21676356,6.65662368 9.02504556,6.8126188 8.68622416,6.8126188 C8.6114505,7.38543287 8.2791809,7.8989168 7.90380465,8.28401675 L7.90380465,8.77800129 C8.98115893,9.56530865 10.8157135,9.41336941 10.8157135,10.6604984 C10.8156615,11.1601507 10.8156615,10.960269 10.8156615,11.3161459 L10.8156615,11.3161459 Z M21.631323,10.6661662 C21.631323,10.7490516 21.5647131,10.8164935 21.4818277,10.8164935 L14.2930527,10.8164935 C14.2101673,10.8164935 14.1435574,10.7490516 14.1435574,10.6661662 L14.1435574,10.1331829 C14.1435574,10.0502975 14.2101673,9.98285559 14.2930527,9.98285559 L21.4818277,9.98285559 C21.5647131,9.98285559 21.631323,10.0502975 21.631323,10.1331829 L21.631323,10.6661662 L21.631323,10.6661662 Z M21.631323,8.17024431 C21.631323,8.25312972 21.5647131,8.31973963 21.4818277,8.31973963 L14.2930527,8.31973963 C14.2101673,8.31973963 14.1435574,8.25312972 14.1435574,8.17024431 L14.1435574,7.63726099 C14.1435574,7.55437559 14.2101673,7.48776567 14.2930527,7.48776567 L21.4818277,7.48776567 C21.5647131,7.48776567 21.631323,7.55437559 21.631323,7.63726099 L21.631323,8.17024431 L21.631323,8.17024431 Z M21.631323,5.67432242 C21.631323,5.75720783 21.5647131,5.82381774 21.4818277,5.82381774 L14.2930527,5.82381774 C14.2101673,5.82381774 14.1435574,5.75720783 14.1435574,5.67432242 L14.1435574,5.1413391 C14.1435574,5.0584537 14.2101673,4.99184378 14.2930527,4.99184378 L21.4818277,4.99184378 C21.5647131,4.99184378 21.631323,5.0584537 21.631323,5.1413391 L21.631323,5.67432242 L21.631323,5.67432242 Z" id="Shape"></path>
                    </g>
                </g>
            </g>
        </g>
    </g>
</svg>