<?xml version="1.0" encoding="UTF-8"?>
<svg width="40px" height="40px" viewBox="0 0 40 40" version="1.1" xmlns="http://www.w3.org/2000/svg" xmlns:xlink="http://www.w3.org/1999/xlink">
    <!-- Generator: Sketch 47 (45396) - http://www.bohemiancoding.com/sketch -->
    <title>pinicon/icn-shipbydone</title>
    <desc>Created with Sketch.</desc>
    <defs>
        <linearGradient x1="50%" y1="-1.91428435e-14%" x2="50%" y2="100%" id="linearGradient-1">
            <stop stop-color="#00CDAC" offset="0%"></stop>
            <stop stop-color="#3CBA92" offset="100%"></stop>
        </linearGradient>
    </defs>
    <g id="Symbols" stroke="none" stroke-width="1" fill="none" fill-rule="evenodd">
        <g id="pinicon/icn-shipbydone">
            <circle id="Gradient" fill="url(#linearGradient-1)" cx="20" cy="20" r="20"></circle>
            <g id="package" transform="translate(10.000000, 9.000000)" stroke="#FFFFFF" stroke-width="2" stroke-linecap="round" stroke-linejoin="round">
                <path d="M10.89,0.45 L18.89,4.45 C19.5696577,4.78773001 19.9995973,5.48105603 20,6.24 L20,15.77 C19.9995973,16.528944 19.5696577,17.22227 18.89,17.56 L10.89,21.56 C10.3266321,21.8419095 9.66336793,21.8419095 9.1,21.56 L1.1,17.56 C0.420992406,17.2178689 -0.00529133616,16.5203137 1.11021625e-15,15.76 L1.11021625e-15,6.24 C0.000402725292,5.48105603 0.430342321,4.78773001 1.11,4.45 L9.11,0.45 C9.67063262,0.171414851 10.3293674,0.171414851 10.89,0.45 Z" id="Shape"></path>
                <polyline id="Shape" points="0.32 5.16 10 10 19.68 5.16"></polyline>
                <path d="M10,21.76 L10,10" id="Shape"></path>
                <path d="M5,2.5 L15,7.5" id="Shape"></path>
            </g>
        </g>
    </g>
</svg>