<?xml version="1.0" encoding="UTF-8"?>
<svg width="40px" height="40px" viewBox="0 0 40 40" version="1.1" xmlns="http://www.w3.org/2000/svg" xmlns:xlink="http://www.w3.org/1999/xlink">
    <!-- Generator: Sketch 47 (45396) - http://www.bohemiancoding.com/sketch -->
    <title>pinicon/icn-orderinst</title>
    <desc>Created with Sketch.</desc>
    <defs>
        <linearGradient x1="50%" y1="2.94563138%" x2="50%" y2="100%" id="linearGradient-1">
            <stop stop-color="#868F96" offset="0%"></stop>
            <stop stop-color="#596164" offset="100%"></stop>
        </linearGradient>
    </defs>
    <g id="Symbols" stroke="none" stroke-width="1" fill="none" fill-rule="evenodd">
        <g id="pinicon/icn-orderinst">
            <circle id="Gradient" fill="url(#linearGradient-1)" cx="20" cy="20" r="20"></circle>
            <g id="file-text" transform="translate(12.000000, 10.000000)" stroke="#FFFFFF" stroke-width="2" stroke-linecap="round" stroke-linejoin="round">
                <path d="M10,0 L2,0 C0.8954305,0 0,0.8954305 0,2 L0,18 C0,19.1045695 0.8954305,20 2,20 L14,20 C15.1045695,20 16,19.1045695 16,18 L16,6 L10,0 Z" id="Shape"></path>
                <polyline id="Shape" points="10 0 10 6 16 6"></polyline>
                <path d="M12,11 L4,11" id="Shape"></path>
                <path d="M12,15 L4,15" id="Shape"></path>
                <polyline id="Shape" points="6 7 5 7 4 7"></polyline>
            </g>
        </g>
    </g>
</svg>